<svg width="189" height="32" viewBox="0 0 189 32" fill="none" xmlns="http://www.w3.org/2000/svg">
<g clip-path="url(#clip0_77_175)">
<path d="M117.97 7.398C120.033 7.398 121.757 8.126 123.144 9.582C124.531 11.038 125.224 13.2653 125.224 16.264C125.224 19.2453 124.531 21.5073 123.144 23.05C121.775 24.5753 119.911 25.338 117.554 25.338C115.214 25.338 113.377 24.5753 112.042 23.05C110.707 21.5247 110.04 19.306 110.04 16.394C110.04 14.7993 110.274 13.404 110.742 12.208C111.21 10.9947 111.825 10.0587 112.588 9.4C114.131 8.06533 115.925 7.398 117.97 7.398ZM113.29 16.264C113.29 20.5627 114.781 22.712 117.762 22.712C119.357 22.712 120.475 22.0533 121.116 20.736C121.705 19.5747 122 18.1533 122 16.472C122 14.964 121.74 13.5773 121.22 12.312C120.925 11.6187 120.475 11.0727 119.868 10.674C119.279 10.2753 118.507 10.076 117.554 10.076C116.601 10.076 115.777 10.388 115.084 11.012C114.408 11.636 113.94 12.39 113.68 13.274C113.42 14.158 113.29 15.1547 113.29 16.264ZM131.147 22.088V10.284H129.119C128.72 10.284 128.521 10.5527 128.521 11.09V12.312L125.869 12.13V7.71H139.467V12.13L136.815 12.312V11.09C136.815 10.7953 136.771 10.5873 136.685 10.466C136.598 10.3447 136.39 10.284 136.061 10.284H134.293V22.712L136.347 22.79V25H129.015V22.894L130.393 22.816C130.895 22.764 131.147 22.5213 131.147 22.088ZM152.824 21.958V17.46H145.466V22.712L146.974 22.79V25H140.682V22.894L141.54 22.816C142.042 22.764 142.294 22.5213 142.294 22.088V9.998L140.812 9.92V7.71H147.104V9.816L146.246 9.894C145.968 9.92867 145.769 10.0067 145.648 10.128C145.526 10.232 145.466 10.44 145.466 10.752V14.782H152.824V9.998L151.342 9.92V7.71H157.634V9.816L156.776 9.894C156.273 9.946 156.022 10.2233 156.022 10.726V22.712L157.504 22.79V25H151.212V22.894L152.07 22.816C152.33 22.7813 152.52 22.712 152.642 22.608C152.763 22.4867 152.824 22.27 152.824 21.958ZM171.593 25H159.243V22.894L160.101 22.816C160.604 22.764 160.855 22.5213 160.855 22.088V9.998L159.373 9.92V7.71H171.281V12.026L168.629 12.208V11.168C168.629 10.8733 168.586 10.6653 168.499 10.544C168.413 10.4227 168.205 10.362 167.875 10.362H164.027V14.808H170.033V17.46H164.027V22.322H168.213C168.525 22.322 168.725 22.2613 168.811 22.14C168.898 22.0013 168.941 21.7847 168.941 21.49V20.19L171.593 20.372V25ZM173.461 25V22.894L174.319 22.816C174.822 22.764 175.073 22.5213 175.073 22.088V9.998L173.591 9.92V7.71H180.689C182.7 7.71 184.242 8.08267 185.317 8.828C186.392 9.57333 186.929 10.7953 186.929 12.494C186.929 13.6727 186.617 14.6433 185.993 15.406C185.386 16.1687 184.658 16.7233 183.809 17.07C184.433 17.2953 184.927 17.824 185.291 18.656L187.163 22.738L188.645 22.79V25H182.223V22.894L182.977 22.816C183.376 22.764 183.575 22.608 183.575 22.348C183.575 22.244 183.54 22.1227 183.471 21.984L182.249 19.384C182.058 18.9507 181.842 18.6473 181.599 18.474C181.374 18.2833 181.044 18.188 180.611 18.188H178.245V22.712L179.935 22.79V25H173.461ZM178.245 15.718H180.507C182.639 15.718 183.705 14.7647 183.705 12.858C183.705 11.766 183.419 11.0553 182.847 10.726C182.292 10.3967 181.391 10.232 180.143 10.232H178.245V15.718Z" fill="url(#paint0_linear_77_175)"/>
<rect x="72.5" y="0.5" width="31" height="31" rx="5.5" fill="black"/>
<rect x="72.5" y="0.5" width="31" height="31" rx="5.5" stroke="url(#paint1_linear_77_175)"/>
<rect x="76.5" y="4.5" width="23" height="23" rx="3.5" fill="white"/>
<rect x="76.5" y="4.5" width="23" height="23" rx="3.5" stroke="url(#paint2_linear_77_175)"/>
<path d="M94.93 14.22C94.93 14.7267 94.76 15.16 94.42 15.52C94.0867 15.8733 93.5733 16.0667 92.88 16.1V17.25H92.53V16.1C92.2033 16.0867 91.8933 16.0233 91.6 15.91C91.3133 15.79 91.0667 15.6033 90.86 15.35C90.6533 15.09 90.5167 14.7433 90.45 14.31L91.05 14.11C91.0833 14.5167 91.17 14.84 91.31 15.08C91.45 15.32 91.6267 15.4933 91.84 15.6C92.06 15.7 92.29 15.7567 92.53 15.77V12.99L92.12 12.87C91.6133 12.73 91.2267 12.4933 90.96 12.16C90.6933 11.8267 90.56 11.42 90.56 10.94C90.56 10.6267 90.63 10.3333 90.77 10.06C90.91 9.78667 91.1233 9.56333 91.41 9.39C91.7033 9.21 92.0767 9.11333 92.53 9.1V7.95H92.88V9.11C93.36 9.13667 93.7467 9.25 94.04 9.45C94.3333 9.65 94.5333 9.90333 94.64 10.21C94.7533 10.51 94.78 10.83 94.72 11.17L93.88 11.35C93.9533 10.79 93.9067 10.3467 93.74 10.02C93.58 9.68667 93.2933 9.49333 92.88 9.44V12.16L93.26 12.27C94.3733 12.5767 94.93 13.2267 94.93 14.22ZM91.3 10.69C91.3 11.0167 91.39 11.2967 91.57 11.53C91.7567 11.7567 92.0767 11.9333 92.53 12.06V9.42C92.15 9.43333 91.85 9.55 91.63 9.77C91.41 9.99 91.3 10.2967 91.3 10.69ZM94.2 14.48C94.2 14.14 94.1 13.8567 93.9 13.63C93.7 13.3967 93.36 13.2167 92.88 13.09V15.77C93.2733 15.7433 93.59 15.6233 93.83 15.41C94.0767 15.19 94.2 14.88 94.2 14.48Z" fill="black"/>
<path d="M84.49 22.542V20.832H79.288V20.256C79.9 19.608 80.428 18.978 80.872 18.366C81.316 17.742 81.7 17.1 82.024 16.44C82.348 15.78 82.63 15.072 82.87 14.316C83.122 13.548 83.35 12.696 83.554 11.76H85.462C84.982 13.452 84.28 14.97 83.356 16.314C82.432 17.658 81.328 18.972 80.044 20.256H84.49V17.43L86.056 17.178V20.256H87.442V20.832H86.056V22.542C86.056 22.962 86.074 23.208 86.11 23.28C86.146 23.352 86.26 23.4 86.452 23.424L87.442 23.532V24H82.744V23.532L84.094 23.424C84.286 23.412 84.4 23.37 84.436 23.298C84.472 23.214 84.49 22.962 84.49 22.542Z" fill="black"/>
<path d="M13.234 26H0.884V23.894L1.742 23.816C2.24467 23.764 2.496 23.5213 2.496 23.088V10.998L1.014 10.92V8.71H12.922V13.026L10.27 13.208V12.168C10.27 11.8733 10.2267 11.6653 10.14 11.544C10.0533 11.4227 9.84533 11.362 9.516 11.362H5.668V15.808H11.674V18.46H5.668V23.322H9.854C10.166 23.322 10.3653 23.2613 10.452 23.14C10.5387 23.0013 10.582 22.7847 10.582 22.49V21.19L13.234 21.372V26ZM16.0375 23.088L20.2235 10.972L18.5855 10.816V8.71H24.5395L29.8435 23.712H29.8695L31.3515 23.79V26H24.6435V23.894L25.6315 23.816C25.9262 23.7813 26.1255 23.712 26.2295 23.608C26.3335 23.504 26.3422 23.3133 26.2555 23.036L25.7095 21.424H19.6255L18.8455 23.712L20.4055 23.79V26H14.3995V23.894L15.2575 23.816C15.6215 23.7813 15.8815 23.5387 16.0375 23.088ZM22.6675 11.622L20.2495 19.032H25.0855L22.7455 11.622H22.6675ZM42.8204 11.466C42.6297 11.1367 41.919 10.972 40.6884 10.972C39.0764 10.972 37.8544 11.518 37.0224 12.61C36.1904 13.702 35.7744 15.2793 35.7744 17.342C35.7744 21.6233 37.3777 23.764 40.5844 23.764C40.6364 23.764 40.8617 23.764 41.2604 23.764C41.6764 23.764 42.0664 23.712 42.4304 23.608C42.7944 23.4867 43.011 23.3653 43.0804 23.244C43.1497 23.1227 43.1844 22.932 43.1844 22.672V20.592L45.8364 20.774V25.272C44.4844 25.9827 42.7684 26.338 40.6884 26.338C38.0364 26.338 36.0084 25.5927 34.6044 24.102C33.2177 22.6113 32.5244 20.3927 32.5244 17.446C32.5244 15.8167 32.7584 14.3953 33.2264 13.182C33.6944 11.9687 34.327 11.024 35.1244 10.348C36.6844 9.048 38.539 8.398 40.6884 8.398C42.4217 8.398 44.051 8.75333 45.5764 9.464V13.884L42.9244 14.066V12.038C42.9244 11.778 42.8897 11.5873 42.8204 11.466ZM60.099 22.958V18.46H52.741V23.712L54.249 23.79V26H47.957V23.894L48.815 23.816C49.3177 23.764 49.569 23.5213 49.569 23.088V10.998L48.087 10.92V8.71H54.379V10.816L53.521 10.894C53.2437 10.9287 53.0443 11.0067 52.923 11.128C52.8017 11.232 52.741 11.44 52.741 11.752V15.782H60.099V10.998L58.617 10.92V8.71H64.909V10.816L64.051 10.894C63.5483 10.946 63.297 11.2233 63.297 11.726V23.712L64.779 23.79V26H58.487V23.894L59.345 23.816C59.605 23.7813 59.7957 23.712 59.917 23.608C60.0383 23.4867 60.099 23.27 60.099 22.958Z" fill="url(#paint3_linear_77_175)"/>
</g>
<defs>
<linearGradient id="paint0_linear_77_175" x1="180.515" y1="13" x2="112.053" y2="15.2031" gradientUnits="userSpaceOnUse">
<stop stop-color="#4C8455"/>
<stop offset="1" stop-color="#666666"/>
</linearGradient>
<linearGradient id="paint1_linear_77_175" x1="104" y1="16" x2="72" y2="16" gradientUnits="userSpaceOnUse">
<stop stop-color="#4C8455"/>
<stop offset="1" stop-color="#3C2E79"/>
</linearGradient>
<linearGradient id="paint2_linear_77_175" x1="98.3636" y1="16" x2="76" y2="16" gradientUnits="userSpaceOnUse">
<stop stop-color="#4C8455"/>
<stop offset="0.495192" stop-color="#3C2E79"/>
</linearGradient>
<linearGradient id="paint3_linear_77_175" x1="61.0882" y1="14.3125" x2="3.94949" y2="13.3604" gradientUnits="userSpaceOnUse">
<stop stop-color="#3C2E79"/>
<stop offset="1" stop-color="#666666"/>
</linearGradient>
<clipPath id="clip0_77_175">
<rect width="189" height="32" fill="white"/>
</clipPath>
</defs>
</svg>
