<svg width="190" height="34" viewBox="0 0 190 34" fill="none" xmlns="http://www.w3.org/2000/svg">
<path d="M117.97 10.398C120.033 10.398 121.757 11.126 123.144 12.582C124.531 14.038 125.224 16.2653 125.224 19.264C125.224 22.2453 124.531 24.5073 123.144 26.05C121.775 27.5753 119.911 28.338 117.554 28.338C115.214 28.338 113.377 27.5753 112.042 26.05C110.707 24.5247 110.04 22.306 110.04 19.394C110.04 17.7993 110.274 16.404 110.742 15.208C111.21 13.9947 111.825 13.0587 112.588 12.4C114.131 11.0653 115.925 10.398 117.97 10.398ZM113.29 19.264C113.29 23.5627 114.781 25.712 117.762 25.712C119.357 25.712 120.475 25.0533 121.116 23.736C121.705 22.5747 122 21.1533 122 19.472C122 17.964 121.74 16.5773 121.22 15.312C120.925 14.6187 120.475 14.0727 119.868 13.674C119.279 13.2753 118.507 13.076 117.554 13.076C116.601 13.076 115.777 13.388 115.084 14.012C114.408 14.636 113.94 15.39 113.68 16.274C113.42 17.158 113.29 18.1547 113.29 19.264ZM131.147 25.088V13.284H129.119C128.72 13.284 128.521 13.5527 128.521 14.09V15.312L125.869 15.13V10.71H139.467V15.13L136.815 15.312V14.09C136.815 13.7953 136.771 13.5873 136.685 13.466C136.598 13.3447 136.39 13.284 136.061 13.284H134.293V25.712L136.347 25.79V28H129.015V25.894L130.393 25.816C130.895 25.764 131.147 25.5213 131.147 25.088ZM152.824 24.958V20.46H145.466V25.712L146.974 25.79V28H140.682V25.894L141.54 25.816C142.042 25.764 142.294 25.5213 142.294 25.088V12.998L140.812 12.92V10.71H147.104V12.816L146.246 12.894C145.968 12.9287 145.769 13.0067 145.648 13.128C145.526 13.232 145.466 13.44 145.466 13.752V17.782H152.824V12.998L151.342 12.92V10.71H157.634V12.816L156.776 12.894C156.273 12.946 156.022 13.2233 156.022 13.726V25.712L157.504 25.79V28H151.212V25.894L152.07 25.816C152.33 25.7813 152.52 25.712 152.642 25.608C152.763 25.4867 152.824 25.27 152.824 24.958ZM171.593 28H159.243V25.894L160.101 25.816C160.604 25.764 160.855 25.5213 160.855 25.088V12.998L159.373 12.92V10.71H171.281V15.026L168.629 15.208V14.168C168.629 13.8733 168.586 13.6653 168.499 13.544C168.413 13.4227 168.205 13.362 167.875 13.362H164.027V17.808H170.033V20.46H164.027V25.322H168.213C168.525 25.322 168.725 25.2613 168.811 25.14C168.898 25.0013 168.941 24.7847 168.941 24.49V23.19L171.593 23.372V28ZM173.461 28V25.894L174.319 25.816C174.822 25.764 175.073 25.5213 175.073 25.088V12.998L173.591 12.92V10.71H180.689C182.7 10.71 184.242 11.0827 185.317 11.828C186.392 12.5733 186.929 13.7953 186.929 15.494C186.929 16.6727 186.617 17.6433 185.993 18.406C185.386 19.1687 184.658 19.7233 183.809 20.07C184.433 20.2953 184.927 20.824 185.291 21.656L187.163 25.738L188.645 25.79V28H182.223V25.894L182.977 25.816C183.376 25.764 183.575 25.608 183.575 25.348C183.575 25.244 183.54 25.1227 183.471 24.984L182.249 22.384C182.058 21.9507 181.842 21.6473 181.599 21.474C181.374 21.2833 181.044 21.188 180.611 21.188H178.245V25.712L179.935 25.79V28H173.461ZM178.245 18.718H180.507C182.639 18.718 183.705 17.7647 183.705 15.858C183.705 14.766 183.419 14.0553 182.847 13.726C182.292 13.3967 181.391 13.232 180.143 13.232H178.245V18.718Z" fill="url(#paint0_linear_77_183)"/>
<rect x="72.5" y="1.5" width="31" height="31" rx="5.5" fill="white"/>
<rect x="72.5" y="1.5" width="31" height="31" rx="5.5" stroke="url(#paint1_linear_77_183)"/>
<rect x="76.5" y="5.5" width="23" height="23" rx="3.5" fill="black"/>
<rect x="76.5" y="5.5" width="23" height="23" rx="3.5" stroke="url(#paint2_linear_77_183)"/>
<path d="M94.93 15.22C94.93 15.7267 94.76 16.16 94.42 16.52C94.0867 16.8733 93.5733 17.0667 92.88 17.1V18.25H92.53V17.1C92.2033 17.0867 91.8933 17.0233 91.6 16.91C91.3133 16.79 91.0667 16.6033 90.86 16.35C90.6533 16.09 90.5167 15.7433 90.45 15.31L91.05 15.11C91.0833 15.5167 91.17 15.84 91.31 16.08C91.45 16.32 91.6267 16.4933 91.84 16.6C92.06 16.7 92.29 16.7567 92.53 16.77V13.99L92.12 13.87C91.6133 13.73 91.2267 13.4933 90.96 13.16C90.6933 12.8267 90.56 12.42 90.56 11.94C90.56 11.6267 90.63 11.3333 90.77 11.06C90.91 10.7867 91.1233 10.5633 91.41 10.39C91.7033 10.21 92.0767 10.1133 92.53 10.1V8.95H92.88V10.11C93.36 10.1367 93.7467 10.25 94.04 10.45C94.3333 10.65 94.5333 10.9033 94.64 11.21C94.7533 11.51 94.78 11.83 94.72 12.17L93.88 12.35C93.9533 11.79 93.9067 11.3467 93.74 11.02C93.58 10.6867 93.2933 10.4933 92.88 10.44V13.16L93.26 13.27C94.3733 13.5767 94.93 14.2267 94.93 15.22ZM91.3 11.69C91.3 12.0167 91.39 12.2967 91.57 12.53C91.7567 12.7567 92.0767 12.9333 92.53 13.06V10.42C92.15 10.4333 91.85 10.55 91.63 10.77C91.41 10.99 91.3 11.2967 91.3 11.69ZM94.2 15.48C94.2 15.14 94.1 14.8567 93.9 14.63C93.7 14.3967 93.36 14.2167 92.88 14.09V16.77C93.2733 16.7433 93.59 16.6233 93.83 16.41C94.0767 16.19 94.2 15.88 94.2 15.48Z" fill="white"/>
<path d="M84.49 23.542V21.832H79.288V21.256C79.9 20.608 80.428 19.978 80.872 19.366C81.316 18.742 81.7 18.1 82.024 17.44C82.348 16.78 82.63 16.072 82.87 15.316C83.122 14.548 83.35 13.696 83.554 12.76H85.462C84.982 14.452 84.28 15.97 83.356 17.314C82.432 18.658 81.328 19.972 80.044 21.256H84.49V18.43L86.056 18.178V21.256H87.442V21.832H86.056V23.542C86.056 23.962 86.074 24.208 86.11 24.28C86.146 24.352 86.26 24.4 86.452 24.424L87.442 24.532V25H82.744V24.532L84.094 24.424C84.286 24.412 84.4 24.37 84.436 24.298C84.472 24.214 84.49 23.962 84.49 23.542Z" fill="white"/>
<path d="M15.234 28H2.884V25.894L3.742 25.816C4.24467 25.764 4.496 25.5213 4.496 25.088V12.998L3.014 12.92V10.71H14.922V15.026L12.27 15.208V14.168C12.27 13.8733 12.2267 13.6653 12.14 13.544C12.0533 13.4227 11.8453 13.362 11.516 13.362H7.668V17.808H13.674V20.46H7.668V25.322H11.854C12.166 25.322 12.3653 25.2613 12.452 25.14C12.5387 25.0013 12.582 24.7847 12.582 24.49V23.19L15.234 23.372V28ZM18.0375 25.088L22.2235 12.972L20.5855 12.816V10.71H26.5395L31.8435 25.712H31.8695L33.3515 25.79V28H26.6435V25.894L27.6315 25.816C27.9262 25.7813 28.1255 25.712 28.2295 25.608C28.3335 25.504 28.3422 25.3133 28.2555 25.036L27.7095 23.424H21.6255L20.8455 25.712L22.4055 25.79V28H16.3995V25.894L17.2575 25.816C17.6215 25.7813 17.8815 25.5387 18.0375 25.088ZM24.6675 13.622L22.2495 21.032H27.0855L24.7455 13.622H24.6675ZM44.8204 13.466C44.6297 13.1367 43.919 12.972 42.6884 12.972C41.0764 12.972 39.8544 13.518 39.0224 14.61C38.1904 15.702 37.7744 17.2793 37.7744 19.342C37.7744 23.6233 39.3777 25.764 42.5844 25.764C42.6364 25.764 42.8617 25.764 43.2604 25.764C43.6764 25.764 44.0664 25.712 44.4304 25.608C44.7944 25.4867 45.011 25.3653 45.0804 25.244C45.1497 25.1227 45.1844 24.932 45.1844 24.672V22.592L47.8364 22.774V27.272C46.4844 27.9827 44.7684 28.338 42.6884 28.338C40.0364 28.338 38.0084 27.5927 36.6044 26.102C35.2177 24.6113 34.5244 22.3927 34.5244 19.446C34.5244 17.8167 34.7584 16.3953 35.2264 15.182C35.6944 13.9687 36.327 13.024 37.1244 12.348C38.6844 11.048 40.539 10.398 42.6884 10.398C44.4217 10.398 46.051 10.7533 47.5764 11.464V15.884L44.9244 16.066V14.038C44.9244 13.778 44.8897 13.5873 44.8204 13.466ZM62.099 24.958V20.46H54.741V25.712L56.249 25.79V28H49.957V25.894L50.815 25.816C51.3177 25.764 51.569 25.5213 51.569 25.088V12.998L50.087 12.92V10.71H56.379V12.816L55.521 12.894C55.2437 12.9287 55.0443 13.0067 54.923 13.128C54.8017 13.232 54.741 13.44 54.741 13.752V17.782H62.099V12.998L60.617 12.92V10.71H66.909V12.816L66.051 12.894C65.5483 12.946 65.297 13.2233 65.297 13.726V25.712L66.779 25.79V28H60.487V25.894L61.345 25.816C61.605 25.7813 61.7957 25.712 61.917 25.608C62.0383 25.4867 62.099 25.27 62.099 24.958Z" fill="url(#paint3_linear_77_183)"/>
<defs>
<linearGradient id="paint0_linear_77_183" x1="180.515" y1="14.5" x2="112.068" y2="16.9305" gradientUnits="userSpaceOnUse">
<stop stop-color="#4C8455"/>
<stop offset="1" stop-color="#666666"/>
</linearGradient>
<linearGradient id="paint1_linear_77_183" x1="104" y1="17" x2="72" y2="17" gradientUnits="userSpaceOnUse">
<stop stop-color="#4C8455"/>
<stop offset="1" stop-color="#3C2E79"/>
</linearGradient>
<linearGradient id="paint2_linear_77_183" x1="98.3636" y1="17" x2="76" y2="17" gradientUnits="userSpaceOnUse">
<stop stop-color="#4C8455"/>
<stop offset="0.495192" stop-color="#3C2E79"/>
</linearGradient>
<linearGradient id="paint3_linear_77_183" x1="63.0882" y1="15.75" x2="5.95064" y2="14.764" gradientUnits="userSpaceOnUse">
<stop stop-color="#3C2E79"/>
<stop offset="1" stop-color="#666666"/>
</linearGradient>
</defs>
</svg>
