<svg width="48" height="48" viewBox="0 0 48 48" fill="none" xmlns="http://www.w3.org/2000/svg">
<path d="M24 0C37.2548 0 48 10.7452 48 24C48 37.2548 37.2548 48 24 48C10.7452 48 0 37.2548 0 24C1.03081e-06 10.7452 10.7452 1.03088e-06 24 0ZM24.2471 12C17.476 12 12.1875 17.1403 12.1875 24.0234C12.1877 30.9063 17.3439 36 24.2471 36C30.0758 36 34.7381 32.2459 35.7705 26.6592H30.1191C29.3118 29.2511 27.0724 31.0391 24.2451 31.0391C20.3439 31.039 17.6096 28.0446 17.6094 24.0234C17.6112 19.9562 20.3014 16.9611 24.2012 16.9609C27.0267 16.9609 29.2688 18.7034 30.1201 21.2949H35.8125C34.7811 15.754 30.2094 12 24.2471 12Z" fill="#0052FF"/>
</svg>
