<svg width="24" height="24" viewBox="0 0 24 24" fill="none" xmlns="http://www.w3.org/2000/svg">
<g clip-path="url(#clip0_50_5075)">
<path d="M23.5199 12.2727C23.5199 11.4218 23.4436 10.6036 23.3018 9.81815H12V14.4654H18.4582C18.1745 15.9599 17.3236 17.2254 16.0473 18.0763V21.0981H19.9418C22.2109 19.0036 23.5199 15.9272 23.5199 12.2727Z" fill="#4285F4"/>
<path d="M11.9999 24C15.2399 24 17.9562 22.9309 19.9417 21.0982L16.0472 18.0764C14.9781 18.7964 13.6144 19.2327 11.9999 19.2327C8.87992 19.2327 6.22903 17.1273 5.27994 14.291H1.28723V17.3891C3.26177 21.3055 7.30902 24 11.9999 24Z" fill="#34A853"/>
<path d="M5.27998 14.28C5.03998 13.56 4.89816 12.7964 4.89816 12C4.89816 11.2037 5.03998 10.44 5.27998 9.72002V6.62186H1.28727C0.469089 8.2364 0 10.0582 0 12C0 13.9418 0.469089 15.7636 1.28727 17.3782L4.39634 14.9564L5.27998 14.28Z" fill="#FBBC05"/>
<path d="M11.9999 4.77816C13.7672 4.77816 15.3381 5.38907 16.5926 6.56724L20.029 3.1309C17.9453 1.18909 15.2399 0 11.9999 0C7.30902 0 3.26177 2.69453 1.28723 6.62179L5.27994 9.71996C6.22903 6.88361 8.87992 4.77816 11.9999 4.77816Z" fill="#EA4335"/>
</g>
<defs>
<clipPath id="clip0_50_5075">
<rect width="24" height="24" fill="white"/>
</clipPath>
</defs>
</svg>
