<svg width="16" height="16" viewBox="0 0 16 16" fill="none" xmlns="http://www.w3.org/2000/svg">
<path d="M9.98805 13.4689C8.4646 13.4689 7.17227 12.9382 6.11105 11.877C5.04982 10.8158 4.51921 9.52347 4.51921 8.00002C4.51921 6.47658 5.04982 5.18424 6.11105 4.12302C7.17227 3.0618 8.4646 2.53119 9.98805 2.53119C11.5115 2.53119 12.8038 3.0618 13.865 4.12302C14.9263 5.18424 15.4569 6.47658 15.4569 8.00002C15.4569 9.52347 14.9263 10.8158 13.865 11.877C12.8038 12.9382 11.5115 13.4689 9.98805 13.4689ZM4.51921 13.3022C3.33344 12.9725 2.37432 12.316 1.64188 11.3325C0.909435 10.349 0.543213 9.23813 0.543213 8.00002C0.543213 6.76191 0.909435 5.65108 1.64188 4.66752C2.37432 3.68408 3.33344 3.02752 4.51921 2.69786V4.29319C3.7671 4.59219 3.16916 5.07947 2.72538 5.75502C2.28171 6.43069 2.05988 7.17836 2.05988 7.99802C2.05988 8.81769 2.28171 9.56536 2.72538 10.241C3.16916 10.9166 3.7671 11.4052 4.51921 11.7069V13.3022ZM9.98805 11.9522C11.0859 11.9522 12.0191 11.568 12.7875 10.7995C13.556 10.031 13.9402 9.0978 13.9402 8.00002C13.9402 6.90224 13.556 5.96908 12.7875 5.20052C12.0191 4.43208 11.0859 4.04786 9.98805 4.04786C8.89027 4.04786 7.95716 4.43208 7.18871 5.20052C6.42016 5.96908 6.03588 6.90224 6.03588 8.00002C6.03588 9.0978 6.42016 10.031 7.18871 10.7995C7.95716 11.568 8.89027 11.9522 9.98805 11.9522Z" fill="white" fill-opacity="0.5"/>
</svg>
