<svg width="16" height="16" viewBox="0 0 16 16" fill="none" xmlns="http://www.w3.org/2000/svg">
<path d="M3.33325 13.334V12.0007H12.6666V13.334H3.33325ZM3.33325 11.0007L2.48325 5.65065C2.46103 5.65065 2.43603 5.65343 2.40825 5.65898C2.38047 5.66454 2.35547 5.66732 2.33325 5.66732C2.05547 5.66732 1.81936 5.5701 1.62492 5.37565C1.43047 5.18121 1.33325 4.9451 1.33325 4.66732C1.33325 4.38954 1.43047 4.15343 1.62492 3.95898C1.81936 3.76454 2.05547 3.66732 2.33325 3.66732C2.61103 3.66732 2.84714 3.76454 3.04159 3.95898C3.23603 4.15343 3.33325 4.38954 3.33325 4.66732C3.33325 4.7451 3.32492 4.81732 3.30825 4.88398C3.29159 4.95065 3.27214 5.01176 3.24992 5.06732L5.33325 6.00065L7.41658 3.15065C7.29436 3.06176 7.19436 2.9451 7.11658 2.80065C7.03881 2.65621 6.99992 2.50065 6.99992 2.33398C6.99992 2.05621 7.09714 1.8201 7.29158 1.62565C7.48603 1.43121 7.72214 1.33398 7.99992 1.33398C8.2777 1.33398 8.51381 1.43121 8.70825 1.62565C8.9027 1.8201 8.99992 2.05621 8.99992 2.33398C8.99992 2.50065 8.96103 2.65621 8.88325 2.80065C8.80547 2.9451 8.70547 3.06176 8.58325 3.15065L10.6666 6.00065L12.7499 5.06732C12.7277 5.01176 12.7083 4.95065 12.6916 4.88398C12.6749 4.81732 12.6666 4.7451 12.6666 4.66732C12.6666 4.38954 12.7638 4.15343 12.9583 3.95898C13.1527 3.76454 13.3888 3.66732 13.6666 3.66732C13.9444 3.66732 14.1805 3.76454 14.3749 3.95898C14.5694 4.15343 14.6666 4.38954 14.6666 4.66732C14.6666 4.9451 14.5694 5.18121 14.3749 5.37565C14.1805 5.5701 13.9444 5.66732 13.6666 5.66732C13.6444 5.66732 13.6194 5.66454 13.5916 5.65898C13.5638 5.65343 13.5388 5.65065 13.5166 5.65065L12.6666 11.0007H3.33325ZM4.46659 9.66732H11.5333L11.9666 6.88398L10.2166 7.65065L7.99992 4.60065L5.78325 7.65065L4.03325 6.88398L4.46659 9.66732Z" fill="white"/>
</svg>
