<svg width="16" height="16" viewBox="0 0 16 16" fill="none" xmlns="http://www.w3.org/2000/svg">
<path d="M8.00008 7.99998C7.26675 7.99998 6.66675 7.39998 6.66675 6.66665C6.66675 5.93331 7.26675 5.33331 8.00008 5.33331C8.73342 5.33331 9.33342 5.93331 9.33342 6.66665C9.33342 7.39998 8.73342 7.99998 8.00008 7.99998ZM12.0001 6.79998C12.0001 4.37998 10.2334 2.66665 8.00008 2.66665C5.76675 2.66665 4.00008 4.37998 4.00008 6.79998C4.00008 8.35998 5.30008 10.4266 8.00008 12.8933C10.7001 10.4266 12.0001 8.35998 12.0001 6.79998ZM8.00008 1.33331C10.8001 1.33331 13.3334 3.47998 13.3334 6.79998C13.3334 9.01331 11.5534 11.6333 8.00008 14.6666C4.44675 11.6333 2.66675 9.01331 2.66675 6.79998C2.66675 3.47998 5.20008 1.33331 8.00008 1.33331Z" fill="white" fill-opacity="0.5"/>
</svg>
