<svg width="24" height="24" viewBox="0 0 24 24" fill="none" xmlns="http://www.w3.org/2000/svg">
<path d="M14.982 20.2033C12.6968 20.2033 10.7583 19.4073 9.16651 17.8155C7.57468 16.2237 6.77876 14.2852 6.77876 12C6.77876 9.71484 7.57468 7.77634 9.16651 6.1845C10.7583 4.59267 12.6968 3.79675 14.982 3.79675C17.2672 3.79675 19.2057 4.59267 20.7975 6.1845C22.3893 7.77634 23.1853 9.71484 23.1853 12C23.1853 14.2852 22.3893 16.2237 20.7975 17.8155C19.2057 19.4073 17.2672 20.2033 14.982 20.2033ZM6.77876 19.9533C5.00009 19.4588 3.56142 18.4739 2.46276 16.9988C1.36409 15.5234 0.814758 13.8572 0.814758 12C0.814758 10.1428 1.36409 8.47659 2.46276 7.00125C3.56142 5.52609 5.00009 4.54125 6.77876 4.04675V6.43975C5.65059 6.88825 4.75368 7.61917 4.08801 8.6325C3.42251 9.646 3.08976 10.7675 3.08976 11.997C3.08976 13.2265 3.42251 14.348 4.08801 15.3615C4.75368 16.3748 5.65059 17.1078 6.77876 17.5603V19.9533ZM14.982 17.9283C16.6288 17.9283 18.0286 17.3519 19.1813 16.1993C20.3339 15.0464 20.9103 13.6467 20.9103 12C20.9103 10.3533 20.3339 8.95359 19.1813 7.80075C18.0286 6.64809 16.6288 6.07175 14.982 6.07175C13.3353 6.07175 11.9357 6.64809 10.783 7.80075C9.63018 8.95359 9.05376 10.3533 9.05376 12C9.05376 13.6467 9.63018 15.0464 10.783 16.1993C11.9357 17.3519 13.3353 17.9283 14.982 17.9283Z" fill="#282828"/>
</svg>
