<svg width="24" height="24" viewBox="0 0 24 24" fill="none" xmlns="http://www.w3.org/2000/svg">
<path d="M5.07175 21.2033C4.44209 21.2033 3.9055 20.9815 3.462 20.538C3.0185 20.0945 2.79675 19.5579 2.79675 18.9283V5.07175C2.79675 4.44209 3.0185 3.9055 3.462 3.462C3.9055 3.0185 4.44209 2.79675 5.07175 2.79675H18.9283C19.5579 2.79675 20.0945 3.0185 20.538 3.462C20.9815 3.9055 21.2033 4.44209 21.2033 5.07175V7.5H18.9283V5.07175H5.07175V18.9283H18.9283V16.5H21.2033V18.9283C21.2033 19.5579 20.9815 20.0945 20.538 20.538C20.0945 20.9815 19.5579 21.2033 18.9283 21.2033H5.07175ZM13.012 17C12.4587 17 11.985 16.8052 11.591 16.4155C11.197 16.0258 11 15.554 11 15V9.012C11 8.45867 11.197 7.985 11.591 7.591C11.985 7.197 12.4587 7 13.012 7H20.1973C20.7513 7 21.2241 7.197 21.6158 7.591C22.0074 7.985 22.2033 8.45867 22.2033 9.012V15.003C22.2033 15.5522 22.0074 16.0223 21.6158 16.4135C21.2241 16.8045 20.7513 17 20.1973 17H13.012ZM20.2093 15V9H13V15H20.2093ZM16 13.5C16.4167 13.5 16.7708 13.3542 17.0625 13.0625C17.3542 12.7708 17.5 12.4167 17.5 12C17.5 11.5833 17.3542 11.2292 17.0625 10.9375C16.7708 10.6458 16.4167 10.5 16 10.5C15.5833 10.5 15.2292 10.6458 14.9375 10.9375C14.6458 11.2292 14.5 11.5833 14.5 12C14.5 12.4167 14.6458 12.7708 14.9375 13.0625C15.2292 13.3542 15.5833 13.5 16 13.5Z" fill="#282828"/>
</svg>
