<svg width="16" height="16" viewBox="0 0 16 16" fill="none" xmlns="http://www.w3.org/2000/svg">
<path d="M11.9002 14.2312H4.54307V5.41299L9.1499 0.806152L10.0881 1.70249C10.1756 1.78604 10.2477 1.90115 10.3044 2.04782C10.3611 2.19449 10.3894 2.33687 10.3894 2.47499V2.66449L9.66807 5.41299H13.9162C14.3169 5.41299 14.6698 5.5656 14.9751 5.87082C15.2803 6.17604 15.4329 6.52899 15.4329 6.92965V8.01999C15.4329 8.10421 15.4218 8.19443 15.3996 8.29065C15.3773 8.38699 15.3525 8.47538 15.3249 8.55582L13.3011 13.3235C13.1877 13.5776 12.9978 13.7924 12.7312 13.968C12.4647 14.1434 12.1877 14.2312 11.9002 14.2312ZM5.9999 12.7145H11.9002L13.9082 8.01999V6.92965H7.80457L8.65674 3.45832L5.9999 6.11515V12.7145ZM4.54307 5.41299V6.92965H2.66657V12.7145H4.54307V14.2312H1.1499V5.41299H4.54307Z" fill="#666D6E"/>
</svg>
