<svg width="24" height="24" viewBox="0 0 24 24" fill="none" xmlns="http://www.w3.org/2000/svg">
<path d="M5.07175 8.28102V18.9283H18.9283V8.28102H16.1075V16.293L12 14.2393L7.8925 16.293V8.28102H5.07175ZM5.07175 21.2033C4.44209 21.2033 3.9055 20.9815 3.462 20.538C3.0185 20.0945 2.79675 19.5579 2.79675 18.9283V6.74027C2.79675 6.4711 2.84125 6.21319 2.93025 5.96652C3.01909 5.72002 3.14884 5.49319 3.3195 5.28602L4.74175 3.56352C4.94909 3.30635 5.20375 3.11327 5.50575 2.98427C5.80792 2.85527 6.12375 2.79077 6.45325 2.79077H17.5468C17.8763 2.79077 18.1921 2.85527 18.4943 2.98427C18.7963 3.11327 19.0509 3.30635 19.2583 3.56352L20.6805 5.28602C20.8512 5.49319 20.9809 5.72002 21.0698 5.96652C21.1588 6.21319 21.2033 6.4711 21.2033 6.74027V18.9283C21.2033 19.5579 20.9815 20.0945 20.538 20.538C20.0945 20.9815 19.5579 21.2033 18.9283 21.2033H5.07175ZM5.60925 6.06577H18.3908L17.5408 5.06577H6.45925L5.60925 6.06577ZM10.1075 8.28102V12.6963L12 11.75L13.8925 12.6963V8.28102H10.1075Z" fill="#282828"/>
</svg>
