<svg width="64" height="64" viewBox="0 0 64 64" fill="none" xmlns="http://www.w3.org/2000/svg">
<path d="M58.7833 16.158L59.3495 47.3803L32.8648 63.1605L32.3302 63.478L4.74386 48.3523L4.18957 17.7462L4.17773 17.1289L31.198 1.03125L58.7833 16.158ZM6.35841 18.3245L6.88015 47.0795L32.2858 61.0086L57.1678 46.1838L56.6461 17.4297L31.2414 3.5006L6.35841 18.3245Z" fill="url(#paint0_linear_345_68082)"/>
<path d="M59.4473 47.5123L4.25586 49.1192L31.5167 0.509766L59.4473 47.5123ZM7.94851 46.8716L55.7714 45.4786L31.57 4.88582L7.94851 46.8716Z" fill="url(#paint1_linear_345_68082)"/>
<path d="M32.8431 28.5946V58.7914H30.6832V30.0051L4.66699 18.9712L5.51717 17.0059L32.8431 28.5946Z" fill="url(#paint2_linear_345_68082)"/>
<path d="M58.2547 17.6782L32.8974 30.4811L31.917 28.5763L57.2743 15.7734L58.2547 17.6782Z" fill="url(#paint3_linear_345_68082)"/>
<path d="M5.7408 20.8293C7.25451 20.8293 8.48162 19.614 8.48162 18.1149C8.48162 16.6157 7.25451 15.4004 5.7408 15.4004C4.22709 15.4004 3 16.6157 3 18.1149C3 19.614 4.22709 20.8293 5.7408 20.8293Z" fill="#DA2650"/>
<path d="M60.4562 16.7945C60.4562 18.2936 59.229 19.509 57.7154 19.509C56.2018 19.509 54.9746 18.2936 54.9746 16.7945C54.9746 15.2955 56.2018 14.0801 57.7154 14.0801C59.229 14.0801 60.4562 15.2955 60.4562 16.7945Z" fill="#DA2650"/>
<path d="M61.0002 46.7828C61.0002 48.2818 59.773 49.4973 58.2594 49.4973C56.7458 49.4973 55.5186 48.2818 55.5186 46.7828C55.5186 45.2838 56.7458 44.0684 58.2594 44.0684C59.773 44.0684 61.0002 45.2838 61.0002 46.7828Z" fill="#DA2650"/>
<path d="M5.81211 50.4309C7.32581 50.4309 8.55291 49.2156 8.55291 47.7164C8.55291 46.2173 7.32581 45.002 5.81211 45.002C4.2984 45.002 3.07129 46.2173 3.07129 47.7164C3.07129 49.2156 4.2984 50.4309 5.81211 50.4309Z" fill="#DA2650"/>
<path d="M34.5041 61.2848C34.5041 62.7838 33.2768 63.9992 31.7633 63.9992C30.2497 63.9992 29.0225 62.7838 29.0225 61.2848C29.0225 59.7857 30.2497 58.5703 31.7633 58.5703C33.2768 58.5703 34.5041 59.7857 34.5041 61.2848Z" fill="#961533"/>
<path d="M31.7633 5.4289C33.277 5.4289 34.5041 4.21361 34.5041 2.71446C34.5041 1.21531 33.277 0 31.7633 0C30.2496 0 29.0225 1.21531 29.0225 2.71446C29.0225 4.21361 30.2496 5.4289 31.7633 5.4289Z" fill="#961533"/>
<path d="M31.7633 32.0148C33.277 32.0148 34.5041 30.7995 34.5041 29.3004C34.5041 27.8012 33.277 26.5859 31.7633 26.5859C30.2496 26.5859 29.0225 27.8012 29.0225 29.3004C29.0225 30.7995 30.2496 32.0148 31.7633 32.0148Z" fill="#961533"/>
<defs>
<linearGradient id="paint0_linear_345_68082" x1="3.4104" y1="32.2542" x2="60.1163" y2="32.2542" gradientUnits="userSpaceOnUse">
<stop stop-color="#DA2650"/>
<stop offset="0.8822" stop-color="#961533"/>
</linearGradient>
<linearGradient id="paint1_linear_345_68082" x1="3.48825" y1="24.8142" x2="60.2144" y2="24.8142" gradientUnits="userSpaceOnUse">
<stop stop-color="#DA2650"/>
<stop offset="0.8822" stop-color="#961533"/>
</linearGradient>
<linearGradient id="paint2_linear_345_68082" x1="4.27511" y1="37.8984" x2="33.2348" y2="37.8984" gradientUnits="userSpaceOnUse">
<stop stop-color="#DA2650"/>
<stop offset="0.8822" stop-color="#961533"/>
</linearGradient>
<linearGradient id="paint3_linear_345_68082" x1="31.5507" y1="23.1272" x2="58.6208" y2="23.1272" gradientUnits="userSpaceOnUse">
<stop stop-color="#DA2650"/>
<stop offset="0.8822" stop-color="#961533"/>
</linearGradient>
</defs>
</svg>
