<svg width="58" height="64" viewBox="0 0 58 64" fill="none" xmlns="http://www.w3.org/2000/svg">
<path d="M55.7833 16.158L56.3495 47.3803L29.8648 63.1605L29.3302 63.478L1.74386 48.3523L1.18957 17.7462L1.17773 17.1289L28.198 1.03125L55.7833 16.158ZM3.35841 18.3245L3.88015 47.0795L29.2858 61.0086L54.1678 46.1838L53.6461 17.4297L28.2414 3.5006L3.35841 18.3245Z" fill="url(#paint0_linear_1058_18352)"/>
<path d="M56.4473 47.5123L1.25586 49.1192L28.5167 0.509766L56.4473 47.5123ZM4.94851 46.8716L52.7714 45.4786L28.57 4.88582L4.94851 46.8716Z" fill="url(#paint1_linear_1058_18352)"/>
<path d="M29.8436 28.5946V58.7914H27.6837V30.0051L1.66748 18.9712L2.51766 17.0059L29.8436 28.5946Z" fill="url(#paint2_linear_1058_18352)"/>
<path d="M55.2542 17.6782L29.8969 30.4811L28.9165 28.5763L54.2739 15.7734L55.2542 17.6782Z" fill="url(#paint3_linear_1058_18352)"/>
<path d="M2.7408 20.8293C4.25451 20.8293 5.48162 19.614 5.48162 18.1149C5.48162 16.6157 4.25451 15.4004 2.7408 15.4004C1.22709 15.4004 0 16.6157 0 18.1149C0 19.614 1.22709 20.8293 2.7408 20.8293Z" fill="#27DC6F"/>
<path d="M57.4557 16.7945C57.4557 18.2936 56.2285 19.509 54.7149 19.509C53.2014 19.509 51.9741 18.2936 51.9741 16.7945C51.9741 15.2955 53.2014 14.0801 54.7149 14.0801C56.2285 14.0801 57.4557 15.2955 57.4557 16.7945Z" fill="#249FDD"/>
<path d="M58.0002 46.7828C58.0002 48.2818 56.773 49.4973 55.2594 49.4973C53.7458 49.4973 52.5186 48.2818 52.5186 46.7828C52.5186 45.2838 53.7458 44.0684 55.2594 44.0684C56.773 44.0684 58.0002 45.2838 58.0002 46.7828Z" fill="#249FDD"/>
<path d="M2.81211 50.4309C4.32581 50.4309 5.55291 49.2156 5.55291 47.7164C5.55291 46.2173 4.32581 45.002 2.81211 45.002C1.2984 45.002 0.0712891 46.2173 0.0712891 47.7164C0.0712891 49.2156 1.2984 50.4309 2.81211 50.4309Z" fill="#27DC6F"/>
<path d="M31.5046 61.2848C31.5046 62.7838 30.2773 63.9992 28.7637 63.9992C27.2502 63.9992 26.0229 62.7838 26.0229 61.2848C26.0229 59.7857 27.2502 58.5703 28.7637 58.5703C30.2773 58.5703 31.5046 59.7857 31.5046 61.2848Z" fill="#25BBAB"/>
<path d="M28.7637 5.4289C30.2775 5.4289 31.5046 4.21361 31.5046 2.71446C31.5046 1.21531 30.2775 0 28.7637 0C27.25 0 26.0229 1.21531 26.0229 2.71446C26.0229 4.21361 27.25 5.4289 28.7637 5.4289Z" fill="#25BBAB"/>
<path d="M28.7637 32.0148C30.2775 32.0148 31.5046 30.7995 31.5046 29.3004C31.5046 27.8012 30.2775 26.5859 28.7637 26.5859C27.25 26.5859 26.0229 27.8012 26.0229 29.3004C26.0229 30.7995 27.25 32.0148 28.7637 32.0148Z" fill="#25BBAB"/>
<defs>
<linearGradient id="paint0_linear_1058_18352" x1="0.410395" y1="32.2542" x2="57.1163" y2="32.2542" gradientUnits="userSpaceOnUse">
<stop stop-color="#27DC6F"/>
<stop offset="0.8822" stop-color="#249FDD"/>
</linearGradient>
<linearGradient id="paint1_linear_1058_18352" x1="0.488246" y1="24.8142" x2="57.2144" y2="24.8142" gradientUnits="userSpaceOnUse">
<stop stop-color="#27DC6F"/>
<stop offset="0.8822" stop-color="#249FDD"/>
</linearGradient>
<linearGradient id="paint2_linear_1058_18352" x1="1.2756" y1="37.8984" x2="30.2353" y2="37.8984" gradientUnits="userSpaceOnUse">
<stop stop-color="#27DC6F"/>
<stop offset="0.8822" stop-color="#249FDD"/>
</linearGradient>
<linearGradient id="paint3_linear_1058_18352" x1="28.5502" y1="23.1272" x2="55.6203" y2="23.1272" gradientUnits="userSpaceOnUse">
<stop stop-color="#27DC6F"/>
<stop offset="0.8822" stop-color="#249FDD"/>
</linearGradient>
</defs>
</svg>
