<svg width="41" height="48" viewBox="0 0 41 48" fill="none" xmlns="http://www.w3.org/2000/svg">
<path d="M36.6598 12.1953C37.4948 12.6375 38.209 13.1803 38.7848 13.834C40.6871 16.002 41.0594 19.0846 40.3405 22.7764C38.6194 31.6138 32.7306 34.668 25.2086 34.668H24.0475C23.1283 34.6681 22.3459 35.3364 22.2028 36.2461L22.109 36.7549L20.6471 46.0312L20.5709 46.4258C20.4262 47.3324 19.6446 48 18.7252 48H10.9615C10.2748 47.9998 9.74983 47.3865 9.85608 46.7061L10.4908 42.6768L12.7321 28.4629C12.8959 27.4258 13.7822 26.6621 14.8336 26.6621H19.2106C27.8078 26.6621 34.5399 23.1723 36.5074 13.0703C36.5647 12.7714 36.6153 12.4799 36.6598 12.1953Z" fill="#179BD7"/>
<path d="M34.6015 11.3742C34.3008 11.2867 33.9907 11.2072 33.6726 11.1356C33.3528 11.0656 33.0252 11.0036 32.688 10.9495C31.5077 10.7586 30.2146 10.668 28.8292 10.668H17.1351C16.8472 10.668 16.5736 10.7332 16.3286 10.8509C15.7894 11.1102 15.3886 11.6207 15.2916 12.2459L12.8039 28.0025L12.7323 28.4622C12.8961 27.4251 13.7821 26.6616 14.8335 26.6616H19.2108C27.808 26.6616 34.5394 23.1702 36.507 13.0698C36.5659 12.7708 36.6152 12.4797 36.6597 12.195C36.1618 11.9309 35.6226 11.705 35.0421 11.5126C34.8989 11.4649 34.751 11.4187 34.6015 11.3742Z" fill="#222D65"/>
<path d="M23.2571 0C28.3961 0 32.4126 1.08454 34.6379 3.61816C36.6564 5.91978 37.2467 8.46214 36.6614 12.1953C36.1635 11.9329 35.6238 11.7052 35.0432 11.5127C34.8987 11.4666 34.7511 11.4204 34.6018 11.376C34.3012 11.2885 33.9902 11.2093 33.6721 11.1377C33.3525 11.0677 33.0248 11.0052 32.6877 10.9512C31.5076 10.7603 30.2146 10.6699 28.8293 10.6699H17.135C16.8471 10.6699 16.5749 10.7348 16.3284 10.8525C15.7892 11.1102 15.3883 11.621 15.2913 12.2461L12.804 28.0029L10.4915 42.6758H1.27954C0.49398 42.6755 -0.106586 41.9726 0.0158691 41.1934L6.22974 1.80176C6.39212 0.76337 7.28761 0.000134471 8.33716 0H23.2571Z" fill="#253B80"/>
</svg>
