<svg width="48" height="48" viewBox="0 0 48 48" fill="none" xmlns="http://www.w3.org/2000/svg">
<path d="M24 0C37.2548 0 48 10.7452 48 24C48 37.2548 37.2548 48 24 48C10.7452 48 0 37.2548 0 24C1.03081e-06 10.7452 10.7452 1.03088e-06 24 0ZM24.4434 16C20.8742 16 18.5001 17.8636 18.5 20.9756C18.5 25.8283 25.1816 25.0552 25.1816 27.1475C25.1815 27.9561 24.4777 28.2197 23.4932 28.2197C22.0339 28.2197 20.1702 27.6222 18.6934 26.8135V30.998C20.3284 31.7013 21.9812 32 23.4932 32C27.1502 32 29.6649 30.1891 29.665 27.042C29.6475 21.8024 22.9482 22.7339 22.9482 20.7646C22.9483 20.0791 23.5116 19.8154 24.4434 19.8154C25.7796 19.8155 27.4676 20.2196 28.8037 20.9404V16.8086C27.3445 16.2284 25.9025 16 24.4434 16Z" fill="#635BFF"/>
</svg>
