<svg width="457" height="491" viewBox="0 0 457 491" fill="none" xmlns="http://www.w3.org/2000/svg">
<g opacity="0.67">
<path d="M260.119 443.347L70.9246 334.115L260.114 224.887L449.309 334.119L260.119 443.347Z" fill="#0F054C"/>
</g>
<path d="M260.119 443.753C260.048 443.753 259.979 443.735 259.915 443.699L70.7208 334.468C70.5956 334.394 70.5168 334.259 70.5168 334.115C70.5168 333.97 70.5956 333.836 70.7208 333.762L259.909 224.533C260.036 224.461 260.19 224.461 260.317 224.533L449.511 333.765C449.636 333.839 449.715 333.973 449.715 334.117C449.715 334.262 449.636 334.397 449.511 334.469L260.323 443.698C260.26 443.735 260.19 443.753 260.119 443.753ZM71.7405 334.114L260.121 442.876L448.495 334.115L260.114 225.354L71.7405 334.114Z" fill="#54C6FF"/>
<g opacity="0.67">
<path d="M260.119 426.406L100.266 334.115L260.114 241.826L419.968 334.119L260.119 426.406Z" fill="#0F054C"/>
</g>
<g opacity="0.9">
<path d="M260.118 406.723L134.358 334.115L260.115 261.51L385.876 334.117L260.118 406.723Z" fill="#080344"/>
</g>
<path d="M333.801 356.773C332.689 356.773 331.651 356.527 330.878 356.082L212.173 287.548C211.246 287.011 210.736 286.227 210.736 285.338C210.736 284.339 211.408 283.376 212.578 282.701L222.707 276.853C224.666 275.724 227.555 275.622 229.282 276.618L347.989 345.153C348.915 345.691 349.423 346.472 349.423 347.362C349.423 348.362 348.751 349.324 347.583 350L337.454 355.849C336.42 356.445 335.122 356.773 333.801 356.773ZM226.364 276.736C225.239 276.736 224.059 277.015 223.115 277.559L212.986 283.407C212.072 283.932 211.55 284.637 211.55 285.338C211.55 285.924 211.915 286.458 212.579 286.842L331.285 355.376C332.714 356.201 335.394 356.095 337.046 355.143L347.175 349.293C348.087 348.768 348.609 348.064 348.609 347.362C348.609 346.777 348.246 346.242 347.583 345.857L228.876 277.324C228.193 276.929 227.298 276.736 226.364 276.736Z" fill="#54C6FF"/>
<path opacity="0.2" d="M254.314 256.607L363.484 319.637C365.126 320.586 366.457 319.579 366.457 317.391V69.0662C366.457 66.8769 365.126 64.3354 363.484 63.3868L254.314 0.357003C252.672 -0.591627 251.342 0.41571 251.342 2.60343V250.926C251.343 253.117 252.674 255.66 254.314 256.607Z" fill="url(#paint0_linear_907_24571)"/>
<path opacity="0.4" d="M247.62 260.728L356.789 323.758C358.432 324.705 359.762 323.699 359.762 321.511V73.1867C359.762 70.9974 358.432 68.4544 356.789 67.5073L247.62 4.4775C245.977 3.53042 244.647 4.53621 244.647 6.72393V255.047C244.647 257.238 245.979 259.779 247.62 260.728Z" fill="url(#paint1_linear_907_24571)"/>
<path opacity="0.6" d="M240.925 264.848L350.095 327.878C351.737 328.825 353.067 327.82 353.067 325.632V77.3072C353.067 75.1179 351.737 72.5749 350.095 71.6278L240.925 8.59798C239.283 7.6509 237.953 8.65669 237.953 10.8444V259.167C237.953 261.357 239.283 263.9 240.925 264.848Z" fill="url(#paint2_linear_907_24571)"/>
<path d="M218.544 20.5177L231.221 13.2191L231.223 13.2408C231.736 12.9735 232.385 12.9951 233.101 13.4092L342.271 76.4389C343.913 77.386 345.244 79.9291 345.244 82.1184V330.441C345.244 331.648 344.831 332.476 344.193 332.835L344.212 332.845L331.544 340.141L331.264 326.333L233.101 269.66C231.459 268.713 230.129 266.169 230.129 263.98V27.0361C229.874 27.841 229.679 28.4281 229.651 28.4466C229.559 28.51 218.544 20.5177 218.544 20.5177Z" fill="url(#paint3_linear_907_24571)"/>
<path d="M345.168 81.2052L312.182 100.25L307.201 97.3736L342.804 76.819C343.977 77.7784 344.907 79.5134 345.168 81.2052Z" fill="url(#paint4_linear_907_24571)"/>
<path d="M220.508 276.913L329.678 339.943C331.32 340.89 332.65 339.884 332.65 337.697V89.3736C332.65 87.1844 331.32 84.6413 329.678 83.6942L220.508 20.6645C218.866 19.7174 217.535 20.7232 217.535 22.9109V271.234C217.535 273.423 218.866 275.966 220.508 276.913Z" fill="url(#paint5_linear_907_24571)"/>
<path d="M217.535 257.643L332.65 324.104V102.965L217.535 36.5038V257.643Z" fill="#24126A"/>
<path d="M217.535 257.643L332.65 324.104V102.965L217.535 36.5038V257.643Z" fill="#24126A"/>
<g opacity="0.51">
<path d="M217.535 256.685L332.65 323.147V103.954L217.535 37.4926V256.685Z" fill="#453C9E"/>
</g>
<path d="M266.126 58.1863L286.949 70.2512C287.558 70.6019 288.074 70.707 288.3 70.1353C288.375 69.9422 288.417 69.7074 288.417 69.4339C288.417 68.3509 287.759 67.0917 286.946 66.622L265.902 54.4721C265.838 54.4351 265.778 54.3624 265.715 54.3794C265.052 54.5648 264.942 54.6931 264.942 55.6927L265.037 55.9739C265.034 57.0569 265.313 57.7182 266.126 58.1863Z" fill="#5761D7"/>
<path d="M265.71 54.3887C265.636 54.5803 265.594 54.8151 265.594 55.087C265.594 56.1701 266.252 57.4293 267.065 57.8989L288.11 70.0488C288.174 70.0859 288.238 70.1075 288.301 70.1338C288.077 70.707 287.555 70.9001 286.946 70.5479L265.902 58.398C265.089 57.9283 264.431 56.6707 264.431 55.5861C264.429 54.5896 264.989 54.0983 265.71 54.3887Z" fill="#BCBEFF"/>
<path d="M339.366 109.984L339.604 109.846C339.991 109.624 340.34 109.612 340.616 109.757V109.744L341.509 110.259L341.072 110.294C341.154 110.503 341.199 110.756 341.199 111.052V125.431C341.199 126.605 340.485 127.969 339.604 128.478L339.366 128.615C339.255 128.68 339.147 128.726 339.042 128.757L339.271 129.241L338.319 128.695L338.336 128.694C337.994 128.501 337.772 128.057 337.772 127.41V113.031C337.772 111.856 338.486 110.492 339.366 109.984Z" fill="#E9E9FD"/>
<path d="M340.272 129.136L340.51 128.998C341.39 128.49 342.104 127.126 342.104 125.952V111.572C342.104 110.398 341.39 109.859 340.51 110.367L340.272 110.505C339.391 111.013 338.677 112.377 338.677 113.551V127.931C338.677 129.105 339.391 129.644 340.272 129.136Z" fill="#BCBEFF"/>
<path d="M339.366 131.931L339.604 131.793C339.991 131.571 340.34 131.558 340.616 131.704V131.691L341.509 132.206L341.072 132.241C341.154 132.45 341.199 132.705 341.199 132.998V147.378C341.199 148.552 340.485 149.916 339.604 150.424L339.366 150.562C339.255 150.627 339.147 150.673 339.042 150.704L339.271 151.188L338.319 150.642L338.336 150.641C337.994 150.447 337.772 150.004 337.772 149.357V134.977C337.772 133.803 338.486 132.439 339.366 131.931Z" fill="#E9E9FD"/>
<path d="M340.272 151.082L340.51 150.945C341.39 150.437 342.104 149.072 342.104 147.898V133.519C342.104 132.345 341.39 131.806 340.51 132.314L340.272 132.451C339.391 132.96 338.677 134.324 338.677 135.498V149.877C338.677 151.052 339.391 151.591 340.272 151.082Z" fill="#BCBEFF"/>
<path d="M246.182 391.529C245.497 391.529 244.839 391.387 244.338 391.098L157.411 340.912C156.861 340.594 156.556 340.133 156.556 339.616C156.556 339.022 156.967 338.444 157.682 338.032L175.747 327.602C176.995 326.88 178.827 326.814 179.92 327.446L266.847 377.632C267.399 377.95 267.702 378.411 267.702 378.928C267.702 379.521 267.291 380.099 266.576 380.512L248.511 390.942C247.835 391.331 246.988 391.529 246.182 391.529ZM178.086 327.829C177.414 327.829 176.7 327.991 176.154 328.306L158.09 338.736C157.641 338.996 157.37 339.325 157.37 339.614C157.37 339.889 157.614 340.087 157.818 340.204L244.746 390.39C245.581 390.874 247.121 390.804 248.105 390.234L266.169 379.804C266.619 379.545 266.889 379.215 266.889 378.927C266.889 378.652 266.645 378.454 266.441 378.336L179.513 328.15C179.139 327.934 178.626 327.829 178.086 327.829Z" fill="#54C6FF"/>
<path d="M192.525 298.18C194.81 299.5 196.972 301.358 198.895 303.554C201.565 294.978 209.709 292.317 219.345 297.881C227.317 302.483 234.263 311.535 237.939 321.127C239.158 321.165 240.515 321.567 241.95 322.397C247.152 325.4 251.368 332.705 251.368 338.71C251.368 338.84 251.356 338.957 251.351 339.084C252.834 339.186 254.475 339.711 256.199 340.706C262.852 344.547 268.246 353.89 268.246 361.572C268.246 369.253 262.852 372.368 256.199 368.527L192.522 331.762C184.491 327.126 177.981 315.849 177.981 306.576C177.984 297.303 184.494 293.544 192.525 298.18Z" fill="url(#paint6_linear_907_24571)"/>
<path d="M192.525 298.18C193.851 298.945 195.132 299.895 196.351 300.983L203.472 296.869L203.47 296.87C207.382 294.12 213.044 294.239 219.347 297.877C227.319 302.48 234.265 311.532 237.941 321.124C239.16 321.162 240.516 321.564 241.951 322.394C247.153 325.397 251.37 332.702 251.37 338.707C251.37 338.837 251.357 338.954 251.353 339.081C252.836 339.183 254.477 339.708 256.201 340.703C262.854 344.544 268.247 353.887 268.247 361.569C268.247 365.375 266.92 368.058 264.774 369.329L264.78 369.332L264.725 369.365C264.722 369.366 264.717 369.369 264.714 369.371L247.272 379.495L243.462 361.17L192.522 331.759C184.491 327.123 177.981 315.846 177.981 306.573C177.984 297.303 184.494 293.544 192.525 298.18Z" fill="url(#paint7_radial_907_24571)"/>
<path d="M164.493 307.475L182.165 297.207V297.212C184.802 295.64 188.47 295.838 192.527 298.18C193.853 298.945 195.133 299.895 196.352 300.983L203.473 296.869L203.472 296.87C207.384 294.12 213.046 294.239 219.348 297.877C227.32 302.48 234.267 311.532 237.942 321.124C239.161 321.162 240.518 321.564 241.953 322.394C247.155 325.397 251.371 332.702 251.371 338.707C251.371 338.837 251.359 338.954 251.354 339.081C252.838 339.183 254.478 339.708 256.203 340.703C262.855 344.544 268.249 353.887 268.249 361.569C268.249 365.375 266.922 368.058 264.776 369.329L264.782 369.332L264.726 369.365C264.723 369.366 264.719 369.369 264.715 369.371L247.274 379.495L243.464 361.17L192.524 331.759C186.013 328 180.504 319.878 178.651 311.997L164.493 307.475Z" fill="url(#paint8_linear_907_24571)"/>
<path d="M175.028 308.337C177.313 309.657 179.475 311.515 181.398 313.711C184.068 305.134 192.212 302.474 201.848 308.037C209.82 312.64 216.766 321.692 220.442 331.283C221.661 331.322 223.017 331.724 224.454 332.553C229.656 335.557 233.872 342.86 233.872 348.867C233.872 348.997 233.86 349.114 233.855 349.241C235.339 349.343 236.978 349.868 238.704 350.865C245.356 354.706 250.75 364.048 250.75 371.73C250.75 379.412 245.356 382.526 238.704 378.686L175.028 341.918C166.997 337.281 160.487 326.004 160.487 316.731C160.487 307.458 166.997 303.699 175.028 308.337Z" fill="url(#paint9_linear_907_24571)"/>
<path d="M164.122 335.189C164.053 335.189 163.981 335.171 163.917 335.134L130.735 315.801C130.609 315.728 130.532 315.592 130.532 315.447C130.534 315.3 130.613 315.168 130.738 315.097L207.081 271.517C207.209 271.444 207.363 271.443 207.489 271.518L219.867 278.73C220.062 278.843 220.127 279.092 220.014 279.287C219.9 279.48 219.651 279.546 219.458 279.433L207.283 272.339L131.756 315.452L164.328 334.429C164.522 334.542 164.587 334.791 164.474 334.985C164.399 335.117 164.263 335.189 164.122 335.189Z" fill="#54C6FF"/>
<path d="M287.268 403.69C287.197 403.69 287.126 403.671 287.062 403.634L256.729 385.959C256.535 385.847 256.47 385.598 256.582 385.403C256.694 385.208 256.942 385.14 257.139 385.256L287.268 402.812L358.877 361.57L343.076 352.365C342.881 352.252 342.817 352.003 342.929 351.809C343.041 351.614 343.289 351.548 343.486 351.662L359.892 361.219C360.017 361.292 360.094 361.426 360.094 361.573C360.094 361.718 360.015 361.853 359.89 361.925L287.469 403.637C287.407 403.671 287.336 403.69 287.268 403.69Z" fill="#54C6FF"/>
<path d="M114.616 420.674C114.484 420.674 114.358 420.606 114.288 420.484C114.183 420.303 114.245 420.071 114.427 419.968L149.275 399.864L163.368 387.348L201.188 365.505C201.371 365.402 201.602 365.462 201.706 365.643C201.811 365.825 201.749 366.057 201.568 366.16L163.81 387.959L149.715 400.475L114.804 420.621C114.746 420.657 114.681 420.674 114.616 420.674Z" fill="#54C6FF"/>
<path d="M108.41 424.272C108.28 424.272 108.152 424.204 108.082 424.084C107.977 423.903 108.039 423.67 108.219 423.566L111.889 421.442C112.068 421.337 112.301 421.397 112.406 421.579C112.511 421.76 112.45 421.993 112.269 422.097L108.6 424.221C108.539 424.255 108.474 424.272 108.41 424.272Z" fill="#54C6FF"/>
<path d="M101.814 428.067C101.684 428.067 101.556 427.999 101.486 427.878C101.381 427.698 101.443 427.466 101.624 427.361L105.293 425.236C105.474 425.131 105.706 425.193 105.811 425.374C105.916 425.555 105.854 425.788 105.673 425.891L102.004 428.016C101.942 428.05 101.879 428.067 101.814 428.067Z" fill="#54C6FF"/>
<path opacity="0.5" d="M246.259 112.059L235.072 105.599V103.143L246.259 109.601V112.059Z" fill="#54C6FF"/>
<path opacity="0.5" d="M251.995 115.37L247.967 113.045V110.588L251.995 112.913V115.37Z" fill="#54C6FF"/>
<path opacity="0.5" d="M256.442 117.938L253.704 116.357V113.9L256.442 115.481V117.938Z" fill="#54C6FF"/>
<path opacity="0.5" d="M241.168 114.73L235.071 111.212V108.756L241.168 112.274V114.73Z" fill="#54C6FF"/>
<path opacity="0.5" d="M250.347 120.03L242.877 115.717V113.261L250.347 117.573V120.03Z" fill="#54C6FF"/>
<path opacity="0.5" d="M254.792 122.597L252.055 121.017V118.56L254.792 120.141V122.597Z" fill="#54C6FF"/>
<path opacity="0.5" d="M259.023 125.04L256.286 123.459V121.003L259.023 122.583V125.04Z" fill="#54C6FF"/>
<path d="M239.482 119.37L235.071 116.824V114.367L239.482 116.913V119.37Z" fill="#54C6FF"/>
<path d="M242.699 121.227L241.191 120.357V117.899L242.699 118.77V121.227Z" fill="#54C6FF"/>
<path opacity="0.5" d="M247.144 123.793L244.408 122.214V119.758L247.144 121.337V123.793Z" fill="#54C6FF"/>
<path opacity="0.5" d="M251.349 131.833L235.071 122.435V119.978L251.349 129.377V131.833Z" fill="#54C6FF"/>
<path opacity="0.5" d="M257.086 135.146L253.06 132.82V130.364L257.086 132.689V135.146Z" fill="#54C6FF"/>
<path opacity="0.5" d="M239.482 130.594L235.071 128.048V125.59L239.482 128.138V130.594Z" fill="#54C6FF"/>
<path opacity="0.5" d="M249.832 136.57L241.191 131.58V129.123L249.832 134.112V136.57Z" fill="#54C6FF"/>
<path opacity="0.5" d="M254.279 139.136L251.541 137.556V135.099L254.279 136.68V139.136Z" fill="#54C6FF"/>
<path opacity="0.5" d="M244.096 138.869L235.071 133.659V131.203L244.096 136.413V138.869Z" fill="#54C6FF"/>
<path d="M252.331 143.623L245.804 139.856V137.4L252.331 141.167V143.623Z" fill="#54C6FF"/>
<path opacity="0.5" d="M258.449 147.157L254.04 144.61V142.154L258.449 144.7V147.157Z" fill="#54C6FF"/>
<path opacity="0.5" d="M238.12 141.031L235.071 139.271V136.814L238.12 138.574V141.031Z" fill="#54C6FF"/>
<path opacity="0.5" d="M243.856 144.343L239.829 142.018V139.561L243.856 141.887V144.343Z" fill="#54C6FF"/>
<path opacity="0.5" d="M252.055 149.077L245.565 145.33V142.874L252.055 146.62V149.077Z" fill="#54C6FF"/>
<path opacity="0.5" d="M244.408 150.273L235.071 144.884V142.427L244.408 147.816V150.273Z" fill="#54C6FF"/>
<path opacity="0.5" d="M254.864 156.311L246.116 151.26V148.804L254.864 153.854V156.311Z" fill="#54C6FF"/>
<path d="M259.309 158.877L256.573 157.298V154.84L259.309 156.42V158.877Z" fill="#54C6FF"/>
<path opacity="0.5" d="M263.577 161.341L260.84 159.761V157.304L263.577 158.885V161.341Z" fill="#54C6FF"/>
<path opacity="0.5" d="M240.666 153.724L235.071 150.495V148.039L240.666 151.268V153.724Z" fill="#54C6FF"/>
<path d="M264.059 122.335L271.814 126.814V124.357L264.059 119.878V122.335Z" fill="#54C6FF"/>
<path opacity="0.5" d="M265.719 128.905L271.814 132.425V129.968L265.719 126.449V128.905Z" fill="#54C6FF"/>
<path opacity="0.5" d="M267.405 135.49L271.814 138.036V135.58L267.405 133.034V135.49Z" fill="#54C6FF"/>
<path opacity="0.5" d="M265.399 139.946L271.814 143.649V141.193L265.399 137.488V139.946Z" fill="#54C6FF"/>
<path opacity="0.5" d="M267.405 146.715L271.814 149.261V146.804L267.405 144.258V146.715Z" fill="#54C6FF"/>
<path opacity="0.5" d="M266.222 151.643L271.815 154.874V152.416L266.222 149.187V151.643Z" fill="#54C6FF"/>
<path opacity="0.5" d="M268.768 158.726L271.815 160.485V158.029L268.768 156.269V158.726Z" fill="#54C6FF"/>
<path opacity="0.5" d="M265.909 162.687L271.814 166.097V163.64L265.909 160.23V162.687Z" fill="#54C6FF"/>
<path opacity="0.5" d="M266.222 168.479L271.815 171.71V169.252L266.222 166.023V168.479Z" fill="#54C6FF"/>
<path opacity="0.5" d="M244.752 156.085L242.375 154.712V152.255L244.752 153.629V156.085Z" fill="#54C6FF"/>
<path opacity="0.5" d="M251.816 160.162L246.461 157.071V154.614L251.816 157.706V160.162Z" fill="#54C6FF"/>
<path opacity="0.5" d="M289.639 137.007L278.452 130.549V128.093L289.639 134.551V137.007Z" fill="#54C6FF"/>
<path opacity="0.5" d="M295.376 140.32L291.348 137.995V135.538L295.376 137.863V140.32Z" fill="#54C6FF"/>
<path d="M299.822 142.886L297.084 141.307V138.851L299.822 140.43V142.886Z" fill="#54C6FF"/>
<path opacity="0.5" d="M284.548 139.68L278.452 136.161V133.704L284.548 137.224V139.68Z" fill="#54C6FF"/>
<path opacity="0.5" d="M293.727 144.98L286.257 140.666V138.209L293.727 142.523V144.98Z" fill="#54C6FF"/>
<path d="M298.172 147.546L295.436 145.967V143.509L298.172 145.089V147.546Z" fill="#54C6FF"/>
<path opacity="0.5" d="M302.404 149.989L299.666 148.41V145.953L302.404 147.532V149.989Z" fill="#54C6FF"/>
<path opacity="0.5" d="M282.863 144.318L278.452 141.772V139.316L282.863 141.862V144.318Z" fill="#54C6FF"/>
<path opacity="0.5" d="M286.079 146.176L284.572 145.306V142.849L286.079 143.719V146.176Z" fill="#54C6FF"/>
<path opacity="0.5" d="M290.525 148.743L287.788 147.163V144.706L290.525 146.287V148.743Z" fill="#54C6FF"/>
<path opacity="0.5" d="M294.73 156.783L278.452 147.385V144.929L294.73 154.327V156.783Z" fill="#54C6FF"/>
<path opacity="0.5" d="M300.466 160.096L296.44 157.771V155.313L300.466 157.639V160.096Z" fill="#54C6FF"/>
<path opacity="0.5" d="M282.863 155.543L278.452 152.997V150.54L282.863 153.086V155.543Z" fill="#54C6FF"/>
<path opacity="0.5" d="M293.213 161.519L284.572 156.53V154.074L293.213 159.062V161.519Z" fill="#54C6FF"/>
<path opacity="0.5" d="M297.659 164.085L294.922 162.506V160.048L297.659 161.629V164.085Z" fill="#54C6FF"/>
<path d="M287.476 163.819L278.452 158.61V156.152L287.476 161.361V163.819Z" fill="#54C6FF"/>
<path opacity="0.5" d="M295.711 168.573L289.185 164.805V162.349L295.711 166.117V168.573Z" fill="#54C6FF"/>
<path opacity="0.5" d="M301.829 172.105L297.42 169.561V167.103L301.829 169.649V172.105Z" fill="#54C6FF"/>
<path opacity="0.5" d="M281.5 165.981L278.452 164.221V161.765L281.5 163.524V165.981Z" fill="#54C6FF"/>
<path opacity="0.5" d="M287.237 169.293L283.209 166.967V164.51L287.237 166.837V169.293Z" fill="#54C6FF"/>
<path d="M295.436 174.026L288.946 170.279V167.823L295.436 171.569V174.026Z" fill="#54C6FF"/>
<path opacity="0.5" d="M287.788 175.223L278.452 169.833V167.376L287.788 172.766V175.223Z" fill="#54C6FF"/>
<path opacity="0.5" d="M298.245 181.259L289.497 176.21V173.752L298.245 178.803V181.259Z" fill="#54C6FF"/>
<path opacity="0.5" d="M302.69 183.827L299.954 182.247V179.79L302.69 181.371V183.827Z" fill="#54C6FF"/>
<path opacity="0.5" d="M306.957 186.29L304.221 184.711V182.253L306.957 183.833V186.29Z" fill="#54C6FF"/>
<path opacity="0.5" d="M284.046 178.675L278.452 175.446V172.987L284.046 176.218V178.675Z" fill="#54C6FF"/>
<path d="M307.439 147.285L315.195 151.762V149.306L307.439 144.827V147.285Z" fill="#54C6FF"/>
<path opacity="0.5" d="M309.1 153.856L315.195 157.374V154.917L309.1 151.399V153.856Z" fill="#54C6FF"/>
<path opacity="0.5" d="M310.785 160.44L315.195 162.987V160.53L310.785 157.984V160.44Z" fill="#54C6FF"/>
<path opacity="0.5" d="M308.78 164.895L315.195 168.598V166.141L308.78 162.438V164.895Z" fill="#54C6FF"/>
<path opacity="0.5" d="M310.785 171.665L315.195 174.211V171.754L310.785 169.208V171.665Z" fill="#54C6FF"/>
<path opacity="0.5" d="M309.602 176.593L315.195 179.822V177.366L309.602 174.137V176.593Z" fill="#54C6FF"/>
<path opacity="0.5" d="M312.147 183.676L315.195 185.434V182.977L312.147 181.218V183.676Z" fill="#54C6FF"/>
<path opacity="0.5" d="M309.29 187.637L315.195 191.047V188.59L309.29 185.181V187.637Z" fill="#54C6FF"/>
<path opacity="0.5" d="M309.602 193.429L315.195 196.658V194.202L309.602 190.973V193.429Z" fill="#54C6FF"/>
<path d="M288.133 181.034L285.755 179.66V177.204L288.133 178.577V181.034Z" fill="#54C6FF"/>
<path opacity="0.5" d="M295.197 185.113L289.842 182.021V179.564L295.197 182.656V185.113Z" fill="#54C6FF"/>
<path opacity="0.5" d="M246.259 162.599L235.071 156.139V153.683L246.259 160.142V162.599Z" fill="#54C6FF"/>
<path opacity="0.5" d="M251.995 165.911L247.967 163.586V161.13L251.995 163.455V165.911Z" fill="#54C6FF"/>
<path opacity="0.5" d="M256.442 168.478L253.704 166.897V164.44L256.442 166.021V168.478Z" fill="#54C6FF"/>
<path opacity="0.5" d="M241.168 165.272L235.071 161.752V159.296L241.168 162.815V165.272Z" fill="#54C6FF"/>
<path opacity="0.5" d="M250.347 170.571L242.877 166.257V163.801L250.347 168.114V170.571Z" fill="#54C6FF"/>
<path opacity="0.5" d="M254.792 173.137L252.055 171.557V169.1L254.792 170.681V173.137Z" fill="#54C6FF"/>
<path opacity="0.5" d="M259.023 175.58L256.286 173.999V171.543L259.023 173.123V175.58Z" fill="#54C6FF"/>
<path opacity="0.5" d="M239.482 169.91L235.071 167.364V164.907L239.482 167.453V169.91Z" fill="#54C6FF"/>
<path opacity="0.5" d="M242.699 171.767L241.191 170.897V168.44L242.699 169.31V171.767Z" fill="#54C6FF"/>
<path opacity="0.5" d="M247.144 174.335L244.408 172.754V170.298L247.144 171.878V174.335Z" fill="#54C6FF"/>
<path opacity="0.5" d="M251.349 182.375L235.071 172.977V170.52L251.349 179.917V182.375Z" fill="#54C6FF"/>
<path opacity="0.5" d="M257.086 185.686L253.06 183.361V180.904L257.086 183.229V185.686Z" fill="#54C6FF"/>
<path opacity="0.5" d="M239.482 181.134L235.071 178.588V176.132L239.482 178.678V181.134Z" fill="#54C6FF"/>
<path opacity="0.5" d="M249.832 187.11L241.191 182.121V179.665L249.832 184.654V187.11Z" fill="#54C6FF"/>
<path opacity="0.5" d="M254.279 189.676L251.541 188.097V185.639L254.279 187.22V189.676Z" fill="#54C6FF"/>
<path opacity="0.5" d="M244.096 189.409L235.071 184.199V181.743L244.096 186.953V189.409Z" fill="#54C6FF"/>
<path opacity="0.5" d="M252.331 194.165L245.804 190.396V187.94L252.331 191.707V194.165Z" fill="#54C6FF"/>
<path opacity="0.5" d="M258.449 197.697L254.04 195.15V192.694L258.449 195.24V197.697Z" fill="#54C6FF"/>
<path opacity="0.5" d="M238.12 191.572L235.071 189.812V187.356L238.12 189.116V191.572Z" fill="#54C6FF"/>
<path opacity="0.5" d="M243.856 194.883L239.829 192.558V190.101L243.856 192.427V194.883Z" fill="#54C6FF"/>
<path opacity="0.5" d="M252.055 199.617L245.565 195.87V193.414L252.055 197.16V199.617Z" fill="#54C6FF"/>
<path opacity="0.5" d="M244.408 200.814L235.071 195.424V192.967L244.408 198.358V200.814Z" fill="#54C6FF"/>
<path opacity="0.5" d="M254.864 206.851L246.116 201.8V199.344L254.864 204.394V206.851Z" fill="#54C6FF"/>
<path opacity="0.5" d="M259.309 209.418L256.573 207.838V205.381L259.309 206.96V209.418Z" fill="#54C6FF"/>
<path opacity="0.5" d="M263.577 211.881L260.84 210.301V207.844L263.577 209.425V211.881Z" fill="#54C6FF"/>
<path opacity="0.5" d="M240.666 204.266L235.071 201.035V198.579L240.666 201.809V204.266Z" fill="#54C6FF"/>
<path opacity="0.5" d="M264.059 172.875L271.814 177.354V174.897L264.059 170.418V172.875Z" fill="#54C6FF"/>
<path opacity="0.5" d="M265.719 179.447L271.814 182.965V180.508L265.719 176.989V179.447Z" fill="#54C6FF"/>
<path opacity="0.5" d="M267.405 186.032L271.814 188.578V186.121L267.405 183.575V186.032Z" fill="#54C6FF"/>
<path opacity="0.5" d="M265.399 190.486L271.814 194.189V191.733L265.399 188.03V190.486Z" fill="#54C6FF"/>
<path opacity="0.5" d="M267.405 197.255L271.814 199.801V197.344L267.405 194.798V197.255Z" fill="#54C6FF"/>
<path opacity="0.5" d="M266.222 202.185L271.815 205.414V202.957L266.222 199.728V202.185Z" fill="#54C6FF"/>
<path opacity="0.5" d="M268.768 209.266L271.815 211.025V208.569L268.768 206.809V209.266Z" fill="#54C6FF"/>
<path opacity="0.5" d="M265.909 213.228L271.814 216.637V214.18L265.909 210.772V213.228Z" fill="#54C6FF"/>
<path opacity="0.5" d="M266.222 219.021L271.815 222.25V219.793L266.222 216.564V219.021Z" fill="#54C6FF"/>
<path opacity="0.5" d="M244.752 206.625L242.375 205.252V202.795L244.752 204.169V206.625Z" fill="#54C6FF"/>
<path opacity="0.5" d="M251.816 210.704L246.461 207.612V205.156L251.816 208.246V210.704Z" fill="#54C6FF"/>
<path opacity="0.5" d="M256.245 229.581L247.21 224.365V221.908L256.245 227.124V229.581Z" fill="#54C6FF"/>
<path opacity="0.5" d="M262.433 233.154L258.875 231.099V228.643L262.433 230.698V233.154Z" fill="#54C6FF"/>
<path opacity="0.5" d="M289.639 187.547L278.452 181.089V178.633L289.639 185.091V187.547Z" fill="#54C6FF"/>
<path opacity="0.5" d="M295.376 190.86L291.348 188.535V186.078L295.376 188.403V190.86Z" fill="#54C6FF"/>
<path opacity="0.5" d="M299.822 193.428L297.084 191.847V189.391L299.822 190.971V193.428Z" fill="#54C6FF"/>
<path opacity="0.5" d="M284.548 190.22L278.452 186.701V184.244L284.548 187.764V190.22Z" fill="#54C6FF"/>
<path opacity="0.5" d="M293.727 195.52L286.257 191.208V188.751L293.727 193.063V195.52Z" fill="#54C6FF"/>
<path opacity="0.5" d="M298.172 198.087L295.436 196.507V194.05L298.172 195.631V198.087Z" fill="#54C6FF"/>
<path opacity="0.5" d="M302.404 200.53L299.666 198.95V196.493L302.404 198.074V200.53Z" fill="#54C6FF"/>
<path opacity="0.5" d="M282.863 194.86L278.452 192.314V189.857L282.863 192.403V194.86Z" fill="#54C6FF"/>
<path opacity="0.5" d="M286.079 196.717L284.572 195.846V193.389L286.079 194.26V196.717Z" fill="#54C6FF"/>
<path opacity="0.5" d="M290.525 199.283L287.788 197.704V195.246L290.525 196.827V199.283Z" fill="#54C6FF"/>
<path opacity="0.5" d="M294.73 207.323L278.452 197.925V195.469L294.73 204.867V207.323Z" fill="#54C6FF"/>
<path opacity="0.5" d="M300.466 210.636L296.44 208.311V205.854L300.466 208.179V210.636Z" fill="#54C6FF"/>
<path opacity="0.5" d="M282.863 206.084L278.452 203.537V201.08L282.863 203.626V206.084Z" fill="#54C6FF"/>
<path opacity="0.5" d="M293.213 212.059L284.572 207.07V204.614L293.213 209.602V212.059Z" fill="#54C6FF"/>
<path opacity="0.5" d="M297.659 214.627L294.922 213.046V210.59L297.659 212.17V214.627Z" fill="#54C6FF"/>
<path opacity="0.5" d="M287.476 214.359L278.452 209.15V206.693L287.476 211.903V214.359Z" fill="#54C6FF"/>
<path opacity="0.5" d="M295.711 219.113L289.185 215.345V212.889L295.711 216.657V219.113Z" fill="#54C6FF"/>
<path opacity="0.5" d="M301.829 222.647L297.42 220.101V217.644L301.829 220.19V222.647Z" fill="#54C6FF"/>
<path opacity="0.5" d="M281.5 216.521L278.452 214.761V212.305L281.5 214.064V216.521Z" fill="#54C6FF"/>
<path opacity="0.5" d="M287.237 219.833L283.209 217.508V215.052L287.237 217.377V219.833Z" fill="#54C6FF"/>
<path opacity="0.5" d="M295.436 224.567L288.946 220.821V218.364L295.436 222.111V224.567Z" fill="#54C6FF"/>
<path opacity="0.5" d="M287.788 225.763L278.452 220.374V217.916L287.788 223.306V225.763Z" fill="#54C6FF"/>
<path opacity="0.5" d="M298.245 231.801L289.497 226.75V224.294L298.245 229.344V231.801Z" fill="#54C6FF"/>
<path opacity="0.5" d="M302.69 234.367L299.954 232.787V230.33L302.69 231.911V234.367Z" fill="#54C6FF"/>
<path opacity="0.5" d="M306.957 236.831L304.221 235.251V232.794L306.957 234.373V236.831Z" fill="#54C6FF"/>
<path opacity="0.5" d="M284.046 229.215L278.452 225.986V223.529L284.046 226.758V229.215Z" fill="#54C6FF"/>
<path opacity="0.5" d="M307.439 197.825L315.195 202.302V199.846L307.439 195.368V197.825Z" fill="#54C6FF"/>
<path opacity="0.5" d="M309.1 204.396L315.195 207.915V205.459L309.1 201.939V204.396Z" fill="#54C6FF"/>
<path opacity="0.5" d="M310.785 210.98L315.195 213.527V211.07L310.785 208.524V210.98Z" fill="#54C6FF"/>
<path opacity="0.5" d="M308.78 215.435L315.195 219.14V216.683L308.78 212.978V215.435Z" fill="#54C6FF"/>
<path opacity="0.5" d="M310.785 222.205L315.195 224.751V222.295L310.785 219.748V222.205Z" fill="#54C6FF"/>
<path opacity="0.5" d="M309.602 227.133L315.195 230.362V227.906L309.602 224.677V227.133Z" fill="#54C6FF"/>
<path opacity="0.5" d="M312.147 234.216L315.195 235.975V233.519L312.147 231.759V234.216Z" fill="#54C6FF"/>
<path opacity="0.5" d="M309.29 238.177L315.195 241.587V239.13L309.29 235.721V238.177Z" fill="#54C6FF"/>
<path opacity="0.5" d="M309.602 243.969L315.195 247.198V244.742L309.602 241.513V243.969Z" fill="#54C6FF"/>
<path opacity="0.5" d="M288.133 231.575L285.755 230.202V227.745L288.133 229.117V231.575Z" fill="#54C6FF"/>
<path opacity="0.5" d="M295.197 235.653L289.842 232.561V230.104L295.197 233.196V235.653Z" fill="#54C6FF"/>
<path opacity="0.5" d="M299.626 254.531L290.591 249.313V246.857L299.626 252.074V254.531Z" fill="#54C6FF"/>
<path opacity="0.5" d="M305.814 258.103L302.255 256.048V253.592L305.814 255.646V258.103Z" fill="#54C6FF"/>
<path opacity="0.5" d="M246.259 112.059L235.072 105.599V103.143L246.259 109.601V112.059Z" fill="#54C6FF"/>
<path opacity="0.5" d="M251.995 115.37L247.967 113.045V110.588L251.995 112.913V115.37Z" fill="#54C6FF"/>
<path opacity="0.5" d="M256.442 117.938L253.704 116.357V113.9L256.442 115.481V117.938Z" fill="#54C6FF"/>
<path opacity="0.5" d="M241.168 114.73L235.071 111.212V108.756L241.168 112.274V114.73Z" fill="#54C6FF"/>
<path opacity="0.5" d="M250.347 120.03L242.877 115.717V113.261L250.347 117.573V120.03Z" fill="#54C6FF"/>
<path opacity="0.5" d="M254.792 122.597L252.055 121.017V118.56L254.792 120.141V122.597Z" fill="#54C6FF"/>
<path opacity="0.5" d="M259.023 125.04L256.286 123.459V121.003L259.023 122.583V125.04Z" fill="#54C6FF"/>
<path d="M239.482 119.37L235.071 116.824V114.367L239.482 116.913V119.37Z" fill="#54C6FF"/>
<path d="M242.699 121.227L241.191 120.357V117.899L242.699 118.77V121.227Z" fill="#54C6FF"/>
<path opacity="0.5" d="M247.144 123.793L244.408 122.214V119.758L247.144 121.337V123.793Z" fill="#54C6FF"/>
<path opacity="0.5" d="M251.349 131.833L235.071 122.435V119.978L251.349 129.377V131.833Z" fill="#54C6FF"/>
<path opacity="0.5" d="M257.086 135.146L253.06 132.82V130.364L257.086 132.689V135.146Z" fill="#54C6FF"/>
<path opacity="0.5" d="M239.482 130.594L235.071 128.048V125.59L239.482 128.138V130.594Z" fill="#54C6FF"/>
<path opacity="0.5" d="M249.832 136.57L241.191 131.58V129.123L249.832 134.112V136.57Z" fill="#54C6FF"/>
<path opacity="0.5" d="M254.279 139.136L251.541 137.556V135.099L254.279 136.68V139.136Z" fill="#54C6FF"/>
<path opacity="0.5" d="M244.096 138.869L235.071 133.659V131.203L244.096 136.413V138.869Z" fill="#54C6FF"/>
<path d="M252.331 143.623L245.804 139.856V137.4L252.331 141.167V143.623Z" fill="#54C6FF"/>
<path opacity="0.5" d="M258.449 147.157L254.04 144.61V142.154L258.449 144.7V147.157Z" fill="#54C6FF"/>
<path opacity="0.5" d="M238.12 141.031L235.071 139.271V136.814L238.12 138.574V141.031Z" fill="#54C6FF"/>
<path opacity="0.5" d="M243.856 144.343L239.829 142.018V139.561L243.856 141.887V144.343Z" fill="#54C6FF"/>
<path opacity="0.5" d="M252.055 149.077L245.565 145.33V142.874L252.055 146.62V149.077Z" fill="#54C6FF"/>
<path opacity="0.5" d="M244.408 150.273L235.071 144.884V142.427L244.408 147.816V150.273Z" fill="#54C6FF"/>
<path opacity="0.5" d="M254.864 156.311L246.116 151.26V148.804L254.864 153.854V156.311Z" fill="#54C6FF"/>
<path d="M259.309 158.877L256.573 157.298V154.84L259.309 156.42V158.877Z" fill="#54C6FF"/>
<path opacity="0.5" d="M263.577 161.341L260.84 159.761V157.304L263.577 158.885V161.341Z" fill="#54C6FF"/>
<path opacity="0.5" d="M240.666 153.724L235.071 150.495V148.039L240.666 151.268V153.724Z" fill="#54C6FF"/>
<path d="M264.059 122.335L271.814 126.814V124.357L264.059 119.878V122.335Z" fill="#54C6FF"/>
<path opacity="0.5" d="M265.719 128.905L271.814 132.425V129.968L265.719 126.449V128.905Z" fill="#54C6FF"/>
<path opacity="0.5" d="M267.405 135.49L271.814 138.036V135.58L267.405 133.034V135.49Z" fill="#54C6FF"/>
<path opacity="0.5" d="M265.399 139.946L271.814 143.649V141.193L265.399 137.488V139.946Z" fill="#54C6FF"/>
<path opacity="0.5" d="M267.405 146.715L271.814 149.261V146.804L267.405 144.258V146.715Z" fill="#54C6FF"/>
<path opacity="0.5" d="M266.222 151.643L271.815 154.874V152.416L266.222 149.187V151.643Z" fill="#54C6FF"/>
<path opacity="0.5" d="M268.768 158.726L271.815 160.485V158.029L268.768 156.269V158.726Z" fill="#54C6FF"/>
<path opacity="0.5" d="M265.909 162.687L271.814 166.097V163.64L265.909 160.23V162.687Z" fill="#54C6FF"/>
<path opacity="0.5" d="M266.222 168.479L271.815 171.71V169.252L266.222 166.023V168.479Z" fill="#54C6FF"/>
<path opacity="0.5" d="M244.752 156.085L242.375 154.712V152.255L244.752 153.629V156.085Z" fill="#54C6FF"/>
<path opacity="0.5" d="M251.816 160.162L246.461 157.071V154.614L251.816 157.706V160.162Z" fill="#54C6FF"/>
<path opacity="0.5" d="M289.639 137.007L278.452 130.549V128.093L289.639 134.551V137.007Z" fill="#54C6FF"/>
<path opacity="0.5" d="M295.376 140.32L291.348 137.995V135.538L295.376 137.863V140.32Z" fill="#54C6FF"/>
<path d="M299.822 142.886L297.084 141.307V138.851L299.822 140.43V142.886Z" fill="#54C6FF"/>
<path opacity="0.5" d="M284.548 139.68L278.452 136.161V133.704L284.548 137.224V139.68Z" fill="#54C6FF"/>
<path opacity="0.5" d="M293.727 144.98L286.257 140.666V138.209L293.727 142.523V144.98Z" fill="#54C6FF"/>
<path d="M298.172 147.546L295.436 145.967V143.509L298.172 145.089V147.546Z" fill="#54C6FF"/>
<path opacity="0.5" d="M302.404 149.989L299.666 148.41V145.953L302.404 147.532V149.989Z" fill="#54C6FF"/>
<path opacity="0.5" d="M282.863 144.318L278.452 141.772V139.316L282.863 141.862V144.318Z" fill="#54C6FF"/>
<path opacity="0.5" d="M286.079 146.176L284.572 145.306V142.849L286.079 143.719V146.176Z" fill="#54C6FF"/>
<path opacity="0.5" d="M290.525 148.743L287.788 147.163V144.706L290.525 146.287V148.743Z" fill="#54C6FF"/>
<path opacity="0.5" d="M294.73 156.783L278.452 147.385V144.929L294.73 154.327V156.783Z" fill="#54C6FF"/>
<path opacity="0.5" d="M300.466 160.096L296.44 157.771V155.313L300.466 157.639V160.096Z" fill="#54C6FF"/>
<path opacity="0.5" d="M282.863 155.543L278.452 152.997V150.54L282.863 153.086V155.543Z" fill="#54C6FF"/>
<path opacity="0.5" d="M293.213 161.519L284.572 156.53V154.074L293.213 159.062V161.519Z" fill="#54C6FF"/>
<path opacity="0.5" d="M297.659 164.085L294.922 162.506V160.048L297.659 161.629V164.085Z" fill="#54C6FF"/>
<path d="M287.476 163.819L278.452 158.61V156.152L287.476 161.361V163.819Z" fill="#54C6FF"/>
<path opacity="0.5" d="M295.711 168.573L289.185 164.805V162.349L295.711 166.117V168.573Z" fill="#54C6FF"/>
<path opacity="0.5" d="M301.829 172.105L297.42 169.561V167.103L301.829 169.649V172.105Z" fill="#54C6FF"/>
<path opacity="0.5" d="M281.5 165.981L278.452 164.221V161.765L281.5 163.524V165.981Z" fill="#54C6FF"/>
<path opacity="0.5" d="M287.237 169.293L283.209 166.967V164.51L287.237 166.837V169.293Z" fill="#54C6FF"/>
<path d="M295.436 174.026L288.946 170.279V167.823L295.436 171.569V174.026Z" fill="#54C6FF"/>
<path opacity="0.5" d="M287.788 175.223L278.452 169.833V167.376L287.788 172.766V175.223Z" fill="#54C6FF"/>
<path opacity="0.5" d="M298.245 181.259L289.497 176.21V173.752L298.245 178.803V181.259Z" fill="#54C6FF"/>
<path opacity="0.5" d="M302.69 183.827L299.954 182.247V179.79L302.69 181.371V183.827Z" fill="#54C6FF"/>
<path opacity="0.5" d="M306.957 186.29L304.221 184.711V182.253L306.957 183.833V186.29Z" fill="#54C6FF"/>
<path opacity="0.5" d="M284.046 178.675L278.452 175.446V172.987L284.046 176.218V178.675Z" fill="#54C6FF"/>
<path d="M307.439 147.285L315.195 151.762V149.306L307.439 144.827V147.285Z" fill="#54C6FF"/>
<path opacity="0.5" d="M309.1 153.856L315.195 157.374V154.917L309.1 151.399V153.856Z" fill="#54C6FF"/>
<path opacity="0.5" d="M310.785 160.44L315.195 162.987V160.53L310.785 157.984V160.44Z" fill="#54C6FF"/>
<path opacity="0.5" d="M308.78 164.895L315.195 168.598V166.141L308.78 162.438V164.895Z" fill="#54C6FF"/>
<path opacity="0.5" d="M310.785 171.665L315.195 174.211V171.754L310.785 169.208V171.665Z" fill="#54C6FF"/>
<path opacity="0.5" d="M309.602 176.593L315.195 179.822V177.366L309.602 174.137V176.593Z" fill="#54C6FF"/>
<path opacity="0.5" d="M312.147 183.676L315.195 185.434V182.977L312.147 181.218V183.676Z" fill="#54C6FF"/>
<path opacity="0.5" d="M309.29 187.637L315.195 191.047V188.59L309.29 185.181V187.637Z" fill="#54C6FF"/>
<path opacity="0.5" d="M309.602 193.429L315.195 196.658V194.202L309.602 190.973V193.429Z" fill="#54C6FF"/>
<path d="M288.133 181.034L285.755 179.66V177.204L288.133 178.577V181.034Z" fill="#54C6FF"/>
<path opacity="0.5" d="M295.197 185.113L289.842 182.021V179.564L295.197 182.656V185.113Z" fill="#54C6FF"/>
<path opacity="0.5" d="M246.259 162.599L235.071 156.139V153.683L246.259 160.142V162.599Z" fill="#54C6FF"/>
<path opacity="0.5" d="M251.995 165.911L247.967 163.586V161.13L251.995 163.455V165.911Z" fill="#54C6FF"/>
<path opacity="0.5" d="M256.442 168.478L253.704 166.897V164.44L256.442 166.021V168.478Z" fill="#54C6FF"/>
<path opacity="0.5" d="M241.168 165.272L235.071 161.752V159.296L241.168 162.815V165.272Z" fill="#54C6FF"/>
<path opacity="0.5" d="M250.347 170.571L242.877 166.257V163.801L250.347 168.114V170.571Z" fill="#54C6FF"/>
<path opacity="0.5" d="M254.792 173.137L252.055 171.557V169.1L254.792 170.681V173.137Z" fill="#54C6FF"/>
<path opacity="0.5" d="M259.023 175.58L256.286 173.999V171.543L259.023 173.123V175.58Z" fill="#54C6FF"/>
<path opacity="0.5" d="M239.482 169.91L235.071 167.364V164.907L239.482 167.453V169.91Z" fill="#54C6FF"/>
<path opacity="0.5" d="M242.699 171.767L241.191 170.897V168.44L242.699 169.31V171.767Z" fill="#54C6FF"/>
<path opacity="0.5" d="M247.144 174.335L244.408 172.754V170.298L247.144 171.878V174.335Z" fill="#54C6FF"/>
<path opacity="0.5" d="M251.349 182.375L235.071 172.977V170.52L251.349 179.917V182.375Z" fill="#54C6FF"/>
<path opacity="0.5" d="M257.086 185.686L253.06 183.361V180.904L257.086 183.229V185.686Z" fill="#54C6FF"/>
<path opacity="0.5" d="M239.482 181.134L235.071 178.588V176.132L239.482 178.678V181.134Z" fill="#54C6FF"/>
<path opacity="0.5" d="M249.832 187.11L241.191 182.121V179.665L249.832 184.654V187.11Z" fill="#54C6FF"/>
<path opacity="0.5" d="M254.279 189.676L251.541 188.097V185.639L254.279 187.22V189.676Z" fill="#54C6FF"/>
<path opacity="0.5" d="M244.096 189.409L235.071 184.199V181.743L244.096 186.953V189.409Z" fill="#54C6FF"/>
<path opacity="0.5" d="M252.331 194.165L245.804 190.396V187.94L252.331 191.707V194.165Z" fill="#54C6FF"/>
<path opacity="0.5" d="M258.449 197.697L254.04 195.15V192.694L258.449 195.24V197.697Z" fill="#54C6FF"/>
<path opacity="0.5" d="M238.12 191.572L235.071 189.812V187.356L238.12 189.116V191.572Z" fill="#54C6FF"/>
<path opacity="0.5" d="M243.856 194.883L239.829 192.558V190.101L243.856 192.427V194.883Z" fill="#54C6FF"/>
<path opacity="0.5" d="M252.055 199.617L245.565 195.87V193.414L252.055 197.16V199.617Z" fill="#54C6FF"/>
<path opacity="0.5" d="M244.408 200.814L235.071 195.424V192.967L244.408 198.358V200.814Z" fill="#54C6FF"/>
<path opacity="0.5" d="M254.864 206.851L246.116 201.8V199.344L254.864 204.394V206.851Z" fill="#54C6FF"/>
<path opacity="0.5" d="M259.309 209.418L256.573 207.838V205.381L259.309 206.96V209.418Z" fill="#54C6FF"/>
<path opacity="0.5" d="M263.577 211.881L260.84 210.301V207.844L263.577 209.425V211.881Z" fill="#54C6FF"/>
<path opacity="0.5" d="M240.666 204.266L235.071 201.035V198.579L240.666 201.809V204.266Z" fill="#54C6FF"/>
<path opacity="0.5" d="M264.059 172.875L271.814 177.354V174.897L264.059 170.418V172.875Z" fill="#54C6FF"/>
<path opacity="0.5" d="M265.719 179.447L271.814 182.965V180.508L265.719 176.989V179.447Z" fill="#54C6FF"/>
<path opacity="0.5" d="M267.405 186.032L271.814 188.578V186.121L267.405 183.575V186.032Z" fill="#54C6FF"/>
<path opacity="0.5" d="M265.399 190.486L271.814 194.189V191.733L265.399 188.03V190.486Z" fill="#54C6FF"/>
<path opacity="0.5" d="M267.405 197.255L271.814 199.801V197.344L267.405 194.798V197.255Z" fill="#54C6FF"/>
<path opacity="0.5" d="M266.222 202.185L271.815 205.414V202.957L266.222 199.728V202.185Z" fill="#54C6FF"/>
<path opacity="0.5" d="M268.768 209.266L271.815 211.025V208.569L268.768 206.809V209.266Z" fill="#54C6FF"/>
<path opacity="0.5" d="M265.909 213.228L271.814 216.637V214.18L265.909 210.772V213.228Z" fill="#54C6FF"/>
<path opacity="0.5" d="M266.222 219.021L271.815 222.25V219.793L266.222 216.564V219.021Z" fill="#54C6FF"/>
<path opacity="0.5" d="M244.752 206.625L242.375 205.252V202.795L244.752 204.169V206.625Z" fill="#54C6FF"/>
<path opacity="0.5" d="M251.816 210.704L246.461 207.612V205.156L251.816 208.246V210.704Z" fill="#54C6FF"/>
<path opacity="0.5" d="M256.245 229.581L247.21 224.365V221.908L256.245 227.124V229.581Z" fill="#54C6FF"/>
<path opacity="0.5" d="M262.433 233.154L258.875 231.099V228.643L262.433 230.698V233.154Z" fill="#54C6FF"/>
<path opacity="0.5" d="M289.639 187.547L278.452 181.089V178.633L289.639 185.091V187.547Z" fill="#54C6FF"/>
<path opacity="0.5" d="M295.376 190.86L291.348 188.535V186.078L295.376 188.403V190.86Z" fill="#54C6FF"/>
<path opacity="0.5" d="M299.822 193.428L297.084 191.847V189.391L299.822 190.971V193.428Z" fill="#54C6FF"/>
<path opacity="0.5" d="M284.548 190.22L278.452 186.701V184.244L284.548 187.764V190.22Z" fill="#54C6FF"/>
<path opacity="0.5" d="M293.727 195.52L286.257 191.208V188.751L293.727 193.063V195.52Z" fill="#54C6FF"/>
<path opacity="0.5" d="M298.172 198.087L295.436 196.507V194.05L298.172 195.631V198.087Z" fill="#54C6FF"/>
<path opacity="0.5" d="M302.404 200.53L299.666 198.95V196.493L302.404 198.074V200.53Z" fill="#54C6FF"/>
<path opacity="0.5" d="M282.863 194.86L278.452 192.314V189.857L282.863 192.403V194.86Z" fill="#54C6FF"/>
<path opacity="0.5" d="M286.079 196.717L284.572 195.846V193.389L286.079 194.26V196.717Z" fill="#54C6FF"/>
<path opacity="0.5" d="M290.525 199.283L287.788 197.704V195.246L290.525 196.827V199.283Z" fill="#54C6FF"/>
<path opacity="0.5" d="M294.73 207.323L278.452 197.925V195.469L294.73 204.867V207.323Z" fill="#54C6FF"/>
<path opacity="0.5" d="M300.466 210.636L296.44 208.311V205.854L300.466 208.179V210.636Z" fill="#54C6FF"/>
<path opacity="0.5" d="M282.863 206.084L278.452 203.537V201.08L282.863 203.626V206.084Z" fill="#54C6FF"/>
<path opacity="0.5" d="M293.213 212.059L284.572 207.07V204.614L293.213 209.602V212.059Z" fill="#54C6FF"/>
<path opacity="0.5" d="M297.659 214.627L294.922 213.046V210.59L297.659 212.17V214.627Z" fill="#54C6FF"/>
<path opacity="0.5" d="M287.476 214.359L278.452 209.15V206.693L287.476 211.903V214.359Z" fill="#54C6FF"/>
<path opacity="0.5" d="M295.711 219.113L289.185 215.345V212.889L295.711 216.657V219.113Z" fill="#54C6FF"/>
<path opacity="0.5" d="M301.829 222.647L297.42 220.101V217.644L301.829 220.19V222.647Z" fill="#54C6FF"/>
<path opacity="0.5" d="M281.5 216.521L278.452 214.761V212.305L281.5 214.064V216.521Z" fill="#54C6FF"/>
<path opacity="0.5" d="M287.237 219.833L283.209 217.508V215.052L287.237 217.377V219.833Z" fill="#54C6FF"/>
<path opacity="0.5" d="M295.436 224.567L288.946 220.821V218.364L295.436 222.111V224.567Z" fill="#54C6FF"/>
<path opacity="0.5" d="M287.788 225.763L278.452 220.374V217.916L287.788 223.306V225.763Z" fill="#54C6FF"/>
<path opacity="0.5" d="M298.245 231.801L289.497 226.75V224.294L298.245 229.344V231.801Z" fill="#54C6FF"/>
<path opacity="0.5" d="M302.69 234.367L299.954 232.787V230.33L302.69 231.911V234.367Z" fill="#54C6FF"/>
<path opacity="0.5" d="M306.957 236.831L304.221 235.251V232.794L306.957 234.373V236.831Z" fill="#54C6FF"/>
<path opacity="0.5" d="M284.046 229.215L278.452 225.986V223.529L284.046 226.758V229.215Z" fill="#54C6FF"/>
<path opacity="0.5" d="M307.439 197.825L315.195 202.302V199.846L307.439 195.368V197.825Z" fill="#54C6FF"/>
<path opacity="0.5" d="M309.1 204.396L315.195 207.915V205.459L309.1 201.939V204.396Z" fill="#54C6FF"/>
<path opacity="0.5" d="M310.785 210.98L315.195 213.527V211.07L310.785 208.524V210.98Z" fill="#54C6FF"/>
<path opacity="0.5" d="M308.78 215.435L315.195 219.14V216.683L308.78 212.978V215.435Z" fill="#54C6FF"/>
<path opacity="0.5" d="M310.785 222.205L315.195 224.751V222.295L310.785 219.748V222.205Z" fill="#54C6FF"/>
<path opacity="0.5" d="M309.602 227.133L315.195 230.362V227.906L309.602 224.677V227.133Z" fill="#54C6FF"/>
<path opacity="0.5" d="M312.147 234.216L315.195 235.975V233.519L312.147 231.759V234.216Z" fill="#54C6FF"/>
<path opacity="0.5" d="M309.29 238.177L315.195 241.587V239.13L309.29 235.721V238.177Z" fill="#54C6FF"/>
<path opacity="0.5" d="M309.602 243.969L315.195 247.198V244.742L309.602 241.513V243.969Z" fill="#54C6FF"/>
<path opacity="0.5" d="M288.133 231.575L285.755 230.202V227.745L288.133 229.117V231.575Z" fill="#54C6FF"/>
<path opacity="0.5" d="M295.197 235.653L289.842 232.561V230.104L295.197 233.196V235.653Z" fill="#54C6FF"/>
<path opacity="0.5" d="M299.626 254.531L290.591 249.313V246.857L299.626 252.074V254.531Z" fill="#54C6FF"/>
<path opacity="0.5" d="M305.814 258.103L302.255 256.048V253.592L305.814 255.646V258.103Z" fill="#54C6FF"/>
<path d="M297.333 116.904L300.589 114.577C301.608 113.8 303.019 113.769 304.579 114.67L418.344 180.351C421.452 182.146 423.974 186.962 423.974 191.107V254.872C423.974 257.042 423.28 258.588 422.177 259.322L422.188 259.325L418.806 261.741L418.619 259.27C418.526 259.222 418.436 259.183 418.344 259.129L304.579 193.448C301.471 191.653 298.949 186.837 298.949 182.692V118.926C298.949 118.315 299.01 117.758 299.115 117.249L297.333 116.904Z" fill="url(#paint10_linear_907_24571)"/>
<path d="M423.679 188.56L393.65 205.896L386.087 201.53L420.19 181.84C421.832 183.551 423.126 186.04 423.679 188.56Z" fill="url(#paint11_linear_907_24571)"/>
<path d="M301.182 195.874L414.946 261.555C418.055 263.35 420.576 261.443 420.576 257.298V193.533C420.576 189.388 418.056 184.572 414.946 182.777L301.182 117.096C298.073 115.3 295.552 117.205 295.552 121.352V185.117C295.553 189.262 298.073 194.078 301.182 195.874Z" fill="url(#paint12_linear_907_24571)"/>
<path d="M311.709 155.722L404.556 209.276C405.273 209.69 405.883 209.913 406.303 209.267C406.368 209.167 406.334 209.02 406.334 208.882V194.8C406.334 193.706 405.668 192.434 404.848 191.962L311.278 137.939C311.206 137.897 311.136 137.823 311.062 137.836C310.361 137.95 310.333 138.597 310.333 139.594L310.107 153.103C310.109 154.197 310.889 155.249 311.709 155.722Z" fill="#1DB1FB"/>
<path d="M311.515 186.344L404.521 239.948C405.237 240.362 406.163 240.796 406.303 239.977C406.324 239.858 406.334 239.728 406.334 239.589V225.505C406.334 224.411 405.668 223.14 404.848 222.667L311.278 168.644C311.206 168.603 311.133 168.567 311.062 168.541C310.344 168.266 310.155 169.194 310.155 170.189L310.107 183.529C310.109 184.624 310.696 185.87 311.515 186.344Z" fill="#1DB1FB"/>
<path d="M311.062 137.843C311.042 137.961 311.031 138.089 311.031 138.227V152.311C311.031 153.405 311.697 154.676 312.517 155.149L406.087 209.171C406.161 209.215 406.234 209.241 406.305 209.269C406.166 210.091 405.568 210.423 404.85 210.009L311.28 155.986C310.46 155.512 309.795 154.242 309.795 153.148V139.064C309.795 138.067 310.345 137.571 311.062 137.843Z" fill="white"/>
<path d="M311.062 168.549C311.042 168.666 311.031 168.794 311.031 168.932V183.015C311.031 184.108 311.697 185.38 312.517 185.853L406.087 239.875C406.161 239.918 406.234 239.945 406.305 239.972C406.166 240.794 405.568 241.127 404.85 240.713L311.28 186.69C310.46 186.216 309.795 184.946 309.795 183.852V169.769C309.795 168.774 310.345 168.277 311.062 168.549Z" fill="white"/>
<path d="M379.589 188.288L378.445 190.454L376.27 187.721L377.923 186.016L375.448 183.495L376.258 181.406L378.49 184.147L378.189 180.878L380.925 182.458L380.638 185.374L382.874 185.239L383.702 188.249L381.261 187.931L382.898 191.56L380.758 191.789L379.589 188.288Z" fill="white"/>
<path d="M368.834 182.078L367.691 184.243L365.516 181.51L367.169 179.806L364.694 177.284L365.503 175.195L367.736 177.936L367.434 174.667L370.171 176.247L369.883 179.163L372.119 179.028L372.947 182.038L370.506 181.72L372.144 185.349L370.004 185.578L368.834 182.078Z" fill="white"/>
<path d="M358.08 175.869L356.936 178.033L354.761 175.3L356.414 173.596L353.939 171.075L354.749 168.986L356.981 171.727L356.68 168.458L359.416 170.038L359.129 172.953L361.364 172.819L362.192 175.829L359.751 175.51L361.389 179.14L359.249 179.368L358.08 175.869Z" fill="white"/>
<path d="M347.324 169.66L346.181 171.826L344.006 169.092L345.659 167.388L343.184 164.867L343.993 162.778L346.226 165.519L345.925 162.25L348.661 163.83L348.374 166.746L350.609 166.611L351.437 169.621L348.996 169.303L350.634 172.932L348.494 173.16L347.324 169.66Z" fill="white"/>
<path d="M336.57 163.45L335.427 165.616L333.251 162.883L334.904 161.179L332.429 158.658L333.239 156.569L335.471 159.31L335.17 156.04L337.906 157.621L337.619 160.536L339.854 160.402L340.683 163.412L338.242 163.093L339.879 166.723L337.739 166.951L336.57 163.45Z" fill="white"/>
<path d="M379.589 218.993L378.445 221.159L376.27 218.426L377.923 216.722L375.448 214.2L376.258 212.111L378.49 214.852L378.189 211.583L380.925 213.164L380.638 216.079L382.874 215.945L383.702 218.954L381.261 218.636L382.898 222.265L380.758 222.494L379.589 218.993Z" fill="white"/>
<path d="M368.834 212.784L367.691 214.95L365.516 212.217L367.169 210.512L364.694 207.991L365.503 205.902L367.736 208.643L367.434 205.374L370.171 206.954L369.883 209.87L372.119 209.735L372.947 212.745L370.506 212.427L372.144 216.056L370.004 216.285L368.834 212.784Z" fill="white"/>
<path d="M358.08 206.576L356.936 208.74L354.761 206.007L356.414 204.303L353.939 201.782L354.749 199.693L356.981 202.434L356.68 199.164L359.416 200.745L359.129 203.66L361.364 203.526L362.192 206.536L359.751 206.217L361.389 209.846L359.249 210.075L358.08 206.576Z" fill="white"/>
<path d="M347.324 200.366L346.181 202.531L344.006 199.798L345.659 198.094L343.184 195.572L343.993 193.483L346.226 196.224L345.925 192.955L348.661 194.536L348.374 197.451L350.609 197.317L351.437 200.326L348.996 200.008L350.634 203.637L348.494 203.866L347.324 200.366Z" fill="white"/>
<path d="M336.57 194.157L335.427 196.323L333.251 193.59L334.904 191.886L332.429 189.364L333.239 187.276L335.471 190.016L335.17 186.747L337.906 188.328L337.619 191.243L339.854 191.109L340.683 194.118L338.242 193.8L339.879 197.429L337.739 197.658L336.57 194.157Z" fill="white"/>
<g opacity="0.3">
<path d="M456.496 460.863V452.122L454.078 450.778C453.396 454.903 448.541 457.621 444.482 458.185L416.842 474.349L404.781 478.704L366.278 458.834L367.168 458.321C363.877 456.784 362.105 453.267 360.325 450.06L357.732 451.606L356.192 452.039V461.003C356.192 462.715 357.321 464.428 359.58 465.732L398.154 488.003C402.67 490.611 410.02 490.611 414.536 488.003L453.108 465.734C455.33 464.452 456.459 462.774 456.495 461.088C456.496 461.012 456.493 460.938 456.49 460.863H456.496Z" fill="url(#paint13_linear_907_24571)"/>
<path opacity="0.3" d="M444.484 458.185L416.844 474.349L406.345 478.14V489.958C409.312 489.958 412.278 489.306 414.537 488.002L453.11 465.732C455.331 464.45 456.461 462.772 456.496 461.087C456.498 461.011 456.495 460.937 456.491 460.861L456.496 460.863V452.122L454.287 450.894H454.055C453.303 454.953 448.504 457.626 444.484 458.185Z" fill="#0F054C"/>
<path d="M398.154 479.123L359.58 456.852C355.064 454.244 355.064 450.001 359.58 447.393L398.154 425.124C402.67 422.516 410.019 422.516 414.536 425.124L453.11 447.395C457.626 450.003 457.626 454.245 453.11 456.853L414.537 479.123C410.02 481.729 402.67 481.729 398.154 479.123Z" fill="url(#paint14_linear_907_24571)"/>
<g opacity="0.3">
<path d="M398.154 479.123L359.58 456.852C355.064 454.244 355.064 450.001 359.58 447.393L398.154 425.124C402.67 422.516 410.019 422.516 414.536 425.124L453.11 447.395C457.626 450.003 457.626 454.245 453.11 456.853L414.537 479.123C410.02 481.729 402.67 481.729 398.154 479.123Z" fill="#0F054C"/>
</g>
</g>
<path d="M406.346 464.414C403.712 464.414 401.08 463.835 399.075 462.678L360.499 440.407C358.497 439.251 357.394 437.691 357.394 436.014C357.394 434.338 358.497 432.777 360.499 431.62L399.073 409.351C403.08 407.038 409.604 407.035 413.615 409.351L452.189 431.622C454.191 432.778 455.294 434.338 455.294 436.014C455.294 437.691 454.191 439.251 452.189 440.408L413.615 462.678C411.611 463.835 408.977 464.414 406.346 464.414ZM406.344 408.282C403.832 408.282 401.323 408.835 399.412 409.936L360.838 432.206C359.053 433.236 358.071 434.59 358.071 436.014C358.071 437.439 359.053 438.791 360.838 439.821L399.413 462.092C403.239 464.303 409.456 464.302 413.278 462.092L451.852 439.823C453.637 438.792 454.619 437.439 454.619 436.014C454.619 434.59 453.637 433.238 451.852 432.207L413.278 409.936C411.365 408.835 408.855 408.282 406.344 408.282Z" fill="#54C6FF"/>
<path opacity="0.4" d="M456.496 427.467V414.258L454.078 412.913C453.396 417.039 448.541 419.756 444.482 420.32L416.842 436.484L404.781 440.839L366.278 420.969L367.168 420.456C363.877 418.919 362.105 415.402 360.325 412.195L357.732 413.742L356.192 414.174V427.606C356.192 429.318 357.321 431.032 359.58 432.336L398.154 454.607C402.67 457.215 410.02 457.215 414.536 454.607L453.11 432.337C455.331 431.055 456.459 429.377 456.496 427.691C456.498 427.616 456.495 427.542 456.492 427.466L456.496 427.467Z" fill="#54C6FF"/>
<path d="M456.496 415.725V406.985L454.078 405.641C453.396 409.766 448.541 412.484 444.482 413.049L416.842 429.213L404.781 433.569L366.278 413.698L367.168 413.185C363.877 411.648 362.105 408.132 360.325 404.924L357.732 406.471L356.192 406.903V415.866C356.192 417.578 357.321 419.291 359.58 420.595L398.154 442.866C402.67 445.474 410.02 445.474 414.536 442.866L453.11 420.597C455.331 419.314 456.459 417.637 456.496 415.951C456.498 415.875 456.495 415.801 456.492 415.725H456.496Z" fill="url(#paint15_linear_907_24571)"/>
<path opacity="0.3" d="M444.484 413.049L416.844 429.213L406.345 433.005V444.822C409.312 444.822 412.278 444.17 414.537 442.866L453.111 420.597C455.333 419.314 456.461 417.637 456.498 415.951C456.499 415.875 456.496 415.801 456.493 415.725L456.499 415.727V406.987L454.29 405.759H454.058C453.303 409.817 448.504 412.49 444.484 413.049Z" fill="#0F054C"/>
<path d="M398.154 433.986L359.58 411.715C355.064 409.107 355.064 404.864 359.58 402.256L398.154 379.986C402.67 377.378 410.019 377.378 414.536 379.986L453.11 402.258C457.626 404.866 457.626 409.108 453.11 411.716L414.537 433.986C410.02 436.594 402.67 436.594 398.154 433.986Z" fill="url(#paint16_linear_907_24571)"/>
<path d="M453.11 411.716L414.536 433.986C410.02 436.594 402.67 436.594 398.154 433.986L359.58 411.715C357.561 410.55 356.448 409.057 356.234 407.531C355.968 409.42 357.082 411.362 359.58 412.804L398.154 435.075C402.67 437.683 410.02 437.683 414.536 435.075L453.11 412.805C455.608 411.364 456.72 409.422 456.456 407.532C456.242 409.059 455.128 410.55 453.11 411.716Z" fill="white"/>
<g opacity="0.3">
<path d="M100.304 461.247V452.507L97.8865 451.163C97.2036 455.288 92.3493 458.006 88.2905 458.57L60.6505 474.734L48.5887 479.089L10.0858 459.219L10.9757 458.706C7.68483 457.168 5.91272 453.652 4.13288 450.445L1.54038 451.991L0 452.424V461.386C0 463.098 1.12941 464.812 3.3882 466.116L41.9622 488.387C46.4782 490.995 53.8278 490.995 58.3438 488.387L96.9163 466.117C99.138 464.835 100.267 463.157 100.303 461.471C100.304 461.396 100.301 461.321 100.298 461.246L100.304 461.247Z" fill="url(#paint17_linear_907_24571)"/>
<path opacity="0.3" d="M88.2922 458.57L60.6521 474.734L50.1538 478.525V490.343C53.1202 490.343 56.0866 489.691 58.3454 488.387L96.9179 466.117C99.1396 464.835 100.269 463.157 100.305 461.471C100.306 461.396 100.303 461.321 100.3 461.246L100.306 461.247V452.507L98.0967 451.279H97.8649C97.111 455.338 92.3122 458.01 88.2922 458.57Z" fill="#0F054C"/>
<path d="M41.9623 479.508L3.38825 457.236C-1.12779 454.628 -1.12779 450.386 3.38825 447.778L41.9607 425.508C46.4767 422.9 53.8263 422.9 58.3423 425.508L96.9163 447.779C101.432 450.387 101.432 454.63 96.9163 457.238L58.3439 479.508C53.8278 482.114 46.4783 482.114 41.9623 479.508Z" fill="url(#paint18_linear_907_24571)"/>
<g opacity="0.3">
<path d="M41.9623 479.508L3.38825 457.236C-1.12779 454.628 -1.12779 450.386 3.38825 447.778L41.9607 425.508C46.4767 422.9 53.8263 422.9 58.3423 425.508L96.9163 447.779C101.432 450.387 101.432 454.63 96.9163 457.238L58.3439 479.508C53.8278 482.114 46.4783 482.114 41.9623 479.508Z" fill="#0F054C"/>
</g>
</g>
<path d="M50.1539 464.799C47.5197 464.799 44.8885 464.22 42.8831 463.063L4.30914 440.791C2.30528 439.636 1.20215 438.075 1.20215 436.399C1.20215 434.723 2.30529 433.162 4.30761 432.005L42.8816 409.735C46.8878 407.423 53.4108 407.419 57.4231 409.735L95.9971 432.007C97.9995 433.162 99.1026 434.723 99.1026 436.399C99.1026 438.077 97.9995 439.637 95.9971 440.793L57.4231 463.063C55.4193 464.22 52.785 464.799 50.1539 464.799ZM50.1524 408.666C47.6418 408.666 45.1311 409.218 43.22 410.321L4.64596 432.591C2.86148 433.621 1.87886 434.974 1.87886 436.399C1.87886 437.823 2.86304 439.175 4.64751 440.206L43.2215 462.477C47.0469 464.688 53.264 464.686 57.0863 462.477L95.6603 440.207C97.4448 439.177 98.4274 437.825 98.4274 436.399C98.4274 434.974 97.4448 433.623 95.6603 432.592L57.0863 410.321C55.1736 409.219 52.663 408.666 50.1524 408.666Z" fill="#54C6FF"/>
<path opacity="0.4" d="M100.304 427.852V414.644L97.8865 413.3C97.2036 417.425 92.3493 420.143 88.2905 420.706L60.6505 436.87L48.5887 441.226L10.0858 421.355L10.9757 420.841C7.68483 419.304 5.91272 415.787 4.13288 412.58L1.54038 414.126L0 414.559V427.991C0 429.703 1.12941 431.416 3.3882 432.72L41.9622 454.992C46.4782 457.599 53.8278 457.599 58.3438 454.992L96.9163 432.722C99.138 431.44 100.267 429.762 100.303 428.076C100.304 428 100.301 427.926 100.298 427.851L100.304 427.852Z" fill="#54C6FF"/>
<path d="M100.304 416.11V407.37L97.8865 406.026C97.2036 410.151 92.3493 412.869 88.2905 413.433L60.6505 429.596L48.5887 433.952L10.0858 414.082L10.9757 413.567C7.68483 412.03 5.91272 408.513 4.13288 405.306L1.54038 406.852L0 407.285V416.248C0 417.959 1.12941 419.673 3.3882 420.977L41.9622 443.248C46.4782 445.856 53.8278 445.856 58.3438 443.248L96.9163 420.978C99.138 419.696 100.267 418.018 100.303 416.333C100.304 416.257 100.301 416.183 100.298 416.107L100.304 416.11Z" fill="url(#paint19_linear_907_24571)"/>
<path opacity="0.3" d="M88.2922 413.434L60.6521 429.598L50.1538 433.389V445.207C53.1202 445.207 56.0866 444.555 58.3454 443.251L96.9179 420.981C99.1396 419.699 100.269 418.021 100.305 416.336C100.306 416.26 100.303 416.186 100.3 416.11L100.306 416.112V407.372L98.0967 406.143H97.8649C97.111 410.202 92.3122 412.875 88.2922 413.434Z" fill="#0F054C"/>
<path d="M41.9623 434.37L3.38825 412.099C-1.12779 409.491 -1.12779 405.249 3.38825 402.641L41.9607 380.371C46.4767 377.763 53.8263 377.763 58.3423 380.371L96.9163 402.642C101.432 405.25 101.432 409.493 96.9163 412.101L58.3439 434.37C53.8278 436.978 46.4783 436.978 41.9623 434.37Z" fill="url(#paint20_linear_907_24571)"/>
<path d="M96.9179 412.101L58.3455 434.37C53.8294 436.978 46.4799 436.978 41.9638 434.37L3.38986 412.099C1.37055 410.934 0.258146 409.442 0.0433909 407.914C-0.220804 409.803 0.891596 411.745 3.38986 413.187L41.9638 435.458C46.4799 438.066 53.8294 438.066 58.3455 435.458L96.9179 413.189C99.4162 411.747 100.529 409.805 100.264 407.915C100.05 409.443 98.9357 410.936 96.9179 412.101Z" fill="white"/>
<path d="M49.5449 430.774C47.3154 430.774 45.0844 430.199 43.096 429.052L8.52204 409.171C7.74027 408.72 7.27368 407.914 7.27368 407.013C7.27368 406.112 7.74026 405.306 8.52048 404.855L41.0566 386.347C45.5402 383.765 51.113 383.772 55.5966 386.356L89.3487 405.762C90.1304 406.213 90.597 407.021 90.597 407.92C90.597 408.821 90.1305 409.627 89.3502 410.078L55.9875 429.052C54.0006 430.2 51.7727 430.774 49.5449 430.774ZM48.3181 385.448C45.9852 385.448 43.6522 386.047 41.5727 387.246L9.03651 405.754C8.58383 406.015 8.31192 406.486 8.31192 407.011C8.31192 407.538 8.58383 408.01 9.0396 408.271L43.6136 428.152C47.2706 430.264 51.8145 430.264 55.4715 428.152L88.8342 409.178C89.2869 408.916 89.5588 408.445 89.5588 407.92C89.5588 407.393 89.2869 406.923 88.8311 406.661L55.079 387.256H55.0775C52.9948 386.05 50.6557 385.448 48.3181 385.448Z" fill="#54C6FF"/>
<g opacity="0.11">
<path d="M55.337 367.395C50.9986 364.89 45.6545 364.887 41.313 367.387L8.77998 385.893C7.46364 386.653 7.46364 388.552 8.77998 389.31L43.3555 409.191C47.184 411.402 51.9025 411.402 55.731 409.191L89.0906 390.219C90.4069 389.459 90.4069 387.56 89.0906 386.801L55.337 367.395Z" fill="url(#paint21_linear_907_24571)"/>
</g>
<g opacity="0.11">
<path d="M55.337 353.313C50.9986 350.809 45.6545 350.806 41.313 353.306L8.77998 371.812C7.46364 372.572 7.46364 374.471 8.77998 375.231L43.3555 395.112C47.184 397.323 51.9025 397.323 55.731 395.112L89.0906 376.139C90.4069 375.379 90.4069 373.48 89.0906 372.722L55.337 353.313Z" fill="url(#paint22_linear_907_24571)"/>
</g>
<g opacity="0.11">
<path d="M55.337 339.234C50.9986 336.729 45.6545 336.726 41.313 339.226L8.77998 357.732C7.46364 358.492 7.46364 360.391 8.77998 361.15L43.3555 381.031C47.184 383.242 51.9025 383.242 55.731 381.031L89.0906 362.058C90.4069 361.298 90.4069 359.399 89.0906 358.639L55.337 339.234Z" fill="url(#paint23_linear_907_24571)"/>
</g>
<g opacity="0.11">
<path d="M55.337 325.154C50.9986 322.65 45.6545 322.647 41.313 325.147L8.77998 343.653C7.46364 344.413 7.46364 346.312 8.77998 347.072L43.3555 366.953C47.184 369.164 51.9025 369.164 55.731 366.953L89.0906 347.98C90.4069 347.22 90.4069 345.321 89.0906 344.563L55.337 325.154Z" fill="url(#paint24_linear_907_24571)"/>
</g>
<path opacity="0.5" d="M89.0906 344.561L55.337 325.154C50.9986 322.65 45.6545 322.647 41.313 325.147L8.77997 343.653C8.1218 344.033 7.79272 344.697 7.79272 345.361V387.6C7.79272 388.264 8.1218 388.929 8.77997 389.309L43.3555 409.19C47.184 411.401 51.9025 411.401 55.731 409.19L89.0906 390.217C89.7488 389.837 90.0778 389.173 90.0778 388.509V346.27C90.0778 345.605 89.7488 344.941 89.0906 344.561Z" fill="url(#paint25_linear_907_24571)"/>
<g opacity="0.11">
<path d="M55.337 325.154C50.9986 322.65 45.6545 322.647 41.313 325.147L8.77998 343.653C7.46364 344.413 7.46364 346.312 8.77998 347.072L43.3555 366.953C47.184 369.164 51.9025 369.164 55.731 366.953L89.0906 347.98C90.4069 347.22 90.4069 345.321 89.0906 344.563L55.337 325.154Z" fill="url(#paint26_linear_907_24571)"/>
</g>
<path d="M89.0906 346.035L55.731 365.008C51.9025 367.218 47.1841 367.218 43.3556 365.008L8.78002 345.127C8.45557 344.94 8.21301 344.682 8.0477 344.39C7.54557 345.281 7.78813 346.498 8.78002 347.072L43.3556 366.953C47.1841 369.164 51.9025 369.164 55.731 366.953L89.0906 347.98C90.0825 347.408 90.3251 346.189 89.823 345.298C89.6577 345.59 89.4151 345.848 89.0906 346.035Z" fill="url(#paint27_linear_907_24571)"/>
<path opacity="0.7" d="M48.9361 357.395L27.8716 345.235L48.9361 333.072L69.999 345.235L48.9361 357.395Z" fill="#54C6FF"/>
<path d="M48.9361 358.534C48.7399 358.534 48.5421 358.483 48.366 358.381L27.3015 346.22C26.9507 346.016 26.7329 345.641 26.7329 345.233C26.7329 344.825 26.9507 344.45 27.3015 344.246L48.366 332.085C48.7198 331.883 49.1539 331.883 49.5062 332.085L70.5692 344.246C70.9214 344.45 71.1377 344.825 71.1377 345.233C71.1377 345.641 70.9199 346.016 70.5692 346.22L49.5062 358.381C49.3301 358.483 49.1323 358.534 48.9361 358.534ZM30.1504 345.235L48.9361 356.081L67.7202 345.235L48.9361 334.389L30.1504 345.235Z" fill="#54C6FF"/>
<defs>
<linearGradient id="paint0_linear_907_24571" x1="366.458" y1="193.229" x2="251.343" y2="193.229" gradientUnits="userSpaceOnUse">
<stop stop-color="#00ADF7"/>
<stop offset="0.3219" stop-color="#285E8C"/>
<stop offset="0.4319" stop-color="#22417A"/>
<stop offset="0.5479" stop-color="#1E2A6C"/>
<stop offset="0.6729" stop-color="#1A1A63"/>
<stop offset="0.813" stop-color="#19105D"/>
<stop offset="1" stop-color="#180D5B"/>
</linearGradient>
<linearGradient id="paint1_linear_907_24571" x1="359.762" y1="197.35" x2="244.648" y2="197.35" gradientUnits="userSpaceOnUse">
<stop stop-color="#4298E8"/>
<stop offset="0.3219" stop-color="#285E8C"/>
<stop offset="0.4319" stop-color="#22417A"/>
<stop offset="0.5479" stop-color="#1E2A6C"/>
<stop offset="0.6729" stop-color="#1A1A63"/>
<stop offset="0.813" stop-color="#19105D"/>
<stop offset="1" stop-color="#180D5B"/>
</linearGradient>
<linearGradient id="paint2_linear_907_24571" x1="353.067" y1="201.47" x2="237.953" y2="201.47" gradientUnits="userSpaceOnUse">
<stop stop-color="#42A6E8"/>
<stop offset="0.3219" stop-color="#285E8C"/>
<stop offset="0.4319" stop-color="#22417A"/>
<stop offset="0.5479" stop-color="#1E2A6C"/>
<stop offset="0.6729" stop-color="#1A1A63"/>
<stop offset="0.813" stop-color="#19105D"/>
<stop offset="1" stop-color="#180D5B"/>
</linearGradient>
<linearGradient id="paint3_linear_907_24571" x1="281.895" y1="340.143" x2="281.895" y2="13.0663" gradientUnits="userSpaceOnUse">
<stop stop-color="#5761D7"/>
<stop offset="0.1779" stop-color="#5C66D9"/>
<stop offset="0.3876" stop-color="#6A73DF"/>
<stop offset="0.6134" stop-color="#8289E8"/>
<stop offset="0.849" stop-color="#A3A7F5"/>
<stop offset="1" stop-color="#BCBEFF"/>
</linearGradient>
<linearGradient id="paint4_linear_907_24571" x1="326.183" y1="100.25" x2="326.183" y2="76.8184" gradientUnits="userSpaceOnUse">
<stop stop-color="#C0BFF6"/>
<stop offset="0.2938" stop-color="#C5C4F7"/>
<stop offset="0.6399" stop-color="#D3D2F9"/>
<stop offset="1" stop-color="#E9E9FD"/>
</linearGradient>
<linearGradient id="paint5_linear_907_24571" x1="275.093" y1="308.429" x2="386.054" y2="116.244" gradientUnits="userSpaceOnUse">
<stop stop-color="#C0BFF6"/>
<stop offset="0.2938" stop-color="#C5C4F7"/>
<stop offset="0.6399" stop-color="#D3D2F9"/>
<stop offset="1" stop-color="#E9E9FD"/>
</linearGradient>
<linearGradient id="paint6_linear_907_24571" x1="268.25" y1="350.8" x2="177.984" y2="350.8" gradientUnits="userSpaceOnUse">
<stop stop-color="#5761D7"/>
<stop offset="0.1779" stop-color="#5C66D9"/>
<stop offset="0.3876" stop-color="#6A73DF"/>
<stop offset="0.6134" stop-color="#8289E8"/>
<stop offset="0.849" stop-color="#A3A7F5"/>
<stop offset="1" stop-color="#BCBEFF"/>
</linearGradient>
<radialGradient id="paint7_radial_907_24571" cx="0" cy="0" r="1" gradientUnits="userSpaceOnUse" gradientTransform="translate(247.036 323.704) rotate(180) scale(43.0587 43.0587)">
<stop stop-color="#2B237C"/>
<stop offset="1" stop-color="#180D5B"/>
</radialGradient>
<linearGradient id="paint8_linear_907_24571" x1="268.25" y1="337.229" x2="164.493" y2="337.229" gradientUnits="userSpaceOnUse">
<stop stop-color="#5761D7"/>
<stop offset="0.1779" stop-color="#5C66D9"/>
<stop offset="0.3876" stop-color="#6A73DF"/>
<stop offset="0.6134" stop-color="#8289E8"/>
<stop offset="0.849" stop-color="#A3A7F5"/>
<stop offset="1" stop-color="#BCBEFF"/>
</linearGradient>
<linearGradient id="paint9_linear_907_24571" x1="250.753" y1="360.955" x2="160.486" y2="360.955" gradientUnits="userSpaceOnUse">
<stop stop-color="#C0BFF6"/>
<stop offset="0.2938" stop-color="#C5C4F7"/>
<stop offset="0.6399" stop-color="#D3D2F9"/>
<stop offset="1" stop-color="#E9E9FD"/>
</linearGradient>
<linearGradient id="paint10_linear_907_24571" x1="408.742" y1="226.574" x2="296.028" y2="131.996" gradientUnits="userSpaceOnUse">
<stop stop-color="#5761D7"/>
<stop offset="0.1779" stop-color="#5C66D9"/>
<stop offset="0.3876" stop-color="#6A73DF"/>
<stop offset="0.6134" stop-color="#8289E8"/>
<stop offset="0.849" stop-color="#A3A7F5"/>
<stop offset="1" stop-color="#BCBEFF"/>
</linearGradient>
<linearGradient id="paint11_linear_907_24571" x1="411.02" y1="198.299" x2="398.708" y2="187.969" gradientUnits="userSpaceOnUse">
<stop stop-color="#C0BFF6"/>
<stop offset="0.2938" stop-color="#C5C4F7"/>
<stop offset="0.6399" stop-color="#D3D2F9"/>
<stop offset="1" stop-color="#E9E9FD"/>
</linearGradient>
<linearGradient id="paint12_linear_907_24571" x1="358.064" y1="228.716" x2="392.177" y2="169.632" gradientUnits="userSpaceOnUse">
<stop stop-color="#C0BFF6"/>
<stop offset="0.2938" stop-color="#C5C4F7"/>
<stop offset="0.6399" stop-color="#D3D2F9"/>
<stop offset="1" stop-color="#E9E9FD"/>
</linearGradient>
<linearGradient id="paint13_linear_907_24571" x1="366.171" y1="434.755" x2="445.754" y2="480.702" gradientUnits="userSpaceOnUse">
<stop stop-color="#BCBEFF"/>
<stop offset="0.2271" stop-color="#AAADF8"/>
<stop offset="0.6802" stop-color="#7C83E5"/>
<stop offset="1" stop-color="#5761D7"/>
</linearGradient>
<linearGradient id="paint14_linear_907_24571" x1="356.192" y1="452.123" x2="456.496" y2="452.123" gradientUnits="userSpaceOnUse">
<stop stop-color="#E9E9FD"/>
<stop offset="0.3601" stop-color="#D3D2F9"/>
<stop offset="0.7062" stop-color="#C5C4F7"/>
<stop offset="1" stop-color="#C0BFF6"/>
</linearGradient>
<linearGradient id="paint15_linear_907_24571" x1="366.171" y1="389.619" x2="445.754" y2="435.566" gradientUnits="userSpaceOnUse">
<stop stop-color="#BCBEFF"/>
<stop offset="0.2271" stop-color="#AAADF8"/>
<stop offset="0.6802" stop-color="#7C83E5"/>
<stop offset="1" stop-color="#5761D7"/>
</linearGradient>
<linearGradient id="paint16_linear_907_24571" x1="356.192" y1="406.986" x2="456.496" y2="406.986" gradientUnits="userSpaceOnUse">
<stop stop-color="#E9E9FD"/>
<stop offset="0.3601" stop-color="#D3D2F9"/>
<stop offset="0.7062" stop-color="#C5C4F7"/>
<stop offset="1" stop-color="#C0BFF6"/>
</linearGradient>
<linearGradient id="paint17_linear_907_24571" x1="9.97915" y1="435.14" x2="89.5619" y2="481.087" gradientUnits="userSpaceOnUse">
<stop stop-color="#BCBEFF"/>
<stop offset="0.2271" stop-color="#AAADF8"/>
<stop offset="0.6802" stop-color="#7C83E5"/>
<stop offset="1" stop-color="#5761D7"/>
</linearGradient>
<linearGradient id="paint18_linear_907_24571" x1="0.000525453" y1="452.507" x2="100.305" y2="452.507" gradientUnits="userSpaceOnUse">
<stop stop-color="#E9E9FD"/>
<stop offset="0.3601" stop-color="#D3D2F9"/>
<stop offset="0.7062" stop-color="#C5C4F7"/>
<stop offset="1" stop-color="#C0BFF6"/>
</linearGradient>
<linearGradient id="paint19_linear_907_24571" x1="9.97931" y1="390.003" x2="89.5619" y2="435.95" gradientUnits="userSpaceOnUse">
<stop stop-color="#BCBEFF"/>
<stop offset="0.2271" stop-color="#AAADF8"/>
<stop offset="0.6802" stop-color="#7C83E5"/>
<stop offset="1" stop-color="#5761D7"/>
</linearGradient>
<linearGradient id="paint20_linear_907_24571" x1="0.000525453" y1="407.371" x2="100.305" y2="407.371" gradientUnits="userSpaceOnUse">
<stop stop-color="#E9E9FD"/>
<stop offset="0.3601" stop-color="#D3D2F9"/>
<stop offset="0.7062" stop-color="#C5C4F7"/>
<stop offset="1" stop-color="#C0BFF6"/>
</linearGradient>
<linearGradient id="paint21_linear_907_24571" x1="7.79381" y1="388.182" x2="90.0775" y2="388.182" gradientUnits="userSpaceOnUse">
<stop stop-color="#5761D7"/>
<stop offset="0.0726" stop-color="#5472D8"/>
<stop offset="0.2791" stop-color="#4E9CDB"/>
<stop offset="1" stop-color="#54C6FF"/>
</linearGradient>
<linearGradient id="paint22_linear_907_24571" x1="7.79381" y1="374.102" x2="90.0775" y2="374.102" gradientUnits="userSpaceOnUse">
<stop stop-color="#5761D7"/>
<stop offset="0.0726" stop-color="#5472D8"/>
<stop offset="1" stop-color="#C86FCF"/>
</linearGradient>
<linearGradient id="paint23_linear_907_24571" x1="7.79381" y1="360.022" x2="90.0775" y2="360.022" gradientUnits="userSpaceOnUse">
<stop stop-color="#5761D7"/>
<stop offset="0.0726" stop-color="#5472D8"/>
<stop offset="0.2791" stop-color="#4E9CDB"/>
<stop offset="1" stop-color="#54C6FF"/>
</linearGradient>
<linearGradient id="paint24_linear_907_24571" x1="7.79381" y1="345.942" x2="90.0775" y2="345.942" gradientUnits="userSpaceOnUse">
<stop stop-color="#5761D7"/>
<stop offset="0.0726" stop-color="#5472D8"/>
<stop offset="1" stop-color="#5824DD"/>
</linearGradient>
<linearGradient id="paint25_linear_907_24571" x1="7.79381" y1="367.062" x2="90.0775" y2="367.062" gradientUnits="userSpaceOnUse">
<stop stop-color="#5761D7"/>
<stop offset="0.0726" stop-color="#5472D8"/>
<stop offset="0.2791" stop-color="#4E9CDB"/>
<stop offset="1" stop-color="#47C4F9"/>
</linearGradient>
<linearGradient id="paint26_linear_907_24571" x1="7.79381" y1="345.942" x2="90.0775" y2="345.942" gradientUnits="userSpaceOnUse">
<stop stop-color="#5761D7"/>
<stop offset="0.0726" stop-color="#5472D8"/>
<stop offset="1" stop-color="#5824DD"/>
</linearGradient>
<linearGradient id="paint27_linear_907_24571" x1="7.79493" y1="356.5" x2="90.0764" y2="356.5" gradientUnits="userSpaceOnUse">
<stop stop-color="#5761D7"/>
<stop offset="0.0726" stop-color="#5472D8"/>
<stop offset="0.2791" stop-color="#4E9CDB"/>
<stop offset="1" stop-color="#84C6FF"/>
</linearGradient>
</defs>
</svg>
