<svg width="96" height="96" viewBox="0 0 96 96" fill="none" xmlns="http://www.w3.org/2000/svg">
<path d="M88.5 89.999H34.5C34.1022 89.999 33.7206 89.841 33.4393 89.5597C33.158 89.2784 33 88.8968 33 88.499V53.999C33 53.6012 33.158 53.2197 33.4393 52.9384C33.7206 52.6571 34.1022 52.499 34.5 52.499H88.5C88.8978 52.499 89.2794 52.6571 89.5607 52.9384C89.842 53.2197 90 53.6012 90 53.999V88.499C90 88.8968 89.842 89.2784 89.5607 89.5597C89.2794 89.841 88.8978 89.999 88.5 89.999ZM36 86.999H87V55.499H36V86.999Z" fill="#249FDD"/>
<path d="M42.75 67.499C41.7117 67.499 40.6966 67.1911 39.8333 66.6142C38.9699 66.0374 38.297 65.2174 37.8996 64.2581C37.5023 63.2988 37.3983 62.2432 37.6009 61.2248C37.8035 60.2064 38.3035 59.2709 39.0377 58.5367C39.7719 57.8025 40.7074 57.3025 41.7258 57.0999C42.7442 56.8973 43.7998 57.0013 44.7591 57.3987C45.7184 57.796 46.5383 58.4689 47.1152 59.3323C47.6921 60.1956 48 61.2107 48 62.249C48 63.6414 47.4469 64.9768 46.4623 65.9613C45.4777 66.9459 44.1424 67.499 42.75 67.499ZM42.75 59.999C42.305 59.999 41.87 60.131 41.5 60.3782C41.13 60.6255 40.8416 60.9769 40.6713 61.388C40.501 61.7991 40.4564 62.2515 40.5432 62.688C40.6301 63.1244 40.8443 63.5253 41.159 63.84C41.4737 64.1547 41.8746 64.369 42.311 64.4558C42.7475 64.5426 43.1999 64.498 43.611 64.3278C44.0222 64.1575 44.3736 63.8691 44.6208 63.4991C44.868 63.129 45 62.694 45 62.249C45 61.6523 44.7629 61.08 44.341 60.658C43.919 60.2361 43.3467 59.999 42.75 59.999Z" fill="#249FDD"/>
<path d="M34.5 83.9991C34.1852 83.9991 33.8783 83.9001 33.6229 83.716C33.3675 83.5319 33.1765 83.2722 33.077 82.9735C32.9774 82.6748 32.9744 82.3524 33.0682 82.0519C33.1621 81.7514 33.3481 81.488 33.6 81.2991C37.5805 78.3349 42.1538 76.2644 47.0075 75.229C51.8613 74.1935 56.8813 74.2174 61.725 75.2991C66.042 76.4052 70.2152 78.011 74.16 80.0841C74.3513 80.1613 74.5246 80.2771 74.669 80.4243C74.8135 80.5715 74.9261 80.7469 74.9998 80.9395C75.0734 81.1322 75.1066 81.3379 75.0971 81.544C75.0877 81.75 75.0358 81.9519 74.9448 82.1369C74.8538 82.322 74.7256 82.4864 74.5683 82.6197C74.4109 82.753 74.2277 82.8524 74.0302 82.9118C73.8327 82.9711 73.625 82.989 73.4202 82.9645C73.2154 82.94 73.0179 82.8735 72.84 82.7691C69.0986 80.8268 65.1482 79.3171 61.065 78.2691C56.6534 77.2664 52.0776 77.2256 47.6489 78.1496C43.2202 79.0737 39.0425 80.9409 35.4 83.6241C35.1501 83.8459 34.8334 83.9779 34.5 83.9991Z" fill="#249FDD"/>
<path d="M88.5 78.6144C88.2715 78.6153 88.0457 78.564 87.84 78.4644C86.1036 77.6291 84.2618 77.0337 82.365 76.6944C81.9672 76.6267 81.6125 76.4039 81.3791 76.0747C81.1456 75.7456 81.0524 75.3372 81.12 74.9394C81.1877 74.5416 81.4106 74.1869 81.7397 73.9534C82.0688 73.7199 82.4772 73.6267 82.875 73.6944C85.0536 74.0676 87.1692 74.7442 89.16 75.7044C89.4661 75.8526 89.7127 76.1004 89.8594 76.4072C90.0062 76.714 90.0443 77.0615 89.9676 77.3928C89.8908 77.7241 89.7038 78.0195 89.4372 78.2305C89.1705 78.4416 88.8401 78.5558 88.5 78.5544V78.6144Z" fill="#249FDD"/>
<path d="M67.08 79.0798C66.7467 79.0781 66.4235 78.9655 66.1614 78.7598C65.8992 78.5541 65.713 78.2669 65.6322 77.9436C65.5514 77.6203 65.5805 77.2793 65.715 76.9744C65.8495 76.6695 66.0817 76.418 66.375 76.2598C69.3511 74.7027 72.6115 73.7639 75.96 73.4998C76.1571 73.4812 76.356 73.5019 76.5451 73.5606C76.7342 73.6193 76.9098 73.7148 77.0618 73.8417C77.2138 73.9686 77.3392 74.1243 77.4307 74.2999C77.5222 74.4755 77.578 74.6675 77.595 74.8648C77.6135 75.0619 77.5929 75.2607 77.5342 75.4499C77.4755 75.639 77.3799 75.8146 77.253 75.9666C77.1261 76.1186 76.9704 76.2439 76.7948 76.3355C76.6192 76.427 76.4273 76.4828 76.23 76.4998C73.2769 76.7365 70.4032 77.5736 67.785 78.9598C67.5631 79.056 67.3212 79.0972 67.08 79.0798Z" fill="#249FDD"/>
<path d="M79.5 83.999C79.1022 83.999 78.7206 83.841 78.4393 83.5597C78.158 83.2784 78 82.8968 78 82.499V76.499C78 76.1012 78.158 75.7197 78.4393 75.4384C78.7206 75.1571 79.1022 74.999 79.5 74.999C79.8978 74.999 80.2794 75.1571 80.5607 75.4384C80.842 75.7197 81 76.1012 81 76.499V82.499C81 82.8968 80.842 83.2784 80.5607 83.5597C80.2794 83.841 79.8978 83.999 79.5 83.999Z" fill="#249FDD"/>
<path d="M79.5 77.9993C78.1657 78.0032 76.8681 77.5622 75.8125 76.7461C74.7568 75.9299 74.0034 74.7851 73.6713 73.4928C73.3391 72.2004 73.4473 70.8342 73.9786 69.6102C74.5099 68.3862 75.4341 67.3742 76.605 66.7343C76.7784 66.6358 76.9694 66.5724 77.1672 66.5478C77.3651 66.5231 77.5658 66.5377 77.7581 66.5906C77.9503 66.6435 78.1302 66.7338 78.2875 66.8563C78.4449 66.9787 78.5765 67.131 78.675 67.3043C78.7735 67.4777 78.8369 67.6687 78.8615 67.8666C78.8862 68.0644 78.8717 68.2652 78.8187 68.4574C78.7658 68.6496 78.6755 68.8295 78.5531 68.9868C78.4306 69.1442 78.2784 69.2758 78.105 69.3743C77.7144 69.591 77.3772 69.8922 77.1179 70.2558C76.8586 70.6195 76.6837 71.0364 76.6061 71.4763C76.5285 71.9161 76.55 72.3678 76.6692 72.7982C76.7884 73.2286 77.0022 73.627 77.295 73.9643C77.5617 74.27 77.8875 74.5184 78.2529 74.6945C78.6183 74.8706 79.0156 74.9708 79.4208 74.9891C79.826 75.0073 80.2307 74.9432 80.6104 74.8005C80.9901 74.6579 81.337 74.4398 81.63 74.1593C81.6627 74.1167 81.7034 74.081 81.75 74.0543C82.2498 73.4881 82.5176 72.7543 82.5 71.9993C82.5048 71.4682 82.3684 70.9453 82.1049 70.4841C81.8413 70.0229 81.46 69.6399 81 69.3743C80.8267 69.2758 80.6744 69.1442 80.552 68.9868C80.4295 68.8295 80.3392 68.6496 80.2863 68.4574C80.2334 68.2652 80.2188 68.0644 80.2435 67.8666C80.2681 67.6687 80.3315 67.4777 80.43 67.3043C80.5285 67.131 80.6602 66.9787 80.8175 66.8563C80.9748 66.7338 81.1547 66.6435 81.347 66.5906C81.5392 66.5377 81.7399 66.5231 81.9378 66.5478C82.1356 66.5724 82.3267 66.6358 82.5 66.7343C83.3227 67.1874 84.0275 67.8273 84.5577 68.6025C85.088 69.3777 85.4288 70.2666 85.5528 71.1975C85.6769 72.1285 85.5806 73.0756 85.2718 73.9626C84.963 74.8495 84.4504 75.6516 83.775 76.3043L83.64 76.4243C82.5164 77.4662 81.032 78.0309 79.5 77.9993Z" fill="#249FDD"/>
<path d="M81.675 69.5543C81.3789 69.5561 81.0888 69.4701 80.8415 69.3073C80.5941 69.1444 80.4005 68.912 80.285 68.6393C80.1695 68.3666 80.1373 68.0658 80.1925 67.7749C80.2476 67.4839 80.3877 67.2158 80.595 67.0043C80.7268 66.8728 80.8307 66.7159 80.9003 66.5432C80.9699 66.3705 81.0038 66.1855 81 65.9993C81 65.6015 80.842 65.22 80.5607 64.9387C80.2794 64.6573 79.8978 64.4993 79.5 64.4993C79.1022 64.4993 78.7206 64.6573 78.4393 64.9387C78.158 65.22 78 65.6015 78 65.9993C77.9962 66.1855 78.0301 66.3705 78.0997 66.5432C78.1693 66.7159 78.2732 66.8728 78.405 67.0043C78.5429 67.1461 78.6515 67.3137 78.7246 67.4975C78.7977 67.6813 78.8339 67.8777 78.8311 68.0755C78.8284 68.2733 78.7866 68.4686 78.7084 68.6503C78.6301 68.832 78.5168 68.9964 78.375 69.1343C78.2332 69.2722 78.0656 69.3808 77.8818 69.4539C77.698 69.527 77.5016 69.5632 77.3038 69.5605C77.106 69.5577 76.9107 69.5159 76.729 69.4377C76.5474 69.3594 76.3829 69.2461 76.245 69.1043C75.6366 68.467 75.2287 67.665 75.0719 66.798C74.915 65.9309 75.0162 65.0369 75.3628 64.2268C75.7094 63.4168 76.2862 62.7263 77.0217 62.241C77.7572 61.7557 78.6189 61.4971 79.5 61.4971C80.3811 61.4971 81.2429 61.7557 81.9783 62.241C82.7138 62.7263 83.2906 63.4168 83.6372 64.2268C83.9838 65.0369 84.085 65.9309 83.9282 66.798C83.7713 67.665 83.3634 68.467 82.755 69.1043C82.6143 69.2479 82.4462 69.3617 82.2607 69.439C82.0752 69.5163 81.876 69.5555 81.675 69.5543Z" fill="#249FDD"/>
<path d="M28.5 80.9992C28.1086 81.0015 27.7318 80.8508 27.45 80.5792C26.766 79.9062 26.2117 79.113 25.815 78.2392L6.84 35.7592C6.43674 34.86 6.21463 33.8902 6.18637 32.9052C6.15811 31.9201 6.32426 30.9392 6.6753 30.0184C7.02635 29.0976 7.55542 28.255 8.23227 27.5387C8.90913 26.8225 9.72049 26.2467 10.62 25.8442L42.93 11.4142C43.1112 11.3187 43.3099 11.2614 43.5141 11.2456C43.7183 11.2299 43.9235 11.2562 44.1171 11.3228C44.3108 11.3894 44.4887 11.4949 44.64 11.6329C44.7913 11.7708 44.9128 11.9383 44.9969 12.125C45.081 12.3117 45.126 12.5137 45.1291 12.7184C45.1322 12.9232 45.0934 13.1264 45.015 13.3156C44.9366 13.5047 44.8203 13.6758 44.6732 13.8183C44.5262 13.9609 44.3515 14.0717 44.16 14.1442L11.85 28.5742C11.3029 28.8143 10.8091 29.161 10.3974 29.594C9.98575 30.0271 9.66441 30.5377 9.45218 31.0962C9.23994 31.6547 9.14106 32.2499 9.16129 32.8471C9.18151 33.4442 9.32045 34.0313 9.57 34.5742L28.5 76.9792C28.739 77.5372 29.0798 78.0459 29.505 78.4792C29.6989 78.6872 29.8297 78.946 29.8821 79.2255C29.9345 79.5049 29.9064 79.7936 29.8011 80.0577C29.6958 80.3218 29.5175 80.5505 29.2872 80.7172C29.0568 80.8839 28.7838 80.9817 28.5 80.9992Z" fill="white"/>
<path d="M33.315 37.1397C32.9533 37.1438 32.6022 37.017 32.3266 36.7827C32.0509 36.5484 31.8693 36.2224 31.815 35.8647C31.5629 34.6201 31.5274 33.3413 31.71 32.0847C31.9561 30.3966 32.5804 28.786 33.5362 27.373C34.4921 25.96 35.7548 24.7812 37.23 23.9247C37.4601 23.7988 37.7178 23.7318 37.98 23.7297C38.3246 23.7243 38.6605 23.8377 38.9313 24.0508C39.2021 24.264 39.3912 24.5639 39.4669 24.9C39.5426 25.2362 39.5002 25.5882 39.3469 25.8969C39.1936 26.2055 38.9387 26.4519 38.625 26.5947C37.5779 27.2182 36.6822 28.0664 36.0026 29.078C35.323 30.0897 34.8764 31.2395 34.695 32.4447C34.688 32.4743 34.688 32.5051 34.695 32.5347C34.56 33.4827 34.5904 34.447 34.785 35.3847C34.7924 35.4895 34.7924 35.5948 34.785 35.6997C34.7698 36.0819 34.6091 36.4438 34.3359 36.7115C34.0626 36.9792 33.6975 37.1323 33.315 37.1397Z" fill="white"/>
<path d="M24.84 55.4994C24.5515 55.4988 24.2692 55.415 24.0271 55.2581C23.785 55.1011 23.5933 54.8776 23.475 54.6144L16.74 39.6144C16.6637 39.4315 16.6244 39.2352 16.6244 39.0369C16.6244 38.8387 16.6637 38.6424 16.74 38.4594C16.8819 38.0929 17.162 37.7966 17.52 37.6344L32.595 30.8994C32.9189 30.7551 33.2834 30.7302 33.6239 30.829C33.9643 30.9279 34.2588 31.1441 34.455 31.4394C34.6317 31.696 34.7306 31.9981 34.74 32.3094C34.7431 32.6757 34.6121 33.0304 34.3717 33.3067C34.1313 33.583 33.7982 33.7618 33.435 33.8094L20.115 39.8094L25.815 52.5594C26.1759 52.7046 26.4664 52.9842 26.625 53.3394C26.7808 53.7036 26.7862 54.1146 26.64 54.4827C26.4939 54.8508 26.2081 55.1462 25.845 55.3044L25.47 55.4844C25.2629 55.5299 25.049 55.535 24.84 55.4994Z" fill="white"/>
<path d="M28.5 63.0895C28.283 63.088 28.0686 63.042 27.87 62.9545H27.705C25.9599 62.1666 24.5822 60.7411 23.8543 58.9701C23.1264 57.1992 23.1034 55.2169 23.79 53.4295C23.813 53.3188 23.8535 53.2124 23.91 53.1145L31.905 35.2195C31.9011 35.1796 31.9011 35.1394 31.905 35.0995L36.585 24.5995L36.675 24.4195L42.915 10.4995C43.7279 8.68663 45.227 7.27042 47.0831 6.56172C48.9392 5.85303 51.0007 5.90977 52.815 6.71948L85.68 21.4045C86.5795 21.807 87.3909 22.3828 88.0677 23.099C88.7446 23.8152 89.2736 24.6578 89.6247 25.5786C89.9757 26.4994 90.1419 27.4804 90.1136 28.4655C90.0854 29.4505 89.8633 30.4203 89.46 31.3195L81.735 48.6145C81.557 48.9523 81.2569 49.2095 80.8958 49.3336C80.5347 49.4578 80.1399 49.4396 79.7918 49.2828C79.4437 49.1259 79.1685 48.8422 79.0223 48.4895C78.8761 48.1368 78.8699 47.7416 79.005 47.3845L86.73 30.1045C86.9795 29.5616 87.1185 28.9745 87.1387 28.3773C87.1589 27.7802 87.06 27.185 86.8478 26.6265C86.6356 26.068 86.3142 25.5573 85.9026 25.1243C85.4909 24.6913 84.9971 24.3446 84.45 24.1045L51.585 9.46448C50.497 8.98129 49.2618 8.94893 48.15 9.37448C47.5971 9.58542 47.0913 9.90333 46.6615 10.31C46.2316 10.7167 45.8862 11.2041 45.645 11.7445L39.375 25.7845L39.285 25.9645L34.785 36.1495C34.7889 36.1894 34.7889 36.2296 34.785 36.2695L26.775 54.2695C26.773 54.2395 26.773 54.2094 26.775 54.1795C26.757 54.2713 26.7319 54.3615 26.7 54.4495C26.2857 55.5081 26.2874 56.6843 26.7048 57.7416C27.1222 58.799 27.9243 59.6593 28.95 60.1495H29.13C29.5198 60.233 29.8606 60.468 30.0772 60.8028C30.2938 61.1375 30.3685 61.5446 30.285 61.9345C30.2014 62.3244 29.9664 62.6651 29.6317 62.8817C29.2969 63.0983 28.8898 63.173 28.5 63.0895Z" fill="white"/>
<path d="M53.25 49.4993C53.0378 49.4984 52.8282 49.4523 52.635 49.3643L45.135 46.0043C44.9102 45.8931 44.7169 45.7273 44.5728 45.522C44.4286 45.3168 44.3383 45.0787 44.3099 44.8295C44.2816 44.5803 44.3161 44.328 44.4105 44.0956C44.5049 43.8632 44.656 43.6582 44.85 43.4993L52.71 37.7993L52.845 37.7093L59.415 32.9393C59.6323 32.789 59.8855 32.6987 60.1489 32.6776C60.4123 32.6566 60.6766 32.7054 60.915 32.8193C61.1624 32.944 61.3704 33.1347 61.516 33.3703C61.6617 33.606 61.7392 33.8773 61.74 34.1543L63.165 47.9243C63.2048 48.3222 63.0849 48.7195 62.8317 49.0289C62.5786 49.3384 62.2128 49.5346 61.815 49.5743C61.4172 49.6141 61.0199 49.4942 60.7104 49.2411C60.401 48.9879 60.2048 48.6222 60.165 48.2243L58.995 36.8993L54.405 40.2293L54.255 40.3193L48.63 44.3993L53.775 46.7093C54.0473 46.8635 54.2646 47.099 54.3965 47.3828C54.5283 47.6666 54.568 47.9845 54.5102 48.2921C54.4523 48.5996 54.2997 48.8813 54.0737 49.0978C53.8478 49.3143 53.5598 49.4547 53.25 49.4993Z" fill="white"/>
<path d="M53.4 40.4992C51.8485 40.4905 50.3159 40.1585 48.9 39.5242C47.1121 38.7271 45.5631 37.4773 44.4061 35.8983C43.2491 34.3193 42.5242 32.4658 42.3029 30.5208C42.0816 28.5758 42.3716 26.6068 43.1444 24.8082C43.9171 23.0096 45.1457 21.4438 46.7089 20.2655C48.272 19.0872 50.1156 18.3371 52.0573 18.0894C53.9991 17.8418 55.9719 18.105 57.7808 18.8533C59.5897 19.6015 61.1721 20.8087 62.3715 22.3557C63.571 23.9027 64.346 25.7359 64.62 27.6742C64.9368 29.7735 64.6399 31.9197 63.765 33.8542C63.2455 35.0337 62.519 36.1107 61.62 37.0342C61.4887 37.1934 61.3259 37.3237 61.1419 37.4171C60.9579 37.5105 60.7566 37.5649 60.5506 37.577C60.3446 37.589 60.1383 37.5584 59.9447 37.4871C59.751 37.4158 59.5742 37.3053 59.4252 37.1625C59.2762 37.0197 59.1583 36.8477 59.0788 36.6573C58.9993 36.4669 58.96 36.2621 58.9632 36.0557C58.9665 35.8494 59.0123 35.646 59.0978 35.4582C59.1833 35.2703 59.3066 35.1022 59.46 34.9642C60.089 34.2748 60.5962 33.4835 60.96 32.6242C61.5916 31.214 61.805 29.6521 61.575 28.1242C61.3755 26.7018 60.8081 25.3561 59.929 24.2202C59.0498 23.0844 57.8894 22.1978 56.5624 21.648C55.2354 21.0983 53.7879 20.9046 52.363 21.086C50.9382 21.2674 49.5854 21.8176 48.4385 22.6823C47.2916 23.547 46.3903 24.6961 45.8238 26.016C45.2573 27.3359 45.0451 28.7808 45.2084 30.2078C45.3717 31.6349 45.9048 32.9945 46.7548 34.1523C47.6048 35.3101 48.7424 36.226 50.055 36.8092C51.1505 37.3093 52.3463 37.5506 53.55 37.5142C53.9478 37.5142 54.3294 37.6722 54.6107 37.9535C54.892 38.2348 55.05 38.6164 55.05 39.0142C55.05 39.412 54.892 39.7935 54.6107 40.0749C54.3294 40.3562 53.9478 40.5142 53.55 40.5142L53.4 40.4992Z" fill="white"/>
<path d="M60.3 35.5947C59.9022 35.5947 59.5206 35.4367 59.2393 35.1554C58.958 34.8741 58.8 34.4926 58.8 34.0947C58.8 33.7981 58.888 33.508 59.0528 33.2614C59.2176 33.0147 59.4519 32.8224 59.726 32.7089C60.0001 32.5954 60.3017 32.5657 60.5926 32.6235C60.8836 32.6814 61.1509 32.8243 61.3606 33.0341C61.5704 33.2438 61.7133 33.5111 61.7712 33.8021C61.829 34.0931 61.7993 34.3947 61.6858 34.6688C61.5723 34.9428 61.38 35.1771 61.1333 35.3419C60.8867 35.5068 60.5967 35.5947 60.3 35.5947Z" fill="white"/>
<path d="M67.965 49.4999C67.7527 49.4989 67.5431 49.4529 67.35 49.3649L60.825 46.4999C60.4872 46.3219 60.23 46.0217 60.1058 45.6607C59.9817 45.2996 59.9998 44.9048 60.1567 44.5567C60.3135 44.2086 60.5972 43.9334 60.95 43.7872C61.3027 43.641 61.6979 43.6348 62.055 43.7699L68.58 46.6799C68.8679 46.8338 69.0978 47.0775 69.2346 47.3739C69.3715 47.6703 69.4079 48.0033 69.3384 48.3223C69.2688 48.6413 69.097 48.9289 68.8492 49.1414C68.6013 49.354 68.2909 49.4798 67.965 49.4999Z" fill="white"/>
<path d="M72.165 49.4993C71.9528 49.4983 71.7431 49.4523 71.55 49.3643C71.1885 49.2006 70.9066 48.9003 70.766 48.5292C70.6255 48.1581 70.6377 47.7464 70.8 47.3843L76.215 35.2493L62.715 29.2493L62.355 29.1143C62.0068 28.9371 61.7415 28.6311 61.6154 28.2613C61.4893 27.8916 61.5125 27.4872 61.68 27.1343C61.8543 26.791 62.154 26.5278 62.517 26.3994C62.88 26.2709 63.2785 26.287 63.63 26.4443L78.63 33.1793C78.9915 33.343 79.2734 33.6432 79.414 34.0144C79.5545 34.3855 79.5423 34.7971 79.38 35.1593L73.38 48.6593C73.2672 48.8922 73.096 49.092 72.8831 49.2392C72.6701 49.3864 72.4228 49.476 72.165 49.4993Z" fill="white"/>
</svg>
