<svg width="96" height="96" viewBox="0 0 96 96" fill="none" xmlns="http://www.w3.org/2000/svg">
<path d="M65.9999 90H52.4999C50.5108 90 48.6032 89.2098 47.1966 87.8033C45.7901 86.3968 44.9999 84.4891 44.9999 82.5C44.9999 80.5109 45.7901 78.6032 47.1966 77.1967C48.6032 75.7902 50.5108 75 52.4999 75H61.4999C61.8978 75 62.2793 75.158 62.5606 75.4393C62.8419 75.7206 62.9999 76.1022 62.9999 76.5C62.9999 76.8978 62.8419 77.2794 62.5606 77.5607C62.2793 77.842 61.8978 78 61.4999 78H52.4999C51.3065 78 50.1619 78.4741 49.318 79.318C48.474 80.1619 47.9999 81.3065 47.9999 82.5C47.9999 83.6935 48.474 84.8381 49.318 85.682C50.1619 86.5259 51.3065 87 52.4999 87H65.9999C67.1934 87 68.338 86.5259 69.1819 85.682C70.0258 84.8381 70.4999 83.6935 70.4999 82.5C70.5004 82.1209 70.455 81.7432 70.3649 81.375C70.2973 81.1794 70.2709 80.9718 70.2874 80.7655C70.3039 80.5592 70.3629 80.3585 70.4607 80.1761C70.5586 79.9936 70.6931 79.8334 70.8559 79.7055C71.0186 79.5776 71.2061 79.4848 71.4065 79.4329C71.6068 79.381 71.8158 79.3711 72.0202 79.4039C72.2246 79.4367 72.42 79.5114 72.594 79.6234C72.7681 79.7354 72.9172 79.8821 73.0318 80.0545C73.1464 80.2269 73.2241 80.4211 73.2599 80.625C73.4216 81.2368 73.5023 81.8672 73.4999 82.5C73.4999 84.4891 72.7098 86.3968 71.3032 87.8033C69.8967 89.2098 67.9891 90 65.9999 90Z" fill="#249FDD"/>
<path d="M82.5 90H73.5C73.1022 90 72.7206 89.842 72.4393 89.5607C72.158 89.2794 72 88.8978 72 88.5C72 88.1022 72.158 87.7206 72.4393 87.4393C72.7206 87.158 73.1022 87 73.5 87H82.5C83.6935 87 84.8381 86.5259 85.682 85.682C86.5259 84.8381 87 83.6935 87 82.5C87 81.3065 86.5259 80.1619 85.682 79.318C84.8381 78.4741 83.6935 78 82.5 78H69C67.8065 78 66.6619 78.4741 65.818 79.318C64.9741 80.1619 64.5 81.3065 64.5 82.5C64.4996 82.8791 64.5449 83.2568 64.635 83.625C64.7026 83.8206 64.729 84.0282 64.7125 84.2345C64.696 84.4408 64.637 84.6415 64.5392 84.8239C64.4414 85.0064 64.3068 85.1666 64.1441 85.2945C63.9813 85.4224 63.7939 85.5152 63.5935 85.5671C63.3931 85.619 63.1841 85.6289 62.9798 85.5961C62.7754 85.5633 62.58 85.4886 62.4059 85.3766C62.2318 85.2646 62.0827 85.1179 61.9681 84.9455C61.8535 84.7731 61.7759 84.5789 61.74 84.375C61.5783 83.7632 61.4976 83.1328 61.5 82.5C61.5 80.5109 62.2902 78.6032 63.6967 77.1967C65.1032 75.7902 67.0109 75 69 75H82.5C84.4891 75 86.3968 75.7902 87.8033 77.1967C89.2098 78.6032 90 80.5109 90 82.5C90 84.4891 89.2098 86.3968 87.8033 87.8033C86.3968 89.2098 84.4891 90 82.5 90Z" fill="#249FDD"/>
<path d="M40.7849 81.3745C40.53 81.375 40.2792 81.3105 40.0561 81.1872C39.833 81.0638 39.6451 80.8856 39.5099 80.6695C36.2437 76.4788 34.4794 71.3126 34.4999 65.9995C34.485 65.8148 34.485 65.6292 34.4999 65.4445C34.5936 59.2323 37.1122 53.303 41.518 48.9225C45.9237 44.542 51.8674 42.0575 58.0799 41.9995C58.4039 41.9624 58.731 41.9624 59.0549 41.9995C65.2671 42.0932 71.1964 44.6118 75.5769 49.0175C79.9574 53.4232 82.4419 59.3669 82.5 65.5795C82.5104 65.7193 82.5104 65.8597 82.5 65.9995C82.5008 67.6115 82.3399 69.2195 82.0199 70.7995C81.9404 71.1973 81.706 71.5472 81.3685 71.7723C81.0309 71.9973 80.6178 72.079 80.2199 71.9995C79.8221 71.9199 79.4722 71.6856 79.2472 71.348C79.0221 71.0104 78.9404 70.5973 79.0199 70.1995C79.3253 68.8199 79.4862 67.4123 79.4999 65.9995V65.7745C79.4422 60.3058 77.2532 55.0754 73.3987 51.1956C69.5442 47.3159 64.3281 45.0929 58.86 44.9995H58.2749C52.8063 45.0573 47.5759 47.2462 43.6961 51.1007C39.8164 54.9553 37.5934 60.1713 37.4999 65.6395C37.4999 65.8495 37.4999 65.9245 37.4999 65.9995C37.4864 70.6957 39.0736 75.2564 41.9999 78.9295C42.1796 79.1509 42.2925 79.4189 42.3252 79.7022C42.358 79.9855 42.3094 80.2722 42.185 80.5288C42.0606 80.7854 41.8657 81.0013 41.623 81.151C41.3804 81.3008 41.1001 81.3783 40.8149 81.3745H40.7849Z" fill="#249FDD"/>
<path d="M48.285 72.7801C47.8871 72.7801 47.5056 72.6221 47.2243 72.3408C46.943 72.0595 46.785 71.6779 46.785 71.2801C46.5983 69.5262 46.5031 67.7639 46.5 66.0001C46.4825 62.6928 46.8245 59.3935 47.52 56.1601C49.35 47.8051 53.355 42.3751 58.02 42.0151C58.374 41.978 58.7309 41.978 59.085 42.0151C63.675 42.3601 67.68 47.7901 69.585 56.1601C70.2471 59.397 70.5539 62.6966 70.5 66.0001C70.5 67.5001 70.5 69.1051 70.29 70.6501C70.2722 70.8471 70.2159 71.0386 70.1241 71.2139C70.0324 71.3891 69.907 71.5445 69.7552 71.6712C69.6033 71.798 69.428 71.8936 69.2393 71.9526C69.0505 72.0116 68.8519 72.0328 68.655 72.0151C68.458 71.9974 68.2664 71.941 68.0912 71.8493C67.916 71.7575 67.7606 71.6321 67.6338 71.4803C67.5071 71.3285 67.4115 71.1532 67.3525 70.9644C67.2935 70.7756 67.2722 70.5771 67.29 70.3801C67.5 69.0001 67.5 67.5001 67.5 66.0001C67.5235 62.9139 67.2015 59.8347 66.54 56.8201C65.04 49.9951 61.935 45.2551 58.77 45.0151H58.275C55.065 45.2701 51.945 50.0101 50.46 56.8201C49.8003 59.835 49.4783 62.914 49.5 66.0001C49.5022 67.7036 49.5923 69.4059 49.77 71.1001C49.7774 71.1549 49.7774 71.2103 49.77 71.2651C49.7719 71.4621 49.7351 71.6575 49.6615 71.8403C49.588 72.023 49.4792 72.1895 49.3413 72.3302C49.2034 72.4709 49.0391 72.583 48.8579 72.6602C48.6766 72.7374 48.482 72.7781 48.285 72.7801Z" fill="#249FDD"/>
<path d="M44.025 75.5249C43.8398 75.5265 43.6561 75.4908 43.485 75.4199C37.77 73.1999 34.485 69.7649 34.485 65.9999C34.4701 65.8152 34.4701 65.6296 34.485 65.4449C34.83 60.8549 40.26 56.8499 48.63 54.9449C55.1144 53.5848 61.8106 53.5848 68.295 54.9449C76.65 56.7749 82.08 60.7799 82.44 65.4449C82.44 65.5949 82.44 65.7599 82.44 65.9549C82.4081 67.0116 82.16 68.0505 81.7111 69.0076C81.2622 69.9647 80.622 70.8198 79.83 71.5199C79.5413 71.7638 79.1713 71.8897 78.7938 71.8725C78.4163 71.8553 78.0592 71.6962 77.7939 71.4272C77.5286 71.1581 77.3746 70.7988 77.3628 70.4211C77.3509 70.0434 77.4821 69.6751 77.73 69.3899C78.237 68.9722 78.6549 68.4569 78.959 67.8745C79.263 67.2922 79.447 66.6547 79.5 65.9999V65.7749C79.245 62.5649 74.505 59.4449 67.695 57.9599C64.6752 57.2991 61.5912 56.9771 58.5 56.9999C55.4138 56.9764 52.3346 57.2984 49.32 57.9599C42.495 59.4599 37.755 62.5649 37.515 65.7299C37.5037 65.8195 37.4986 65.9097 37.5 65.9999C37.5 68.4299 40.14 70.9049 44.565 72.6299C44.8888 72.7579 45.158 72.9945 45.3265 73.2992C45.495 73.6039 45.5522 73.9578 45.4883 74.3C45.4245 74.6423 45.2436 74.9517 44.9766 75.1752C44.7096 75.3987 44.3732 75.5223 44.025 75.5249Z" fill="#249FDD"/>
<path d="M32.685 82.6499C31.2267 82.6389 29.8023 82.2089 28.5816 81.411C27.3609 80.6132 26.3953 79.4812 25.8 78.1499L6.83997 35.7449C6.03025 33.9306 5.97351 31.8691 6.68221 30.013C7.3909 28.1569 8.80711 26.6579 10.62 25.8449L40.875 12.3449C41.2077 12.2735 41.5548 12.3174 41.8594 12.4693C42.1639 12.6212 42.4077 12.8722 42.5507 13.181C42.6938 13.4898 42.7276 13.838 42.6466 14.1686C42.5656 14.4991 42.3746 14.7923 42.105 14.9999L11.85 28.4999C11.3029 28.7401 10.8091 29.0868 10.3974 29.5198C9.98571 29.9528 9.66438 30.4634 9.45214 31.0219C9.23991 31.5805 9.14102 32.1756 9.16125 32.7728C9.18148 33.3699 9.32042 33.957 9.56997 34.4999L28.5 76.9799C28.9367 77.9732 29.7176 78.7752 30.6989 79.2382C31.6801 79.7013 32.7956 79.7942 33.84 79.4999C34.036 79.4242 34.2457 79.3905 34.4556 79.401C34.6655 79.4116 34.8708 79.4661 35.0582 79.561C35.2457 79.656 35.4111 79.7893 35.5438 79.9522C35.6764 80.1152 35.7733 80.3042 35.8283 80.507C35.8832 80.7099 35.8949 80.922 35.8626 81.1296C35.8303 81.3372 35.7548 81.5358 35.6409 81.7124C35.527 81.8889 35.3772 82.0396 35.2013 82.1546C35.0255 82.2696 34.8274 82.3464 34.62 82.3799C33.9905 82.5587 33.3393 82.6496 32.685 82.6499Z" fill="white"/>
<path d="M25.11 34.0194C24.8172 34.0204 24.5306 33.9358 24.2854 33.7758C24.0402 33.6159 23.8471 33.3877 23.73 33.1194C23.6501 32.9392 23.6065 32.745 23.6017 32.5479C23.5969 32.3508 23.631 32.1547 23.7021 31.9708C23.7731 31.7869 23.8797 31.6189 24.0158 31.4762C24.1518 31.3335 24.3147 31.2191 24.495 31.1394L36.81 25.6344C36.9902 25.5537 37.1846 25.5092 37.382 25.5035C37.5795 25.4979 37.7761 25.5312 37.9606 25.6015C38.1452 25.6719 38.3141 25.7779 38.4577 25.9135C38.6013 26.0491 38.7167 26.2117 38.7975 26.3919C38.8783 26.5722 38.9227 26.7665 38.9284 26.964C38.934 27.1614 38.9007 27.358 38.8304 27.5426C38.76 27.7271 38.654 27.896 38.5184 28.0396C38.3828 28.1832 38.2202 28.2987 38.04 28.3794L25.71 33.8844C25.5215 33.9704 25.3172 34.0163 25.11 34.0194Z" fill="white"/>
<path d="M24.6599 44.0694C24.314 44.0785 23.9756 43.9677 23.7021 43.7558C23.4286 43.5438 23.2367 43.2439 23.159 42.9067C23.0813 42.5695 23.1226 42.2158 23.2759 41.9056C23.4291 41.5953 23.6849 41.3476 23.9999 41.2044L34.1699 36.7044C34.5271 36.5694 34.9223 36.5755 35.275 36.7217C35.6277 36.8679 35.9114 37.1431 36.0682 37.4913C36.2251 37.8394 36.2433 38.2342 36.1191 38.5953C35.9949 38.9563 35.7377 39.2564 35.3999 39.4344L25.2299 43.9344C25.0507 44.0165 24.857 44.0623 24.6599 44.0694Z" fill="white"/>
<path d="M28.335 52.2745C27.993 52.2729 27.6619 52.1546 27.3964 51.939C27.1309 51.7235 26.947 51.4237 26.8753 51.0894C26.8035 50.755 26.8481 50.4062 27.0018 50.1007C27.1554 49.7951 27.4088 49.5513 27.72 49.4095L31.155 47.9095C31.5121 47.7744 31.9073 47.7806 32.26 47.9268C32.6127 48.073 32.8964 48.3482 33.0533 48.6963C33.2101 49.0444 33.2283 49.4393 33.1041 49.8003C32.98 50.1614 32.7228 50.4615 32.385 50.6395L28.95 52.1395C28.7568 52.2275 28.5472 52.2735 28.335 52.2745Z" fill="white"/>
<path d="M30.375 62.9999C30.1161 63.0014 29.8613 62.9359 29.6352 62.8097C29.4092 62.6836 29.2196 62.501 29.085 62.2799C28.5565 61.4095 28.2109 60.4406 28.069 59.4323C27.9272 58.424 27.9922 57.3973 28.26 56.4149L40.5 11.5049C40.7589 10.5544 41.2024 9.66412 41.8054 8.88505C42.4084 8.10598 43.159 7.45334 44.0143 6.96442C44.8695 6.47549 45.8128 6.15985 46.7901 6.03554C47.7673 5.91122 48.7595 5.98067 49.71 6.2399L84.465 15.7499C85.4099 16.0036 86.2947 16.4435 87.0674 17.0436C87.8402 17.6438 88.4853 18.3922 88.965 19.2449C89.4562 20.1 89.774 21.0436 89.9001 22.0217C90.0263 22.9998 89.9582 23.9931 89.7 24.9449L82.965 49.6349C82.851 50.0067 82.597 50.3198 82.2567 50.508C81.9163 50.6961 81.5162 50.7448 81.1406 50.6436C80.7651 50.5424 80.4436 50.2993 80.2438 49.9656C80.0441 49.6319 79.9817 49.2337 80.07 48.8549L86.85 24.1649C87.0058 23.5942 87.0476 22.9984 86.973 22.4116C86.8983 21.8247 86.7087 21.2584 86.415 20.7449C86.1241 20.2296 85.7325 19.7781 85.2635 19.4174C84.7945 19.0566 84.2576 18.7939 83.685 18.6449L48.975 9.1199C47.8275 8.82187 46.6088 8.9887 45.5836 9.58414C44.5585 10.1796 43.8097 11.1555 43.5 12.2999L31.155 57.1349C30.9957 57.7262 30.9587 58.3439 31.0464 58.95C31.1341 59.5561 31.3446 60.138 31.665 60.6599C31.7684 60.829 31.8373 61.017 31.8676 61.2129C31.898 61.4088 31.8892 61.6088 31.8417 61.8013C31.7943 61.9938 31.7092 62.1749 31.5913 62.3343C31.4735 62.4937 31.3251 62.6282 31.155 62.7299C30.923 62.8864 30.6541 62.9794 30.375 62.9999Z" fill="white"/>
<path d="M71.19 26.0398C71.0554 26.0546 70.9196 26.0546 70.785 26.0398L57.765 22.4998C57.5748 22.4478 57.3968 22.3587 57.241 22.2378C57.0853 22.1168 56.955 21.9664 56.8575 21.795C56.7599 21.6237 56.6972 21.4347 56.6727 21.2391C56.6483 21.0435 56.6626 20.8449 56.715 20.6548C56.7559 20.4616 56.8347 20.2783 56.9466 20.1156C57.0586 19.9528 57.2016 19.8138 57.3675 19.7065C57.5334 19.5991 57.7188 19.5256 57.9131 19.4902C58.1075 19.4547 58.3069 19.458 58.5 19.4998L71.52 23.0698C71.717 23.0954 71.907 23.1596 72.0791 23.2586C72.2513 23.3577 72.4023 23.4897 72.5235 23.6471C72.6447 23.8044 72.7337 23.9842 72.7854 24.176C72.8371 24.3677 72.8506 24.5678 72.825 24.7648C72.7994 24.9618 72.7352 25.1518 72.6362 25.324C72.5371 25.4962 72.4051 25.6472 72.2477 25.7684C72.0903 25.8896 71.9106 25.9785 71.7188 26.0303C71.5271 26.082 71.3269 26.0954 71.13 26.0698L71.19 26.0398Z" fill="white"/>
<path d="M73.1549 35.9101C73.0203 35.9248 72.8845 35.9248 72.7499 35.9101L50.9999 30.0001C50.6021 29.8887 50.2648 29.6238 50.0623 29.2638C49.8598 28.9037 49.8085 28.4779 49.9199 28.0801C50.0313 27.6823 50.2962 27.345 50.6563 27.1424C51.0163 26.9399 51.4421 26.8887 51.8399 27.0001L73.4999 33.0001C73.8978 33.0518 74.2587 33.2594 74.5035 33.5773C74.7482 33.8952 74.8567 34.2973 74.8049 34.6951C74.7532 35.0929 74.5456 35.4539 74.2277 35.6986C73.9098 35.9434 73.5078 36.0518 73.1099 36.0001L73.1549 35.9101Z" fill="white"/>
<path d="M52.5899 39.6153C52.4604 39.6308 52.3295 39.6308 52.1999 39.6153L48.6749 38.6403C48.2871 38.5309 47.9585 38.2719 47.7616 37.9202C47.5647 37.5686 47.5155 37.1531 47.6249 36.7653C47.7343 36.3774 47.9933 36.0489 48.345 35.8519C48.6966 35.655 49.1121 35.6059 49.4999 35.7153L53.0249 36.6753C53.4057 36.7806 53.7295 37.0318 53.9261 37.3745C54.1226 37.7171 54.1761 38.1234 54.0749 38.5053C53.9876 38.8299 53.7938 39.1159 53.5245 39.3172C53.2552 39.5185 52.9261 39.6234 52.5899 39.6153Z" fill="white"/>
</svg>
