<svg width="96" height="96" viewBox="0 0 96 96" fill="none" xmlns="http://www.w3.org/2000/svg">
<path d="M81 75H72C71.6022 75 71.2206 74.842 70.9393 74.5607C70.658 74.2794 70.5 73.8978 70.5 73.5C70.5 73.1022 70.658 72.7206 70.9393 72.4393C71.2206 72.158 71.6022 72 72 72H79.5V60C79.5 56.8174 78.2357 53.7652 75.9853 51.5147C73.7348 49.2643 70.6826 48 67.5 48C64.3174 48 61.2652 49.2643 59.0147 51.5147C56.7643 53.7652 55.5 56.8174 55.5 60V72H63C63.3978 72 63.7794 72.158 64.0607 72.4393C64.342 72.7206 64.5 73.1022 64.5 73.5C64.5 73.8978 64.342 74.2794 64.0607 74.5607C63.7794 74.842 63.3978 75 63 75H54C53.6022 75 53.2206 74.842 52.9393 74.5607C52.658 74.2794 52.5 73.8978 52.5 73.5V60C52.5 56.0218 54.0804 52.2064 56.8934 49.3934C59.7064 46.5804 63.5218 45 67.5 45C71.4782 45 75.2936 46.5804 78.1066 49.3934C80.9196 52.2064 82.5 56.0218 82.5 60V73.5C82.5 73.8978 82.342 74.2794 82.0607 74.5607C81.7794 74.842 81.3978 75 81 75Z" fill="#249FDD"/>
<path d="M67.5 76.5C65.1131 76.5 62.8239 75.5518 61.136 73.864C59.4482 72.1761 58.5 69.8869 58.5 67.5V60C58.5 57.6131 59.4482 55.3239 61.136 53.636C62.8239 51.9482 65.1131 51 67.5 51C69.8869 51 72.1761 51.9482 73.864 53.636C75.5518 55.3239 76.5 57.6131 76.5 60V67.5C76.5 69.8869 75.5518 72.1761 73.864 73.864C72.1761 75.5518 69.8869 76.5 67.5 76.5ZM67.5 54C65.9087 54 64.3826 54.6321 63.2574 55.7574C62.1321 56.8826 61.5 58.4087 61.5 60V67.5C61.5 69.0913 62.1321 70.6174 63.2574 71.7426C64.3826 72.8679 65.9087 73.5 67.5 73.5C69.0913 73.5 70.6174 72.8679 71.7426 71.7426C72.8679 70.6174 73.5 69.0913 73.5 67.5V60C73.5 58.4087 72.8679 56.8826 71.7426 55.7574C70.6174 54.6321 69.0913 54 67.5 54Z" fill="#249FDD"/>
<path d="M75.75 61.5H59.25C58.8522 61.5 58.4706 61.342 58.1893 61.0607C57.908 60.7794 57.75 60.3978 57.75 60C57.75 59.6022 57.908 59.2206 58.1893 58.9393C58.4706 58.658 58.8522 58.5 59.25 58.5H75.75C76.1478 58.5 76.5294 58.658 76.8107 58.9393C77.092 59.2206 77.25 59.6022 77.25 60C77.25 60.3978 77.092 60.7794 76.8107 61.0607C76.5294 61.342 76.1478 61.5 75.75 61.5Z" fill="#249FDD"/>
<path d="M67.86 81.5702C66.6413 81.5662 65.4739 81.0793 64.6135 80.2161C63.7531 79.3529 63.27 78.1839 63.27 76.9652V74.4902C63.27 74.0923 63.4281 73.7108 63.7094 73.4295C63.9907 73.1482 64.3722 72.9902 64.77 72.9902C65.1678 72.9902 65.5494 73.1482 65.8307 73.4295C66.112 73.7108 66.27 74.0923 66.27 74.4902V76.9652C66.27 77.174 66.3111 77.3807 66.3911 77.5736C66.471 77.7665 66.5881 77.9418 66.7357 78.0895C66.8834 78.2371 67.0586 78.3542 67.2516 78.4341C67.4445 78.514 67.6512 78.5552 67.86 78.5552C68.0688 78.5552 68.2756 78.514 68.4685 78.4341C68.6614 78.3542 68.8367 78.2371 68.9843 78.0895C69.132 77.9418 69.2491 77.7665 69.329 77.5736C69.4089 77.3807 69.45 77.174 69.45 76.9652V74.1602C69.45 73.7623 69.6081 73.3808 69.8894 73.0995C70.1707 72.8182 70.5522 72.6602 70.95 72.6602C71.3478 72.6602 71.7294 72.8182 72.0107 73.0995C72.292 73.3808 72.45 73.7623 72.45 74.1602V76.9652C72.45 78.1839 71.9669 79.3529 71.1066 80.2161C70.2462 81.0793 69.0787 81.5662 67.86 81.5702Z" fill="#249FDD"/>
<path d="M86.25 90.0007H50.25C49.8522 90.0007 49.4707 89.8426 49.1893 89.5613C48.908 89.28 48.75 88.8985 48.75 88.5007C48.748 86.9491 49.0519 85.4125 49.6443 83.9785C50.2367 82.5445 51.1059 81.2414 52.2023 80.1436C53.2987 79.0458 54.6007 78.1749 56.034 77.5807C57.4672 76.9865 59.0035 76.6807 60.555 76.6807H64.77C65.1678 76.6807 65.5494 76.8387 65.8307 77.12C66.112 77.4013 66.27 77.7828 66.27 78.1807C66.27 78.5785 66.112 78.96 65.8307 79.2413C65.5494 79.5226 65.1678 79.6807 64.77 79.6807H60.555C59.397 79.678 58.2501 79.906 57.1813 80.3516C56.1125 80.7972 55.1432 81.4512 54.33 82.2757C53.0418 83.5589 52.1825 85.2094 51.87 87.0007H84.63C84.2738 84.9542 83.208 83.0987 81.6197 81.7601C80.0314 80.4214 78.0222 79.6852 75.945 79.6807H70.95C70.5522 79.6807 70.1707 79.5226 69.8893 79.2413C69.608 78.96 69.45 78.5785 69.45 78.1807C69.45 77.7828 69.608 77.4013 69.8893 77.12C70.1707 76.8387 70.5522 76.6807 70.95 76.6807H75.945C79.0773 76.6846 82.0799 77.9317 84.2933 80.148C86.5068 82.3642 87.75 85.3684 87.75 88.5007C87.75 88.8985 87.592 89.28 87.3107 89.5613C87.0294 89.8426 86.6478 90.0007 86.25 90.0007Z" fill="#249FDD"/>
<path d="M88.5 64.5H85.5C85.1022 64.5 84.7206 64.342 84.4393 64.0607C84.158 63.7794 84 63.3978 84 63C84 62.6022 84.158 62.2206 84.4393 61.9393C84.7206 61.658 85.1022 61.5 85.5 61.5H87V59.37C87 49.785 78.705 42 68.52 42H66.48C56.295 42 48 49.785 48 59.37V61.5H49.5C49.8978 61.5 50.2794 61.658 50.5607 61.9393C50.842 62.2206 51 62.6022 51 63C51 63.3978 50.842 63.7794 50.5607 64.0607C50.2794 64.342 49.8978 64.5 49.5 64.5H46.5C46.1022 64.5 45.7206 64.342 45.4393 64.0607C45.158 63.7794 45 63.3978 45 63V59.37C45 48.135 54.63 39 66.48 39H68.52C80.37 39 90 48.135 90 59.37V63C90 63.3978 89.842 63.7794 89.5607 64.0607C89.2794 64.342 88.8978 64.5 88.5 64.5Z" fill="#249FDD"/>
<path d="M49.5 66C49.1022 66 48.7206 65.842 48.4393 65.5607C48.158 65.2794 48 64.8978 48 64.5V61.5C48 61.1022 48.158 60.7206 48.4393 60.4393C48.7206 60.158 49.1022 60 49.5 60C49.8978 60 50.2794 60.158 50.5607 60.4393C50.842 60.7206 51 61.1022 51 61.5V64.5C51 64.8978 50.842 65.2794 50.5607 65.5607C50.2794 65.842 49.8978 66 49.5 66Z" fill="#249FDD"/>
<path d="M85.5 66C85.1022 66 84.7206 65.842 84.4393 65.5607C84.158 65.2794 84 64.8978 84 64.5V61.5C84 61.1022 84.158 60.7206 84.4393 60.4393C84.7206 60.158 85.1022 60 85.5 60C85.8978 60 86.2794 60.158 86.5607 60.4393C86.842 60.7206 87 61.1022 87 61.5V64.5C87 64.8978 86.842 65.2794 86.5607 65.5607C86.2794 65.842 85.8978 66 85.5 66Z" fill="#249FDD"/>
<path d="M32.67 82.6507C31.2139 82.647 29.7903 82.2196 28.5731 81.4205C27.3558 80.6214 26.3974 79.4853 25.815 78.1507L6.84 35.7607C6.43674 34.8616 6.21463 33.8917 6.18637 32.9067C6.15811 31.9216 6.32426 30.9407 6.6753 30.0199C7.02635 29.0991 7.55542 28.2565 8.23227 27.5403C8.90913 26.824 9.72049 26.2482 10.62 25.8457L42 11.8507C42.1812 11.7553 42.3799 11.6979 42.5841 11.6822C42.7883 11.6664 42.9935 11.6927 43.1871 11.7593C43.3808 11.8259 43.5587 11.9314 43.71 12.0694C43.8613 12.2074 43.9828 12.3749 44.0669 12.5616C44.151 12.7483 44.196 12.9502 44.1991 13.1549C44.2022 13.3597 44.1634 13.5629 44.085 13.7521C44.0066 13.9412 43.8903 14.1124 43.7432 14.2549C43.5962 14.3974 43.4215 14.5083 43.23 14.5807L11.85 28.5757C11.3029 28.8159 10.8091 29.1626 10.3974 29.5956C9.98575 30.0286 9.66441 30.5392 9.45218 31.0977C9.23994 31.6563 9.14106 32.2514 9.16129 32.8486C9.18151 33.4457 9.32045 34.0328 9.57 34.5757L28.5 76.9807C28.7401 77.5278 29.0868 78.0216 29.5198 78.4333C29.9529 78.845 30.4635 79.1663 31.022 79.3785C31.5805 79.5908 32.1757 79.6897 32.7729 79.6694C33.37 79.6492 33.9571 79.5103 34.5 79.2607L47.385 73.5007C47.5662 73.4053 47.7649 73.3479 47.9691 73.3322C48.1733 73.3164 48.3785 73.3427 48.5721 73.4093C48.7658 73.4759 48.9437 73.5814 49.095 73.7194C49.2463 73.8574 49.3678 74.0249 49.4519 74.2116C49.536 74.3983 49.581 74.6002 49.5841 74.8049C49.5872 75.0097 49.5484 75.2129 49.47 75.4021C49.3916 75.5912 49.2753 75.7624 49.1282 75.9049C48.9812 76.0474 48.8065 76.1583 48.615 76.2307L35.715 81.9907C34.759 82.4262 33.7206 82.6513 32.67 82.6507Z" fill="white"/>
<path d="M22.245 42.3154C21.9539 42.3177 21.6684 42.2353 21.4234 42.0781C21.1784 41.921 20.9843 41.696 20.865 41.4304C20.5724 40.7466 20.4709 39.9961 20.5713 39.2591C20.6717 38.5221 20.9702 37.8261 21.435 37.2454C21.6177 37.002 21.722 36.7088 21.7341 36.4047C21.7462 36.1006 21.6655 35.8 21.5027 35.5429C21.34 35.2857 21.1029 35.0842 20.8228 34.965C20.5428 34.8457 20.2332 34.8145 19.935 34.8754C19.7192 34.9255 19.5171 35.0228 19.3433 35.1602C19.1696 35.2977 19.0284 35.4719 18.93 35.6704C18.8363 35.8699 18.7878 36.0876 18.7878 36.3079C18.7878 36.5283 18.8363 36.746 18.93 36.9454C19.0108 37.1257 19.0552 37.3201 19.0609 37.5175C19.0665 37.7149 19.0332 37.9115 18.9629 38.0961C18.8925 38.2806 18.7865 38.4495 18.6509 38.5931C18.5153 38.7367 18.3527 38.8522 18.1725 38.9329C17.9923 39.0137 17.7979 39.0582 17.6005 39.0638C17.403 39.0695 17.2064 39.0362 17.0219 38.9658C16.8373 38.8955 16.6684 38.7895 16.5248 38.6539C16.3812 38.5183 16.2658 38.3557 16.185 38.1754C15.8597 37.451 15.7319 36.6534 15.8146 35.8636C15.8972 35.0737 16.1874 34.3199 16.6557 33.6785C17.124 33.0371 17.7537 32.5311 18.4808 32.2118C19.2079 31.8925 20.0065 31.7713 20.7957 31.8605C21.5848 31.9497 22.3362 32.2462 22.9737 32.7198C23.6111 33.1933 24.1119 33.8272 24.4252 34.5569C24.7385 35.2867 24.853 36.0863 24.7573 36.8746C24.6615 37.663 24.3588 38.4119 23.88 39.0454C23.7463 39.2024 23.6565 39.3919 23.6197 39.5947C23.5828 39.7975 23.6002 40.0065 23.67 40.2004C23.8323 40.5626 23.8445 40.9742 23.704 41.3454C23.5634 41.7165 23.2815 42.0167 22.92 42.1804C22.7085 42.2772 22.4774 42.3234 22.245 42.3154Z" fill="white"/>
<path d="M24 46.2456H23.7L23.415 46.1556L23.16 46.0206C23.0782 45.9638 23.0028 45.8984 22.935 45.8256C22.6579 45.5462 22.5016 45.1691 22.5 44.7756C22.4956 44.5756 22.5313 44.3767 22.605 44.1906C22.6826 44.0106 22.7947 43.8475 22.935 43.7106C23.0028 43.6378 23.0782 43.5724 23.16 43.5156L23.415 43.3806L23.7 43.2906C24.0409 43.2227 24.3949 43.2753 24.7013 43.4395C25.0077 43.6037 25.2476 43.8692 25.38 44.1906C25.4588 44.3756 25.4996 44.5745 25.5 44.7756C25.5 45.1734 25.342 45.555 25.0607 45.8363C24.7793 46.1176 24.3978 46.2756 24 46.2756V46.2456Z" fill="white"/>
<path d="M25.98 58.035C25.6915 58.0344 25.4092 57.9506 25.1671 57.7936C24.925 57.6366 24.7333 57.4132 24.615 57.15C24.3685 56.6136 24.2322 56.0332 24.2142 55.4431C24.1961 54.8531 24.2967 54.2654 24.51 53.715C24.733 53.1483 25.0686 52.6328 25.4966 52.1996C25.9246 51.7665 26.4361 51.4247 27 51.195C27.1826 51.0896 27.3853 51.0239 27.595 51.0022C27.8046 50.9804 28.0165 51.0031 28.2168 51.0687C28.4171 51.1343 28.6014 51.2414 28.7575 51.383C28.9137 51.5246 29.0382 51.6976 29.123 51.8905C29.2078 52.0835 29.251 52.2922 29.2498 52.503C29.2486 52.7138 29.2029 52.9219 29.1158 53.1139C29.0287 53.3058 28.9022 53.4773 28.7444 53.617C28.5866 53.7568 28.4011 53.8617 28.2 53.925C27.8277 54.0994 27.5374 54.4112 27.39 54.795C27.2441 55.1558 27.2441 55.5592 27.39 55.92C27.5523 56.2821 27.5646 56.6938 27.424 57.0649C27.2834 57.436 27.0015 57.7363 26.64 57.9C26.4331 57.9944 26.2074 58.0406 25.98 58.035Z" fill="white"/>
<path d="M32.475 65.2206C32.0779 65.2151 31.6975 65.0597 31.41 64.7856C31.271 64.6455 31.161 64.4792 31.0863 64.2965C31.0117 64.1137 30.9739 63.918 30.975 63.7206C30.9774 63.5246 31.0181 63.3309 31.095 63.1506C31.1664 62.9665 31.2734 62.7983 31.41 62.6556C31.5494 62.515 31.7153 62.4034 31.8981 62.3273C32.0809 62.2511 32.277 62.2119 32.475 62.2119C32.673 62.2119 32.8691 62.2511 33.0519 62.3273C33.2347 62.4034 33.4006 62.515 33.54 62.6556C33.6766 62.7983 33.7836 62.9665 33.855 63.1506C33.939 63.3286 33.9801 63.5238 33.975 63.7206C33.9761 63.918 33.9383 64.1137 33.8637 64.2965C33.789 64.4792 33.679 64.6455 33.54 64.7856C33.2526 65.0597 32.8722 65.2151 32.475 65.2206Z" fill="white"/>
<path d="M29.205 32.1756C28.863 32.174 28.5319 32.0557 28.2664 31.8401C28.0009 31.6246 27.817 31.3248 27.7453 30.9904C27.6735 30.6561 27.7181 30.3073 27.8717 30.0017C28.0254 29.6962 28.2788 29.4524 28.59 29.3106L36.645 25.7106C37.015 25.5475 37.4346 25.538 37.8115 25.6843C38.1885 25.8306 38.4919 26.1206 38.655 26.4906C38.8181 26.8606 38.8275 27.2802 38.6813 27.6571C38.535 28.0341 38.245 28.3375 37.875 28.5006L29.82 32.1006C29.6224 32.1681 29.413 32.1937 29.205 32.1756Z" fill="white"/>
<path d="M31.665 37.6499C31.323 37.6483 30.9919 37.5299 30.7264 37.3144C30.4609 37.0988 30.2771 36.7991 30.2053 36.4647C30.1335 36.1304 30.1781 35.7815 30.3318 35.476C30.4854 35.1705 30.7388 34.9266 31.05 34.7849L33.615 33.6449C33.9721 33.5098 34.3673 33.516 34.72 33.6622C35.0728 33.8084 35.3565 34.0836 35.5133 34.4317C35.6701 34.7798 35.6883 35.1746 35.5642 35.5357C35.44 35.8967 35.1828 36.1969 34.845 36.3749L32.28 37.4999C32.088 37.593 31.8783 37.6442 31.665 37.6499Z" fill="white"/>
<path d="M40.5 68.0103C40.3148 68.0119 40.1311 67.9762 39.96 67.9053L29.58 63.9303C27.7282 63.2156 26.2353 61.7959 25.4283 59.9824C24.6214 58.1688 24.5662 56.1094 25.275 54.2553L41.865 10.7553C42.5739 8.89803 43.9911 7.39818 45.8053 6.58532C47.6194 5.77247 49.6821 5.71311 51.54 6.42029L85.185 19.3503C87.0423 20.0592 88.5421 21.4764 89.355 23.2906C90.1678 25.1047 90.2272 27.1674 89.52 29.0253L85.35 39.9303C85.2068 40.3082 84.9193 40.6138 84.5508 40.7798C84.1823 40.9457 83.763 40.9585 83.385 40.8153C83.0071 40.6721 82.7015 40.3846 82.5356 40.0161C82.3696 39.6476 82.3568 39.2282 82.5 38.8503L86.655 27.9603C86.8672 27.4069 86.9679 26.817 86.9515 26.2246C86.9351 25.6322 86.8018 25.0488 86.5593 24.508C86.3167 23.9672 85.9698 23.4797 85.5383 23.0733C85.1069 22.667 84.5994 22.3499 84.045 22.1403L50.475 9.28529C49.9216 9.07313 49.3318 8.97236 48.7393 8.9888C48.1469 9.00523 47.5635 9.13853 47.0227 9.38105C46.4819 9.62356 45.9944 9.97052 45.5881 10.402C45.1817 10.8335 44.8647 11.3409 44.655 11.8953L28.065 55.3953C27.8546 55.949 27.7556 56.5387 27.7736 57.1308C27.7916 57.7228 27.9263 58.3054 28.17 58.8453C28.4047 59.3813 28.7447 59.8647 29.1699 60.2667C29.595 60.6686 30.0967 60.981 30.645 61.1853L41.04 65.1753C41.3318 65.3216 41.5679 65.5591 41.7124 65.8517C41.857 66.1444 41.9022 66.4762 41.8411 66.7968C41.7801 67.1174 41.6161 67.4094 41.374 67.6284C41.132 67.8474 40.8251 67.9815 40.5 68.0103Z" fill="white"/>
<path d="M49.185 26.8052C48.9998 26.8068 48.8161 26.7711 48.645 26.7002C48.4608 26.6303 48.2922 26.5248 48.1488 26.3897C48.0054 26.2546 47.89 26.0926 47.8092 25.9129C47.7284 25.7333 47.6838 25.5394 47.6779 25.3425C47.6721 25.1456 47.7051 24.9494 47.775 24.7652C48.0516 24.0744 48.51 23.4712 49.1015 23.0196C49.693 22.5681 50.3957 22.2849 51.135 22.2002C51.4506 22.1571 51.7443 22.0147 51.9735 21.7936C52.2027 21.5724 52.3556 21.2841 52.41 20.9702C52.4543 20.6801 52.4126 20.3834 52.29 20.1168C52.1673 19.8501 51.9691 19.6253 51.72 19.4702C51.5325 19.354 51.3217 19.2805 51.1026 19.2551C50.8834 19.2296 50.6614 19.2528 50.4522 19.323C50.2431 19.3932 50.052 19.5086 49.8926 19.6611C49.7332 19.8136 49.6094 19.9994 49.53 20.2052C49.3888 20.5772 49.1056 20.8778 48.7427 21.041C48.3798 21.2041 47.967 21.2165 47.595 21.0752C47.223 20.934 46.9224 20.6508 46.7593 20.2879C46.5961 19.925 46.5838 19.5122 46.725 19.1402C46.998 18.3909 47.4653 17.7275 48.079 17.2181C48.6927 16.7087 49.4307 16.3716 50.2176 16.2412C51.0044 16.1108 51.8117 16.1919 52.5569 16.4762C53.3021 16.7604 53.9584 17.2376 54.4585 17.8589C54.9586 18.4801 55.2846 19.2232 55.4032 20.0119C55.5217 20.8006 55.4285 21.6066 55.1331 22.3474C54.8377 23.0883 54.3507 23.7373 53.722 24.228C53.0932 24.7187 52.3454 25.0336 51.555 25.1402C51.3462 25.1525 51.1448 25.2219 50.9728 25.341C50.8009 25.46 50.665 25.6241 50.58 25.8152C50.4761 26.1027 50.2868 26.3516 50.0375 26.5286C49.7881 26.7055 49.4907 26.802 49.185 26.8052Z" fill="white"/>
<path d="M47.64 30.8108C47.2465 30.8091 46.8694 30.6529 46.59 30.3758C46.4494 30.2363 46.3378 30.0704 46.2617 29.8876C46.1855 29.7048 46.1463 29.5088 46.1463 29.3108C46.1463 29.1127 46.1855 28.9167 46.2617 28.7339C46.3378 28.5511 46.4494 28.3852 46.59 28.2458C46.871 27.9664 47.2512 27.8096 47.6475 27.8096C48.0438 27.8096 48.424 27.9664 48.705 28.2458C48.8419 28.3911 48.9535 28.5585 49.035 28.7408C49.1288 28.9692 49.1648 29.2172 49.1398 29.4629C49.1147 29.7086 49.0294 29.9443 48.8914 30.1491C48.7534 30.3538 48.567 30.5214 48.3487 30.6368C48.1304 30.7523 47.8869 30.812 47.64 30.8108Z" fill="white"/>
<path d="M41.76 46.23C41.5748 46.2316 41.3911 46.1959 41.22 46.125C41.0358 46.0551 40.8672 45.9496 40.7238 45.8145C40.5804 45.6795 40.465 45.5174 40.3842 45.3378C40.3034 45.1581 40.2588 44.9642 40.2529 44.7673C40.2471 44.5704 40.2801 44.3742 40.35 44.19C40.6224 43.4964 41.0796 42.8906 41.6719 42.4385C42.2643 41.9863 42.9691 41.705 43.71 41.625C44.0256 41.5819 44.3193 41.4395 44.5485 41.2184C44.7777 40.9972 44.9306 40.7089 44.985 40.395C45.0294 40.1049 44.9876 39.8082 44.865 39.5416C44.7423 39.2749 44.5442 39.0501 44.295 38.895C44.1068 38.7772 43.8949 38.7027 43.6744 38.6767C43.4539 38.6508 43.2304 38.6741 43.02 38.745C42.8119 38.8164 42.6221 38.9327 42.464 39.0857C42.3059 39.2386 42.1833 39.4245 42.105 39.63C41.9638 40.002 41.6806 40.3026 41.3177 40.4658C40.9548 40.6289 40.542 40.6413 40.17 40.5C39.7981 40.3588 39.4974 40.0756 39.3343 39.7127C39.1711 39.3498 39.1588 38.937 39.3 38.565C39.573 37.8157 40.0403 37.1523 40.654 36.6429C41.2677 36.1335 42.0057 35.7964 42.7926 35.666C43.5794 35.5356 44.3867 35.6167 45.1319 35.901C45.8771 36.1852 46.5334 36.6624 47.0335 37.2837C47.5336 37.9049 47.8596 38.648 47.9782 39.4367C48.0967 40.2254 48.0035 41.0314 47.7081 41.7722C47.4127 42.5131 46.9257 43.1621 46.297 43.6528C45.6683 44.1435 44.9204 44.4584 44.13 44.565C43.9233 44.5775 43.7236 44.6454 43.5521 44.7615C43.3806 44.8776 43.2434 45.0377 43.155 45.225C43.0536 45.5154 42.8653 45.7675 42.6158 45.9472C42.3663 46.127 42.0675 46.2257 41.76 46.23Z" fill="white"/>
<path d="M40.215 50.2354H39.93C39.8307 50.2215 39.7343 50.1911 39.645 50.1454C39.5529 50.1154 39.4666 50.0698 39.39 50.0104L39.165 49.8304C38.9365 49.6033 38.7873 49.3086 38.7393 48.99C38.6913 48.6715 38.7471 48.3459 38.8986 48.0615C39.05 47.7772 39.289 47.5491 39.5801 47.4111C39.8712 47.2732 40.199 47.2326 40.515 47.2954C40.7072 47.337 40.8902 47.4132 41.055 47.5204C41.1336 47.5758 41.2087 47.6359 41.28 47.7004C41.4206 47.8398 41.5322 48.0057 41.6084 48.1885C41.6845 48.3713 41.7237 48.5674 41.7237 48.7654C41.7237 48.9634 41.6845 49.1595 41.6084 49.3423C41.5322 49.525 41.4206 49.691 41.28 49.8304L41.055 50.0104C40.8902 50.1175 40.7072 50.1938 40.515 50.2354H40.215Z" fill="white"/>
<path d="M73.89 29.385C73.7048 29.3866 73.5212 29.3509 73.35 29.28L60.735 24.465C60.5486 24.3938 60.3782 24.2861 60.2339 24.1482C60.0896 24.0104 59.9743 23.8451 59.8946 23.6621C59.815 23.4791 59.7727 23.2821 59.7702 23.0825C59.7677 22.883 59.805 22.6849 59.88 22.5C59.9499 22.3158 60.0554 22.1472 60.1905 22.0037C60.3256 21.8603 60.4876 21.7449 60.6673 21.6641C60.847 21.5834 61.0408 21.5388 61.2378 21.5329C61.4347 21.527 61.6308 21.56 61.815 21.63L74.43 26.445C74.7641 26.566 75.0444 26.8017 75.2209 27.1101C75.3974 27.4185 75.4587 27.7796 75.3939 28.1289C75.329 28.4783 75.1423 28.7933 74.8669 29.0178C74.5915 29.2424 74.2453 29.3618 73.89 29.355V29.385Z" fill="white"/>
<path d="M75.945 36.6004C75.7606 36.5945 75.5782 36.559 75.405 36.4954L58.59 30.0004C58.2481 29.8379 57.9802 29.5521 57.8402 29.2004C57.7001 28.8487 57.6983 28.4571 57.8349 28.104C57.9716 27.751 58.2367 27.4627 58.577 27.2969C58.9174 27.1312 59.3078 27.1002 59.67 27.2104L76.5 33.6903C76.8341 33.8114 77.1144 34.0471 77.2909 34.3555C77.4674 34.6639 77.5287 35.0249 77.4639 35.3743C77.399 35.7237 77.2123 36.0387 76.9369 36.2632C76.6615 36.4878 76.3153 36.6072 75.96 36.6004H75.945Z" fill="white"/>
</svg>
