<svg width="96" height="96" viewBox="0 0 96 96" fill="none" xmlns="http://www.w3.org/2000/svg">
<path d="M42 61.5C40.22 61.5 38.4799 60.9722 36.9999 59.9832C35.5198 58.9943 34.3663 57.5887 33.6851 55.9442C33.0039 54.2996 32.8257 52.49 33.1729 50.7442C33.5202 48.9984 34.3774 47.3947 35.636 46.136C36.8947 44.8774 38.4984 44.0202 40.2442 43.6729C41.99 43.3257 43.7996 43.5039 45.4442 44.1851C47.0887 44.8663 48.4943 46.0198 49.4832 47.4999C50.4722 48.9799 51 50.72 51 52.5C51 54.887 50.0518 57.1761 48.364 58.864C46.6761 60.5518 44.387 61.5 42 61.5ZM42 46.5C40.8133 46.5 39.6533 46.8519 38.6666 47.5112C37.6799 48.1705 36.9109 49.1075 36.4567 50.2039C36.0026 51.3003 35.8838 52.5067 36.1153 53.6705C36.3468 54.8344 36.9183 55.9035 37.7574 56.7426C38.5965 57.5818 39.6656 58.1532 40.8295 58.3847C41.9933 58.6162 43.1997 58.4974 44.2961 58.0433C45.3925 57.5892 46.3295 56.8201 46.9888 55.8334C47.6481 54.8467 48 53.6867 48 52.5C48 50.9087 47.3679 49.3826 46.2426 48.2574C45.1174 47.1321 43.5913 46.5 42 46.5Z" fill="#249FDD"/>
<path d="M51 64.5H33C32.6022 64.5 32.2206 64.342 31.9393 64.0607C31.658 63.7794 31.5 63.3978 31.5 63C31.5 62.6022 31.658 62.2206 31.9393 61.9393C32.2206 61.658 32.6022 61.5 33 61.5H51C51.3978 61.5 51.7794 61.658 52.0607 61.9393C52.342 62.2206 52.5 62.6022 52.5 63C52.5 63.3978 52.342 63.7794 52.0607 64.0607C51.7794 64.342 51.3978 64.5 51 64.5Z" fill="#249FDD"/>
<path d="M51 90H33C32.6022 90 32.2206 89.842 31.9393 89.5607C31.658 89.2794 31.5 88.8978 31.5 88.5V80.61C31.5 80.2122 31.658 79.8306 31.9393 79.5493C32.2206 79.268 32.6022 79.11 33 79.11C33.3978 79.11 33.7794 79.268 34.0607 79.5493C34.342 79.8306 34.5 80.2122 34.5 80.61V87H49.5V72C49.5 71.6022 49.658 71.2206 49.9393 70.9393C50.2206 70.658 50.6022 70.5 51 70.5C51.3978 70.5 51.7794 70.658 52.0607 70.9393C52.342 71.2206 52.5 71.6022 52.5 72V88.5C52.5 88.8978 52.342 89.2794 52.0607 89.5607C51.7794 89.842 51.3978 90 51 90Z" fill="#249FDD"/>
<path d="M56.655 78.4807C56.2904 78.4802 55.9384 78.3469 55.665 78.1057L50.01 73.1557C49.7312 72.888 49.5666 72.523 49.5504 72.1368C49.5342 71.7507 49.6677 71.3731 49.923 71.083C50.1783 70.7928 50.5358 70.6124 50.9209 70.5794C51.306 70.5464 51.689 70.6633 51.99 70.9057L56.625 75.0007L67.245 65.2657C67.3332 65.2056 67.4075 65.1274 67.463 65.0363C67.5185 64.9452 67.554 64.8433 67.567 64.7374C67.58 64.6315 67.5702 64.524 67.5383 64.4222C67.5065 64.3203 67.4533 64.2265 67.3823 64.1468C67.3112 64.0672 67.224 64.0036 67.1265 63.9604C67.029 63.9171 66.9233 63.8952 66.8166 63.8961C66.7099 63.8969 66.6046 63.9205 66.5078 63.9653C66.4109 64.0101 66.3247 64.075 66.255 64.1557L59.055 70.7557C58.7776 71.013 58.4133 71.1559 58.035 71.1559C57.6567 71.1559 57.2924 71.013 57.015 70.7557L49.98 64.1407C49.8203 64.0112 49.6889 63.8502 49.594 63.6678C49.4991 63.4853 49.4427 63.2853 49.4284 63.0802C49.4141 62.875 49.4421 62.6691 49.5107 62.4753C49.5793 62.2814 49.687 62.1037 49.8272 61.9532C49.9673 61.8028 50.1369 61.6827 50.3255 61.6006C50.514 61.5184 50.7174 61.4759 50.923 61.4756C51.1287 61.4754 51.3322 61.5175 51.5209 61.5992C51.7096 61.6809 51.8795 61.8006 52.02 61.9507L58.02 67.6207L64.185 61.9507C64.921 61.2744 65.8955 60.9182 66.8941 60.9604C67.8927 61.0026 68.8337 61.4398 69.51 62.1757C70.1863 62.9117 70.5425 63.8862 70.5003 64.8848C70.4581 65.8835 70.021 66.8244 69.285 67.5007L57.675 78.1357C57.3861 78.367 57.025 78.4891 56.655 78.4807Z" fill="#249FDD"/>
<path d="M39.6 84.8408C39.051 84.845 38.5079 84.7271 38.01 84.4958L26.565 79.3658C26.2138 79.2103 25.9356 78.9262 25.7877 78.5717C25.6398 78.2173 25.6335 77.8197 25.77 77.4608L31.605 62.4608C31.7675 62.1188 32.0532 61.851 32.4049 61.7109C32.7566 61.5709 33.1483 61.569 33.5013 61.7056C33.8544 61.8423 34.1427 62.1074 34.3084 62.4478C34.4742 62.7881 34.5051 63.1785 34.395 63.5408L29.085 77.2208L39.24 81.7208C39.4287 81.8071 39.6418 81.8243 39.8419 81.7695C40.0421 81.7146 40.2166 81.5912 40.335 81.4207C40.4064 81.3195 40.4566 81.2048 40.4823 81.0836C40.5081 80.9625 40.509 80.8373 40.485 80.7158C40.4606 80.5979 40.412 80.4864 40.3423 80.3883C40.2726 80.2902 40.1833 80.2076 40.08 80.1458L33.87 76.2308C33.7026 76.1254 33.5575 75.988 33.4432 75.8266C33.3288 75.6652 33.2474 75.4828 33.2035 75.2899C33.1596 75.0969 33.1542 74.8973 33.1875 74.7023C33.2207 74.5072 33.2921 74.3207 33.3975 74.1533C33.5029 73.9858 33.6402 73.8408 33.8017 73.7264C33.9631 73.6121 34.1455 73.5306 34.3384 73.4867C34.5313 73.4429 34.731 73.4374 34.926 73.4707C35.121 73.504 35.3076 73.5754 35.475 73.6807L41.685 77.5958C42.1482 77.8785 42.5483 78.2534 42.8605 78.6972C43.1727 79.141 43.3904 79.6443 43.5 80.1758C43.6132 80.7416 43.5994 81.3256 43.4596 81.8855C43.3198 82.4454 43.0575 82.9673 42.6916 83.4135C42.3257 83.8598 41.8653 84.2193 41.3437 84.4661C40.822 84.7129 40.2521 84.8409 39.675 84.8408H39.6Z" fill="#249FDD"/>
<path d="M75 76.5C72.7486 76.505 70.5262 75.9918 68.505 75C68.3133 74.9247 68.1391 74.8107 67.9933 74.6651C67.8476 74.5195 67.7334 74.3455 67.6578 74.1538C67.5823 73.9622 67.547 73.757 67.5543 73.5511C67.5615 73.3452 67.6111 73.1431 67.6999 72.9572C67.7887 72.7713 67.9149 72.6057 68.0705 72.4707C68.2261 72.3357 68.4079 72.2342 68.6044 72.1726C68.801 72.1109 69.0081 72.0904 69.213 72.1123C69.4178 72.1343 69.6159 72.1981 69.795 72.3C71.9194 73.2922 74.2851 73.6502 76.6079 73.3309C78.9308 73.0116 81.1121 72.0286 82.89 70.5L74.01 62.61C73.8519 62.4711 73.7248 62.3005 73.6369 62.1093C73.549 61.918 73.5024 61.7105 73.5 61.5V49.59C71.1383 49.8845 68.9175 50.8746 67.12 52.4344C65.3224 53.9943 64.0293 56.0534 63.405 58.35C63.291 58.7219 63.0371 59.0349 62.6967 59.2231C62.3563 59.4113 61.9562 59.4599 61.5807 59.3587C61.2051 59.2575 60.8836 59.0144 60.6838 58.6807C60.4841 58.347 60.4218 57.9488 60.51 57.57C61.3736 54.3892 63.2607 51.5813 65.8798 49.5804C68.4989 47.5795 71.7041 46.4969 75 46.5C75.3978 46.5 75.7794 46.658 76.0607 46.9393C76.342 47.2206 76.5 47.6022 76.5 48V60.825L86.07 69.33C86.368 69.5928 86.5496 69.9631 86.575 70.3596C86.6003 70.7561 86.4672 71.1465 86.205 71.445C84.8003 73.0312 83.0754 74.3017 81.1441 75.173C79.2128 76.0443 77.1188 76.4966 75 76.5Z" fill="#249FDD"/>
<path d="M85.08 72C84.7154 71.9995 84.3635 71.8662 84.09 71.625L74.01 62.625C73.85 62.4844 73.7218 62.3114 73.6338 62.1174C73.5459 61.9235 73.5003 61.713 73.5 61.5V48C73.5 47.6022 73.658 47.2206 73.9393 46.9393C74.2206 46.658 74.6022 46.5 75 46.5C77.8901 46.5021 80.7181 47.3391 83.1439 48.9104C85.5696 50.4816 87.4897 52.7202 88.6734 55.3568C89.857 57.9935 90.2537 60.9159 89.8158 63.7727C89.3779 66.6295 88.1241 69.2989 86.205 71.46C86.0672 71.6255 85.8954 71.7594 85.7013 71.8525C85.5072 71.9457 85.2953 71.996 85.08 72ZM76.5 60.825L84.885 68.325C86.0589 66.6281 86.7754 64.6572 86.9654 62.6026C87.1553 60.548 86.8123 58.4791 85.9694 56.5958C85.1265 54.7125 83.8122 53.0783 82.1534 51.8511C80.4947 50.6239 78.5475 49.8451 76.5 49.59V60.825Z" fill="#249FDD"/>
<path d="M23.445 70.7408C23.1565 70.7402 22.8742 70.6564 22.6321 70.4994C22.39 70.3424 22.1983 70.119 22.08 69.8558L6.84 35.7608C6.43674 34.8616 6.21463 33.8918 6.18637 32.9068C6.15811 31.9217 6.32426 30.9408 6.6753 30.02C7.02635 29.0992 7.55542 28.2566 8.23227 27.5403C8.90913 26.8241 9.72049 26.2483 10.62 25.8458L42.885 11.4308C43.0662 11.3353 43.2649 11.278 43.4691 11.2622C43.6733 11.2465 43.8785 11.2728 44.0721 11.3394C44.2658 11.406 44.4437 11.5115 44.595 11.6495C44.7463 11.7874 44.8678 11.9549 44.9519 12.1416C45.036 12.3283 45.081 12.5303 45.0841 12.735C45.0872 12.9398 45.0484 13.143 44.97 13.3322C44.8916 13.5213 44.7753 13.6924 44.6282 13.8349C44.4812 13.9775 44.3065 14.0883 44.115 14.1608L11.85 28.5758C11.3029 28.8159 10.8091 29.1626 10.3974 29.5956C9.98575 30.0287 9.66441 30.5393 9.45218 31.0978C9.23994 31.6563 9.14106 32.2515 9.16129 32.8487C9.18151 33.4458 9.32045 34.0329 9.57 34.5758L24.81 68.6258C24.9723 68.9879 24.9845 69.3996 24.844 69.7707C24.7034 70.1418 24.4215 70.4421 24.06 70.6058C23.8669 70.6938 23.6572 70.7398 23.445 70.7408Z" fill="#282828"/>
<path d="M23.91 46.0503C23.7248 46.0519 23.5411 46.0162 23.37 45.9453C23.0034 45.8034 22.7072 45.5233 22.545 45.1653L19.545 38.3103C19.4687 38.1273 19.4294 37.931 19.4294 37.7328C19.4294 37.5345 19.4687 37.3383 19.545 37.1553C19.6107 36.9712 19.714 36.8028 19.8483 36.6608C19.9826 36.5188 20.1449 36.4062 20.325 36.3303L28.5 32.6703C28.8621 32.508 29.2738 32.4958 29.6449 32.6363C30.016 32.7769 30.3163 33.0588 30.48 33.4203L32.91 39.0003C33.0723 39.3624 33.0845 39.7741 32.944 40.1452C32.8034 40.5163 32.5215 40.8166 32.16 40.9803H32.055C32.2015 41.341 32.2021 41.7445 32.0565 42.1056C31.911 42.4667 31.6307 42.757 31.275 42.9153L24.525 45.9153C24.3319 46.0033 24.1222 46.0493 23.91 46.0503ZM22.83 38.4603L24.675 42.5703L30 40.1703H30.105L28.32 36.0003L22.83 38.4603Z" fill="#282828"/>
<path d="M31.5 41.0555C31.2114 41.0549 30.9292 40.9711 30.6871 40.8141C30.445 40.6571 30.2533 40.4337 30.135 40.1705L27.705 34.6505C27.6287 34.4675 27.5894 34.2712 27.5894 34.073C27.5894 33.8747 27.6287 33.6785 27.705 33.4955C27.8468 33.1289 28.1269 32.8327 28.485 32.6705L34.65 29.9105C35.0071 29.7754 35.4023 29.7816 35.755 29.9278C36.1077 30.074 36.3914 30.3492 36.5483 30.6973C36.7051 31.0454 36.7233 31.4402 36.5991 31.8013C36.475 32.1624 36.2178 32.4625 35.88 32.6405L31.08 34.7855L32.91 39.0005C33.0723 39.3626 33.0845 39.7743 32.944 40.1454C32.8034 40.5165 32.5215 40.8168 32.16 40.9805C31.9484 41.0545 31.7228 41.0801 31.5 41.0555Z" fill="#282828"/>
<path d="M26.61 52.0802C26.3215 52.0796 26.0392 51.9958 25.7971 51.8388C25.555 51.6818 25.3633 51.4584 25.245 51.1952L22.545 45.1952C22.4687 45.0122 22.4294 44.8159 22.4294 44.6177C22.4294 44.4194 22.4687 44.2231 22.545 44.0402C22.6869 43.6736 22.967 43.3774 23.325 43.2152L30.075 40.2152C30.4321 40.0801 30.8273 40.0863 31.18 40.2325C31.5328 40.3787 31.8165 40.6539 31.9733 41.002C32.1301 41.3501 32.1483 41.7449 32.0242 42.106C31.9 42.4671 31.6428 42.7672 31.305 42.9452L25.92 45.3602L28.005 50.0102C28.1673 50.3723 28.1795 50.784 28.039 51.1551C27.8984 51.5262 27.6165 51.8265 27.255 51.9902C27.0492 52.0671 26.829 52.0978 26.61 52.0802Z" fill="#282828"/>
<path d="M26.16 61.2755C25.9396 61.2758 25.7219 61.2276 25.5223 61.1343C25.3226 61.041 25.146 60.9048 25.005 60.7355C24.1232 59.6513 23.5619 58.3423 23.3843 56.9562C23.2068 55.5701 23.42 54.1619 24 52.8905L33.93 30.6605L34.02 30.4805L42.915 10.5005C43.728 8.6876 45.227 7.27139 47.0831 6.5627C48.9392 5.85401 51.0007 5.91074 52.815 6.72046L85.68 21.4055C86.5795 21.808 87.3909 22.3838 88.0677 23.1C88.7446 23.8162 89.2736 24.6588 89.6247 25.5796C89.9757 26.5004 90.1419 27.4814 90.1136 28.4664C90.0854 29.4515 89.8633 30.4213 89.46 31.3205L83.745 44.1155C83.5739 44.4795 83.2653 44.7606 82.8869 44.897C82.5086 45.0335 82.0915 45.014 81.7275 44.843C81.3635 44.6719 81.0823 44.3632 80.9459 43.9849C80.8095 43.6065 80.8289 43.1895 81 42.8255L86.73 30.0005C86.9795 29.4576 87.1185 28.8705 87.1387 28.2733C87.1589 27.6762 87.0601 27.081 86.8478 26.5225C86.6356 25.964 86.3143 25.4533 85.9026 25.0203C85.4909 24.5873 84.9971 24.2406 84.45 24.0005L51.585 9.39046C51.0421 9.14091 50.455 9.00197 49.8579 8.98174C49.2607 8.96152 48.6655 9.0604 48.107 9.27264C47.5485 9.48487 47.0379 9.80621 46.6048 10.2179C46.1718 10.6296 45.8251 11.1234 45.585 11.6705L36.585 31.8905L36.495 32.0705L26.64 54.1205C26.3001 54.8856 26.1804 55.7303 26.2944 56.5597C26.4083 57.3892 26.7514 58.1703 27.285 58.8155C27.4113 58.967 27.5065 59.142 27.565 59.3304C27.6236 59.5188 27.6444 59.7169 27.6263 59.9134C27.6082 60.1099 27.5515 60.3008 27.4595 60.4754C27.3674 60.6499 27.2419 60.8045 27.09 60.9305C26.8281 61.1476 26.5001 61.2692 26.16 61.2755Z" fill="#282828"/>
<path d="M72.39 41.5502C72.1778 41.5492 71.9681 41.5032 71.775 41.4152L63.57 37.7402C63.3897 37.6605 63.2268 37.5461 63.0908 37.4034C62.9547 37.2608 62.8481 37.0927 62.7771 36.9088C62.706 36.7249 62.6719 36.5288 62.6767 36.3317C62.6815 36.1346 62.7251 35.9404 62.805 35.7602L65.805 28.9202C65.8854 28.7387 66.0011 28.575 66.1453 28.4385C66.2895 28.302 66.4594 28.1955 66.645 28.1252C67.0102 27.9752 67.4198 27.9752 67.785 28.1252L76.005 31.8002C76.3665 31.9639 76.6484 32.2642 76.789 32.6353C76.9295 33.0064 76.9173 33.4181 76.755 33.7802L73.755 40.6352C73.6791 40.8153 73.5665 40.9776 73.4245 41.1119C73.2825 41.2462 73.1141 41.3495 72.93 41.4152C72.761 41.4964 72.5773 41.5424 72.39 41.5502ZM66.15 35.6252L71.64 38.0702L73.5 33.9602L67.995 31.5002L66.15 35.6252Z" fill="#282828"/>
<path d="M64.17 37.8753C63.9628 37.8722 63.7585 37.8263 63.57 37.7403L55.35 34.0803C55.1685 33.9999 55.0048 33.8842 54.8683 33.74C54.7318 33.5958 54.6253 33.426 54.555 33.2403C54.4787 33.0573 54.4394 32.861 54.4394 32.6628C54.4394 32.4646 54.4787 32.2683 54.555 32.0853L57.555 25.2453C57.6347 25.065 57.7491 24.9021 57.8918 24.7661C58.0345 24.63 58.2025 24.5234 58.3864 24.4524C58.5703 24.3813 58.7664 24.3472 58.9635 24.352C59.1606 24.3568 59.3548 24.4004 59.535 24.4803L67.755 28.1553C67.9353 28.235 68.0982 28.3494 68.2342 28.4921C68.3703 28.6347 68.4769 28.8028 68.548 28.9867C68.619 29.1706 68.6531 29.3667 68.6483 29.5638C68.6435 29.7609 68.5999 29.9551 68.52 30.1353L65.52 36.9903C65.4028 37.2512 65.2134 37.4731 64.9742 37.6299C64.735 37.7867 64.456 37.8718 64.17 37.8753ZM57.945 31.9503L63.42 34.3953L65.25 30.2853L59.775 27.8403L57.945 31.9503Z" fill="#282828"/>
<path d="M64.815 46.3809C64.6027 46.3799 64.3931 46.3339 64.2 46.2459L60.495 44.5959C60.3149 44.5199 60.1526 44.4074 60.0183 44.2653C59.884 44.1233 59.7807 43.9549 59.715 43.7709C59.6387 43.5879 59.5994 43.3916 59.5994 43.1934C59.5994 42.9951 59.6387 42.7988 59.715 42.6159L62.715 35.7609C62.8772 35.4028 63.1734 35.1227 63.54 34.9809C63.723 34.9045 63.9192 34.8652 64.1175 34.8652C64.3157 34.8652 64.512 34.9045 64.695 34.9809L72.915 38.6559C73.2765 38.8196 73.5584 39.1198 73.699 39.4909C73.8395 39.8621 73.8273 40.2737 73.665 40.6359L72.66 42.9159C72.5812 43.0971 72.4675 43.261 72.3253 43.3983C72.1832 43.5356 72.0154 43.6435 71.8315 43.7159C71.6477 43.7884 71.4513 43.8239 71.2538 43.8204C71.0562 43.817 70.8612 43.7747 70.68 43.6959C70.4988 43.6171 70.3348 43.5034 70.1976 43.3612C70.0603 43.2191 69.9523 43.0513 69.8799 42.8674C69.8075 42.6835 69.772 42.4872 69.7754 42.2896C69.7789 42.0921 69.8212 41.8971 69.9 41.7159L70.32 40.7859L64.845 38.3259L63 42.4359L65.34 43.4859C65.6512 43.6276 65.9046 43.8715 66.0582 44.177C66.2118 44.4825 66.2565 44.8313 66.1847 45.1657C66.1129 45.5 65.9291 45.7998 65.6636 46.0154C65.3981 46.2309 65.067 46.3493 64.725 46.3509L64.815 46.3809Z" fill="#282828"/>
<path d="M61.11 44.7303C60.8978 44.7294 60.6882 44.6833 60.495 44.5953L52.29 40.9203C52.1085 40.8399 51.9448 40.7242 51.8083 40.58C51.6718 40.4358 51.5654 40.266 51.495 40.0803C51.345 39.7151 51.345 39.3055 51.495 38.9403L54.495 32.0853C54.6587 31.7238 54.959 31.4419 55.3301 31.3014C55.7012 31.1608 56.1129 31.173 56.475 31.3353L64.695 35.0103C65.0542 35.1758 65.338 35.4703 65.49 35.8353C65.6319 36.2073 65.6319 36.6184 65.49 36.9903L62.49 43.8303C62.3729 44.0986 62.1799 44.3268 61.9346 44.4868C61.6894 44.6467 61.4028 44.7314 61.11 44.7303ZM54.885 38.7303L60.36 41.1903L62.19 37.0803L56.715 34.6203L54.885 38.7303Z" fill="#282828"/>
<path d="M52.89 41.0557C52.6828 41.0527 52.4785 41.0067 52.29 40.9207L44.07 37.2457C43.8897 37.166 43.7268 37.0516 43.5908 36.9089C43.4547 36.7663 43.3481 36.5982 43.2771 36.4143C43.206 36.2304 43.1719 36.0343 43.1767 35.8372C43.1815 35.6402 43.2251 35.4459 43.305 35.2657L46.305 28.4257C46.3846 28.2435 46.4996 28.079 46.6434 27.9417C46.7872 27.8044 46.9568 27.697 47.1424 27.6258C47.3281 27.5546 47.526 27.5211 47.7247 27.527C47.9235 27.533 48.119 27.5785 48.3 27.6607L56.505 31.3357C56.6853 31.4154 56.8482 31.5298 56.9842 31.6725C57.1203 31.8152 57.2269 31.9833 57.2979 32.1672C57.369 32.351 57.4031 32.5471 57.3983 32.7442C57.3935 32.9413 57.3499 33.1355 57.27 33.3157L54.27 40.1707C54.1043 40.5317 53.8022 40.8122 53.43 40.9507C53.2596 41.0241 53.0755 41.06 52.89 41.0557ZM46.665 35.0557L52.14 37.5157L54 33.4657L48.525 31.0207L46.665 35.0557Z" fill="#282828"/>
<path d="M58.05 51.5708C57.8378 51.5698 57.6282 51.5238 57.435 51.4358L54.33 50.0408C54.0213 49.8532 53.7907 49.5605 53.6805 49.2164C53.5703 48.8724 53.588 48.5001 53.7303 48.1681C53.8726 47.836 54.13 47.5665 54.4551 47.409C54.7802 47.2515 55.1512 47.2167 55.5 47.3108L57.24 48.0908L59.07 43.9808L53.61 41.5358L52.8 43.5008C52.7276 43.6923 52.6167 43.867 52.4742 44.0141C52.3317 44.1611 52.1605 44.2774 51.9714 44.3558C51.7822 44.4342 51.579 44.4731 51.3743 44.47C51.1695 44.4668 50.9676 44.4218 50.7809 44.3377C50.5942 44.2536 50.4267 44.1322 50.2887 43.9809C50.1507 43.8295 50.0452 43.6516 49.9786 43.458C49.912 43.2643 49.8857 43.0591 49.9015 42.8549C49.9172 42.6508 49.9746 42.452 50.07 42.2708L51.57 38.9708C51.646 38.7907 51.7585 38.6284 51.9005 38.4941C52.0426 38.3598 52.211 38.2566 52.395 38.1908C52.578 38.1145 52.7743 38.0752 52.9725 38.0752C53.1708 38.0752 53.3671 38.1145 53.55 38.1908L61.755 41.8658C62.1165 42.0295 62.3984 42.3298 62.539 42.7009C62.6796 43.072 62.6673 43.4837 62.505 43.8458L59.505 50.6858C59.3428 51.0439 59.0466 51.324 58.68 51.4658C58.4811 51.5496 58.2653 51.5856 58.05 51.5708Z" fill="#282828"/>
<path d="M51.435 44.3559C51.2227 44.3549 51.0131 44.3089 50.82 44.2209C50.4585 44.0572 50.1766 43.7569 50.036 43.3858C49.8954 43.0147 49.9077 42.603 50.07 42.2409L51 40.3209L45.51 37.8609L44.7 39.6759C44.6275 39.8674 44.5166 40.0421 44.3741 40.1891C44.2316 40.3362 44.0605 40.4525 43.8713 40.5309C43.6822 40.6093 43.479 40.6481 43.2742 40.645C43.0695 40.6419 42.8675 40.5969 42.6808 40.5128C42.4941 40.4287 42.3266 40.3072 42.1887 40.1559C42.0507 40.0046 41.9451 39.8267 41.8785 39.633C41.8119 39.4394 41.7857 39.2342 41.8014 39.03C41.8172 38.8258 41.8745 38.6271 41.97 38.4459L43.395 35.2659C43.5558 34.9201 43.8422 34.6486 44.1961 34.5065C44.55 34.3644 44.9447 34.3624 45.3 34.5009L53.52 38.1759C53.8815 38.3396 54.1634 38.6399 54.304 39.011C54.4445 39.3821 54.4323 39.7938 54.27 40.1559L52.77 43.4559C52.656 43.7173 52.4699 43.9408 52.2335 44.1002C51.997 44.2596 51.72 44.3483 51.435 44.3559Z" fill="#282828"/>
</svg>
