<svg width="96" height="96" viewBox="0 0 96 96" fill="none" xmlns="http://www.w3.org/2000/svg">
<path d="M55.5 87.0892C55.3207 87.0961 55.1418 87.0654 54.975 86.9992C54.6729 86.8871 54.415 86.6806 54.2394 86.4105C54.0638 86.1403 53.9799 85.8208 54 85.4992L55.905 64.3492C55.9293 64.0956 56.0178 63.8523 56.1621 63.6424C56.3065 63.4324 56.5019 63.2627 56.73 63.1492C56.958 63.0175 57.2167 62.9482 57.48 62.9482C57.7433 62.9482 58.002 63.0175 58.23 63.1492L76.35 74.1442C76.6363 74.3137 76.8581 74.5736 76.9805 74.883C77.1029 75.1923 77.119 75.5336 77.0263 75.8531C76.9335 76.1726 76.7371 76.4522 76.4681 76.6479C76.199 76.8436 75.8726 76.9443 75.54 76.9342L63.54 76.6792L56.67 86.4592C56.5365 86.647 56.3615 86.8016 56.1586 86.9108C55.9557 87.0201 55.7303 87.0811 55.5 87.0892ZM58.68 66.9742L57.495 80.1442L61.59 74.2942C61.7324 74.0941 61.9218 73.9319 62.1414 73.8221C62.3611 73.7122 62.6045 73.658 62.85 73.6642L69.99 73.8142L58.68 66.9742Z" fill="#249FDD"/>
<path d="M85.5 84.1641C85.1197 84.1651 84.7533 84.0215 84.4748 83.7625C84.1963 83.5036 84.0266 83.1485 84 82.7691C83.5109 76.1671 80.6865 69.955 76.0329 65.2465C71.3793 60.5379 65.2009 57.6407 58.605 57.0741C58.2072 57.0423 57.8383 56.8537 57.5795 56.5499C57.3207 56.2461 57.1932 55.852 57.225 55.4541C57.2568 55.0563 57.4454 54.6874 57.7492 54.4286C58.053 54.1698 58.4472 54.0423 58.845 54.0741C66.1455 54.7067 72.9839 57.9119 78.1406 63.1181C83.2974 68.3243 86.4372 75.193 87 82.4991C87.0233 82.7095 87.0018 82.9225 86.9369 83.1239C86.872 83.3254 86.7652 83.5109 86.6236 83.6682C86.4819 83.8254 86.3085 83.9509 86.1149 84.0364C85.9212 84.1219 85.7117 84.1654 85.5 84.1641Z" fill="#249FDD"/>
<path d="M27.135 83.76H27C26.8028 83.7448 26.6105 83.6908 26.4342 83.6011C26.258 83.5114 26.1012 83.3877 25.9729 83.2371C25.8447 83.0865 25.7475 82.9121 25.6869 82.7238C25.6263 82.5355 25.6036 82.3371 25.62 82.14C26.2197 75.1085 29.2174 68.4967 34.111 63.412C39.0045 58.3274 45.4967 55.0786 52.5 54.21C52.8978 54.1622 53.2983 54.2745 53.6134 54.522C53.9284 54.7696 54.1322 55.1322 54.18 55.53C54.2277 55.9278 54.1155 56.3283 53.8679 56.6434C53.6204 56.9584 53.2578 57.1622 52.86 57.21C46.5365 57.9862 40.6727 60.9145 36.2533 65.5033C31.8339 70.0921 29.1279 76.0618 28.59 82.41C28.5535 82.7736 28.3856 83.1115 28.1177 83.36C27.8498 83.6086 27.5003 83.7508 27.135 83.76Z" fill="#249FDD"/>
<path d="M30 89.7744H24C23.6065 89.7728 23.2294 89.6165 22.95 89.3394C22.811 89.1993 22.701 89.033 22.6263 88.8503C22.5517 88.6675 22.5138 88.4718 22.515 88.2744V82.2744C22.515 81.8766 22.673 81.4951 22.9543 81.2138C23.2356 80.9325 23.6172 80.7744 24.015 80.7744H30.015C30.4128 80.7744 30.7943 80.9325 31.0756 81.2138C31.3569 81.4951 31.515 81.8766 31.515 82.2744V88.2744C31.5093 88.6701 31.3476 89.0475 31.065 89.3244C30.9261 89.4661 30.7604 89.5789 30.5776 89.6562C30.3948 89.7334 30.1984 89.7736 30 89.7744ZM25.5 86.7744H28.5V83.7744H25.5V86.7744Z" fill="#249FDD"/>
<path d="M88.5 90.1944H82.5C82.1022 90.1944 81.7206 90.0364 81.4393 89.7551C81.158 89.4738 81 89.0922 81 88.6944V82.6944C81.0008 82.496 81.041 82.2996 81.1183 82.1168C81.1955 81.934 81.3083 81.7683 81.45 81.6294C81.7266 81.3423 82.1019 81.1707 82.5 81.1494H88.5C88.8978 81.1494 89.2794 81.3075 89.5607 81.5888C89.842 81.8701 90 82.2516 90 82.6494V88.6494C90.006 88.8502 89.9717 89.0501 89.899 89.2373C89.8263 89.4245 89.7168 89.5952 89.5769 89.7393C89.437 89.8834 89.2696 89.9979 89.0846 90.0761C88.8996 90.1543 88.7008 90.1945 88.5 90.1944ZM84 87.1944H87V84.1944H84V87.1944Z" fill="#249FDD"/>
<path d="M58.71 59.9994H52.71C52.3122 59.9994 51.9307 59.8414 51.6494 59.5601C51.3681 59.2788 51.21 58.8972 51.21 58.4994V52.4994C51.2157 52.1038 51.3774 51.7264 51.66 51.4494C51.797 51.3061 51.9626 51.1933 52.1461 51.1184C52.3297 51.0434 52.5269 51.008 52.725 51.0144H58.725C59.1229 51.0144 59.5044 51.1725 59.7857 51.4538C60.067 51.7351 60.225 52.1166 60.225 52.5144V58.5144C60.2231 58.7114 60.1823 58.9061 60.1051 59.0873C60.0279 59.2685 59.9158 59.4328 59.7751 59.5707C59.6344 59.7086 59.4679 59.8174 59.2852 59.891C59.1025 59.9646 58.907 60.0014 58.71 59.9994ZM54.21 56.9994H57.21V53.9994H54.21V56.9994Z" fill="#249FDD"/>
<path d="M75.24 57.1044L58.74 56.9844C58.3422 56.9844 57.9606 56.8263 57.6793 56.545C57.398 56.2637 57.24 55.8822 57.24 55.4844C57.24 55.0866 57.398 54.705 57.6793 54.4237C57.9606 54.1424 58.3422 53.9844 58.74 53.9844L75.24 54.1044C75.6378 54.1044 76.0193 54.2624 76.3007 54.5437C76.582 54.825 76.74 55.2065 76.74 55.6044C76.74 56.0022 76.582 56.3837 76.3007 56.665C76.0193 56.9463 75.6378 57.1044 75.24 57.1044Z" fill="#249FDD"/>
<path d="M52.725 56.9999L36.225 56.8799C35.8272 56.8799 35.4456 56.7218 35.1643 56.4405C34.883 56.1592 34.725 55.7777 34.725 55.3799C34.725 54.9821 34.883 54.6005 35.1643 54.3192C35.4456 54.0379 35.8272 53.8799 36.225 53.8799L52.725 53.9999C53.1228 53.9999 53.5043 54.1579 53.7856 54.4392C54.0669 54.7205 54.225 55.1021 54.225 55.4999C54.225 55.8977 54.0669 56.2792 53.7856 56.5605C53.5043 56.8419 53.1228 56.9999 52.725 56.9999Z" fill="#249FDD"/>
<path d="M33.24 59.8046C32.6402 59.814 32.0446 59.7034 31.4882 59.4793C30.9318 59.2552 30.4258 58.9221 30 58.4996C29.1573 57.6559 28.684 56.5121 28.684 55.3196C28.684 54.1271 29.1573 52.9834 30 52.1396C30.8694 51.3302 32.0073 50.8708 33.195 50.8496C33.785 50.8491 34.3692 50.967 34.9128 51.1963C35.4565 51.4256 35.9486 51.7617 36.36 52.1846C36.9843 52.8156 37.4081 53.6171 37.5779 54.4884C37.7478 55.3596 37.6563 56.2616 37.3147 57.081C36.9732 57.9003 36.397 58.6003 35.6586 59.0929C34.9202 59.5856 34.0526 59.8488 33.165 59.8496L33.24 59.8046ZM33.24 53.8046C32.8465 53.8063 32.4694 53.9625 32.19 54.2396C32.0444 54.3724 31.9289 54.5347 31.8512 54.7159C31.7736 54.897 31.7357 55.0926 31.74 55.2896C31.74 55.6874 31.898 56.069 32.1793 56.3503C32.4606 56.6316 32.8422 56.7896 33.24 56.7896C33.4387 56.8011 33.6375 56.768 33.8218 56.6927C34.006 56.6174 34.1711 56.5019 34.305 56.3546C34.5156 56.1457 34.6596 55.879 34.7187 55.5883C34.7777 55.2976 34.7493 54.9959 34.6369 54.7213C34.5245 54.4468 34.3332 54.2117 34.0873 54.0459C33.8413 53.88 33.5517 53.7909 33.255 53.7896L33.24 53.8046Z" fill="#249FDD"/>
<path d="M78.24 60.1196C77.0465 60.1196 75.9019 59.6455 75.058 58.8016C74.2141 57.9577 73.74 56.8131 73.74 55.6196C73.7454 55.0372 73.8662 54.4616 74.0954 53.9261C74.3245 53.3906 74.6574 52.9058 75.075 52.4996C75.9187 51.6569 77.0625 51.1836 78.255 51.1836C79.4475 51.1836 80.5912 51.6569 81.435 52.4996C82.2736 53.3452 82.7429 54.4887 82.74 55.6796C82.7355 56.2725 82.614 56.8586 82.3823 57.4043C82.1506 57.9501 81.8134 58.4446 81.39 58.8596C80.5446 59.6745 79.4142 60.1267 78.24 60.1196ZM78.24 54.1196C77.8422 54.1196 77.4606 54.2777 77.1793 54.559C76.898 54.8403 76.74 55.2218 76.74 55.6196C76.7376 56.011 76.8884 56.3878 77.16 56.6696C77.2989 56.8114 77.4646 56.9241 77.6474 57.0014C77.8302 57.0786 78.0265 57.1188 78.225 57.1196C78.6228 57.1196 79.0043 56.9616 79.2856 56.6803C79.567 56.399 79.725 56.0175 79.725 55.6196C79.725 55.2218 79.567 54.8403 79.2856 54.559C79.0043 54.2777 78.6228 54.1196 78.225 54.1196H78.24Z" fill="#249FDD"/>
<path d="M24 72.2096C23.7115 72.209 23.4292 72.1252 23.1871 71.9682C22.945 71.8113 22.7533 71.5878 22.635 71.3246L6.69 35.7596C6.28768 34.8586 6.0671 33.8871 6.04091 32.9007C6.01472 31.9144 6.18342 30.9325 6.53736 30.0114C6.89129 29.0904 7.4235 28.2482 8.10348 27.5332C8.78347 26.8182 9.59786 26.2443 10.5 25.8446L42 11.7296C42.1811 11.6342 42.3799 11.5768 42.5841 11.5611C42.7883 11.5453 42.9935 11.5716 43.1871 11.6382C43.3808 11.7048 43.5587 11.8103 43.71 11.9483C43.8613 12.0863 43.9828 12.2538 44.0669 12.4405C44.151 12.6272 44.196 12.8291 44.1991 13.0339C44.2022 13.2386 44.1634 13.4418 44.085 13.631C44.0066 13.8202 43.8903 13.9913 43.7432 14.1338C43.5962 14.2763 43.4215 14.3872 43.23 14.4596L11.7 28.5746C11.1529 28.8148 10.6591 29.1615 10.2474 29.5945C9.83574 30.0275 9.51441 30.5381 9.30218 31.0967C9.08994 31.6552 8.99105 32.2504 9.01128 32.8475C9.03151 33.4446 9.17045 34.0318 9.42 34.5746L25.32 70.1396C25.4823 70.5017 25.4945 70.9134 25.354 71.2845C25.2134 71.6556 24.9315 71.9559 24.57 72.1196C24.3876 72.1862 24.194 72.2168 24 72.2096Z" fill="#282828"/>
<path d="M24.285 55.9343C23.9415 55.9358 23.6079 55.8193 23.34 55.6043C22.0811 54.5835 21.0835 53.2775 20.43 51.7943C19.7342 50.2404 19.4267 48.5407 19.5339 46.8415C19.6412 45.1424 20.16 43.4948 21.0457 42.0408C21.9314 40.5867 23.1574 39.3699 24.618 38.4951C26.0786 37.6203 27.7301 37.1138 29.43 37.0193C29.8278 36.9954 30.2188 37.1306 30.517 37.395C30.8152 37.6594 30.9961 38.0315 31.02 38.4293C31.0438 38.8271 30.9087 39.2181 30.6443 39.5163C30.3798 39.8145 30.0078 39.9954 29.61 40.0193C28.3996 40.0846 27.2231 40.4423 26.1812 41.0618C25.1393 41.6812 24.2631 42.544 23.6276 43.5761C22.9921 44.6083 22.6162 45.7791 22.5321 46.9884C22.4481 48.1976 22.6584 49.4091 23.145 50.5193C23.6094 51.5717 24.3192 52.4976 25.215 53.2193C25.4577 53.414 25.6339 53.6794 25.719 53.9787C25.8042 54.278 25.7942 54.5964 25.6904 54.8898C25.5865 55.1831 25.394 55.437 25.1395 55.616C24.8851 55.7951 24.5812 55.8906 24.27 55.8893L24.285 55.9343Z" fill="#282828"/>
<path d="M31.365 44.1894C31.1231 44.189 30.885 44.1301 30.6708 44.0178C30.4567 43.9055 30.2728 43.7431 30.135 43.5444C29.6607 42.8789 29.2584 42.1649 28.935 41.4144C28.5675 40.5943 28.2811 39.7402 28.08 38.8644C27.3968 35.8234 27.7869 32.6397 29.184 29.8536C30.5812 27.0675 32.8993 24.8507 35.745 23.5794C36.4938 23.2433 37.2721 22.9772 38.07 22.7844C38.4429 22.7265 38.8239 22.8113 39.1371 23.0219C39.4502 23.2324 39.6725 23.5533 39.7596 23.9205C39.8467 24.2877 39.7921 24.6743 39.6068 25.003C39.4216 25.3318 39.1192 25.5786 38.76 25.6944C38.1484 25.8477 37.5512 26.0534 36.975 26.3094C34.7563 27.2914 32.9461 29.0115 31.8523 31.1773C30.7585 33.3431 30.4485 35.8208 30.975 38.1894C31.1297 38.8809 31.356 39.5545 31.65 40.1994C31.9022 40.7723 32.2086 41.3197 32.565 41.8344C32.721 42.0592 32.8125 42.3224 32.8296 42.5955C32.8467 42.8686 32.7888 43.1412 32.6621 43.3838C32.5354 43.6263 32.3448 43.8296 32.1109 43.9716C31.8769 44.1136 31.6086 44.1889 31.335 44.1894H31.365Z" fill="#282828"/>
<path d="M81.075 48.5845C80.8898 48.5861 80.7061 48.5504 80.535 48.4795C80.3468 48.4085 80.1747 48.3003 80.0291 48.1613C79.8836 48.0224 79.7674 47.8556 79.6877 47.6709C79.6079 47.4861 79.5661 47.2872 79.5648 47.086C79.5635 46.8848 79.6027 46.6853 79.68 46.4995L86.715 28.1095C86.9249 27.557 87.0238 26.9686 87.0063 26.3778C86.9887 25.787 86.8549 25.2055 86.6125 24.6664C86.3701 24.1273 86.0239 23.6413 85.5937 23.2361C85.1635 22.8308 84.6576 22.5143 84.105 22.3045L50.475 9.49455C49.9216 9.28238 49.3318 9.18162 48.7393 9.19805C48.1469 9.21449 47.5635 9.34779 47.0227 9.5903C46.4819 9.83282 45.9944 10.1798 45.5881 10.6112C45.1817 11.0427 44.8647 11.5502 44.655 12.1045L31.155 47.5196C31.048 47.8272 30.8438 48.0917 30.5732 48.273C30.3025 48.4543 29.9803 48.5426 29.655 48.5245C29.2572 48.5245 28.8757 48.3665 28.5944 48.0852C28.3131 47.8039 28.155 47.4224 28.155 47.0246C28.1534 46.8393 28.1891 46.6557 28.26 46.4845L41.76 11.0245C42.1124 10.1045 42.6426 9.26286 43.3204 8.54777C43.9981 7.83267 44.8101 7.25813 45.71 6.85695C46.6099 6.45577 47.5799 6.23582 48.5648 6.20967C49.5497 6.18352 50.5301 6.35169 51.45 6.70455L85.185 19.4995C87.0386 20.2085 88.5357 21.6233 89.3482 23.434C90.1608 25.2446 90.2225 27.3035 89.52 29.1596L82.5 47.6245C82.3894 47.9113 82.1935 48.1571 81.9386 48.3288C81.6837 48.5005 81.3823 48.5898 81.075 48.5845Z" fill="#282828"/>
<path d="M50.025 46.3193C48.483 46.3197 46.9599 45.9805 45.5638 45.3257C44.1678 44.6709 42.933 43.7167 41.9474 42.5309C40.9618 41.345 40.2495 39.9566 39.861 38.4644C39.4726 36.9721 39.4176 35.4127 39.6999 33.8967C39.9823 32.3808 40.595 30.9457 41.4946 29.6934C42.3943 28.441 43.5587 27.4022 44.9051 26.6507C46.2516 25.8992 47.7471 25.4535 49.2852 25.3452C50.8234 25.237 52.3665 25.4688 53.805 26.0243C55.0288 26.48 56.1503 27.1733 57.105 28.0643C57.2647 28.1939 57.3961 28.3548 57.491 28.5373C57.5859 28.7197 57.6423 28.9197 57.6566 29.1249C57.6709 29.33 57.6429 29.5359 57.5743 29.7298C57.5057 29.9237 57.398 30.1014 57.2578 30.2518C57.1176 30.4023 56.948 30.5224 56.7595 30.6045C56.571 30.6867 56.3676 30.7292 56.1619 30.7294C55.9563 30.7297 55.7528 30.6876 55.5641 30.6059C55.3754 30.5242 55.2055 30.4045 55.065 30.2543C53.979 29.2794 52.6321 28.6425 51.1895 28.4217C49.7468 28.2009 48.2711 28.4058 46.9432 29.0112C45.6153 29.6167 44.4929 30.5965 43.7136 31.8304C42.9342 33.0644 42.5319 34.4989 42.5558 35.9581C42.5796 37.4173 43.0288 38.8379 43.8481 40.0457C44.6674 41.2534 45.8212 42.1959 47.1682 42.7576C48.5153 43.3193 49.9969 43.4758 51.4315 43.2079C52.8662 42.94 54.1915 42.2593 55.245 41.2493C55.537 41.0084 55.9093 40.8868 56.2872 40.9089C56.6651 40.931 57.0207 41.0951 57.2827 41.3685C57.5446 41.6418 57.6935 42.004 57.6995 42.3825C57.7055 42.7611 57.5681 43.1279 57.315 43.4093C55.3526 45.2853 52.7398 46.3282 50.025 46.3193Z" fill="#282828"/>
<path d="M66.225 49.0946C65.6882 49.097 65.1519 49.062 64.62 48.9896C64.423 48.966 64.2326 48.9038 64.0597 48.8066C63.8867 48.7094 63.7346 48.579 63.6121 48.423C63.4895 48.267 63.3988 48.0884 63.3453 47.8974C63.2918 47.7063 63.2764 47.5066 63.3 47.3096C63.3236 47.1127 63.3859 46.9223 63.4831 46.7493C63.5803 46.5764 63.7106 46.4243 63.8666 46.3017C64.0226 46.1791 64.2012 46.0885 64.3923 46.0349C64.5833 45.9814 64.783 45.966 64.98 45.9896C66.8478 46.2194 68.743 45.9429 70.4673 45.1892C72.1916 44.4354 73.6817 43.2321 74.7816 41.7052C75.8815 40.1782 76.5508 38.3837 76.7195 36.5094C76.8882 34.6351 76.5501 32.7499 75.7405 31.0511C74.9309 29.3523 73.6797 27.9023 72.1176 26.8527C70.5556 25.8032 68.7402 25.1928 66.8615 25.0853C64.9827 24.9778 63.1095 25.3773 61.438 26.2418C59.7665 27.1064 58.358 28.4042 57.36 29.9996C56.9699 30.5939 56.6432 31.2274 56.385 31.8896C55.7844 33.4703 55.5744 35.1726 55.7728 36.8519C55.9713 38.5311 56.5724 40.1376 57.525 41.5347C58.5959 43.1296 60.0926 44.3924 61.845 45.1797C62.0365 45.2521 62.2112 45.363 62.3582 45.5055C62.5053 45.648 62.6216 45.8191 62.7 46.0083C62.7784 46.1975 62.8172 46.4007 62.8141 46.6054C62.811 46.8102 62.766 47.0121 62.6819 47.1988C62.5978 47.3855 62.4763 47.553 62.325 47.691C62.1737 47.829 61.9958 47.9345 61.8021 48.0011C61.6085 48.0677 61.4033 48.0939 61.1991 48.0782C60.9949 48.0625 60.7962 48.0051 60.615 47.9096C58.3523 46.8976 56.419 45.2709 55.035 43.2146C53.8039 41.4208 53.0246 39.356 52.7634 37.1961C52.5022 35.0362 52.7669 32.8452 53.535 30.8097C53.8587 29.956 54.2762 29.141 54.78 28.3796C56.0407 26.4032 57.7944 24.7891 59.8684 23.6963C61.9424 22.6034 64.2653 22.0695 66.6083 22.147C68.9513 22.2246 71.2338 22.911 73.231 24.1386C75.2282 25.3662 76.8713 27.0927 77.9985 29.1482C79.1258 31.2037 79.6984 33.5173 79.6599 35.8613C79.6214 38.2053 78.9731 40.4989 77.779 42.5163C76.5848 44.5337 74.8859 46.2053 72.8495 47.3667C70.8131 48.528 68.5093 49.1391 66.165 49.1396L66.225 49.0946Z" fill="#282828"/>
</svg>
