<svg width="96" height="96" viewBox="0 0 96 96" fill="none" xmlns="http://www.w3.org/2000/svg">
<path d="M32.5049 82.6501C31.5873 82.6488 30.6776 82.481 29.8199 82.1551C27.9674 81.4418 26.4733 80.0232 25.6649 78.2101L6.68991 35.7601C6.28992 34.8599 6.07118 33.8897 6.04618 32.905C6.02118 31.9202 6.19041 30.9402 6.54422 30.0209C6.89802 29.1016 7.42946 28.2609 8.10818 27.547C8.78691 26.8331 9.59962 26.2599 10.4999 25.8601L41.9999 11.7601C42.357 11.625 42.7522 11.6312 43.1049 11.7774C43.4577 11.9236 43.7414 12.1988 43.8982 12.5469C44.055 12.895 44.0732 13.2899 43.9491 13.6509C43.8249 14.012 43.5677 14.3121 43.2299 14.4901L11.7299 28.5901C11.1896 28.8313 10.7021 29.1767 10.2954 29.6066C9.88876 30.0364 9.57085 30.5422 9.35991 31.0951C8.93308 32.1941 8.95462 33.4168 9.41991 34.5001L28.3949 76.9501C28.6329 77.496 28.9768 77.9892 29.4068 78.4012C29.8368 78.8132 30.3443 79.1357 30.8999 79.3501C31.4494 79.5657 32.0365 79.6689 32.6265 79.6534C33.2166 79.638 33.7975 79.5042 34.3349 79.2601L40.8749 76.2601C41.0561 76.1646 41.2548 76.1073 41.459 76.0916C41.6632 76.0758 41.8684 76.1021 42.062 76.1687C42.2557 76.2353 42.4336 76.3408 42.5849 76.4788C42.7362 76.6168 42.8577 76.7842 42.9418 76.9709C43.0259 77.1576 43.0709 77.3596 43.074 77.5643C43.0771 77.7691 43.0383 77.9723 42.9599 78.1615C42.8815 78.3506 42.7652 78.5217 42.6181 78.6642C42.4711 78.8068 42.2964 78.9177 42.1049 78.9901L35.5649 81.9151C34.6084 82.3738 33.5654 82.6243 32.5049 82.6501Z" fill="#282828"/>
<path d="M26.9999 51.6152C26.0552 51.6165 25.1276 51.3627 24.3151 50.8808C23.5025 50.3989 22.835 49.7067 22.383 48.8771C21.931 48.0476 21.7112 47.1114 21.7468 46.1673C21.7824 45.2233 22.0721 44.3063 22.5854 43.5132C23.0986 42.72 23.8163 42.08 24.6629 41.6607C25.5095 41.2414 26.4535 41.0583 27.3954 41.1307C28.3374 41.2031 29.2423 41.5283 30.0149 42.0721C30.7874 42.6158 31.3989 43.358 31.7849 44.2202V44.3402C31.8558 44.5114 31.8915 44.695 31.8899 44.8802C31.8931 45.2342 31.771 45.5778 31.5452 45.8504C31.3195 46.123 31.0046 46.307 30.6563 46.3698C30.308 46.4326 29.9487 46.3703 29.6419 46.1938C29.3351 46.0173 29.1006 45.7379 28.9799 45.4052C28.7935 45.0026 28.4922 44.6641 28.114 44.4322C27.7357 44.2003 27.2973 44.0855 26.854 44.1021C26.4106 44.1187 25.982 44.266 25.6222 44.5254C25.2623 44.7849 24.9872 45.145 24.8314 45.5605C24.6756 45.9759 24.6461 46.4281 24.7466 46.8602C24.8471 47.2924 25.0732 47.6852 25.3963 47.9892C25.7194 48.2932 26.1252 48.4949 26.5627 48.569C27.0002 48.643 27.4497 48.586 27.8549 48.4052C28.0596 48.3233 28.2798 48.2874 28.4999 48.3002V49.8002L29.5199 50.9102C29.3821 51.0308 29.2249 51.1272 29.0549 51.1952C28.4065 51.4765 27.7067 51.6196 26.9999 51.6152Z" fill="#282828"/>
<path d="M34.2599 36.4652C33.9714 36.4646 33.6891 36.3808 33.447 36.2238C33.2049 36.0668 33.0132 35.8434 32.8949 35.5802L29.8199 28.6952C29.7436 28.5122 29.7043 28.3159 29.7043 28.1177C29.7043 27.9194 29.7436 27.7231 29.8199 27.5402C29.8856 27.3561 29.9889 27.1877 30.1232 27.0457C30.2575 26.9037 30.4198 26.7911 30.5999 26.7152L37.4849 23.7152C37.842 23.5801 38.2372 23.5863 38.5899 23.7325C38.9427 23.8787 39.2264 24.1539 39.3832 24.502C39.54 24.8501 39.5582 25.2449 39.4341 25.606C39.3099 25.9671 39.0527 26.2672 38.7149 26.4452L33.1949 28.9052L35.6549 34.4102C35.8172 34.7723 35.8294 35.184 35.6889 35.5551C35.5483 35.9262 35.2664 36.2265 34.9049 36.3902C34.698 36.462 34.4778 36.4876 34.2599 36.4652Z" fill="#282828"/>
<path d="M30.4649 46.3351C30.1504 46.3359 29.8437 46.2379 29.588 46.0549C29.3323 45.8718 29.1405 45.6131 29.0399 45.3151C28.9106 44.9352 28.9375 44.5195 29.1148 44.1594C29.292 43.7993 29.605 43.5244 29.9849 43.3951C30.3648 43.2658 30.7806 43.2928 31.1406 43.47C31.5007 43.6472 31.7756 43.9602 31.9049 44.3401C32.0346 44.7141 32.0113 45.1243 31.8399 45.4811C31.6685 45.838 31.3629 46.1126 30.9899 46.2451C30.8204 46.3012 30.6434 46.3316 30.4649 46.3351Z" fill="black"/>
<path d="M40.4999 68.0551C40.3147 68.0567 40.1311 68.021 39.9599 67.9501L29.5949 63.9901C27.7404 63.2783 26.244 61.8599 25.4341 60.046C24.6242 58.2322 24.5669 56.1711 25.2749 54.3151L29.0699 44.3701C29.0674 44.3202 29.0674 44.2701 29.0699 44.2201L41.8649 10.8751C42.2173 9.95507 42.7475 9.11344 43.4253 8.39835C44.103 7.68326 44.915 7.10871 45.8149 6.70753C46.7148 6.30636 47.6849 6.08641 48.6698 6.06026C49.6546 6.03411 50.635 6.20227 51.5549 6.55514L85.1849 19.4101C87.0386 20.1191 88.5356 21.5339 89.3482 23.3445C90.1607 25.1552 90.2225 27.214 89.5199 29.0701L83.5199 44.5501C83.3273 44.8239 83.0486 45.0253 82.7283 45.1224C82.408 45.2194 82.0644 45.2066 81.7522 45.0858C81.44 44.9651 81.1772 44.7434 81.0055 44.4561C80.8339 44.1688 80.7633 43.8322 80.8049 43.5001L86.7149 28.0351C86.9248 27.4826 87.0238 26.8941 87.0062 26.3034C86.9886 25.7126 86.8548 25.1311 86.6124 24.592C86.37 24.0529 86.0238 23.5669 85.5936 23.1616C85.1634 22.7564 84.6575 22.4399 84.1049 22.2301L50.4749 9.34514C49.9187 9.13412 49.3262 9.03548 48.7316 9.05492C48.1371 9.07436 47.5522 9.21149 47.011 9.4584C46.4698 9.7053 45.9829 10.0571 45.5785 10.4933C45.174 10.9296 44.8601 11.4418 44.6549 12.0001L31.9049 45.4051V45.5251L28.1099 55.4401C27.9001 55.9927 27.8011 56.5811 27.8187 57.1719C27.8363 57.7627 27.9701 58.3442 28.2125 58.8833C28.4548 59.4223 28.801 59.9084 29.2313 60.3136C29.6615 60.7189 30.1673 61.0354 30.7199 61.2451L41.0849 65.2051C41.386 65.3501 41.63 65.5915 41.7783 65.891C41.9266 66.1904 41.9706 66.5308 41.9035 66.8582C41.8363 67.1855 41.6617 67.4811 41.4074 67.6979C41.1532 67.9147 40.8338 68.0405 40.4999 68.0551Z" fill="#282828"/>
<path d="M46.4999 42.2548C45.8579 42.2528 45.222 42.1307 44.6249 41.8948C43.6552 41.5216 42.8181 40.8691 42.2195 40.0198C41.6209 39.1706 41.2878 38.1629 41.2622 37.1242C41.2367 36.0855 41.5199 35.0626 42.076 34.185C42.6321 33.3074 43.4362 32.6145 44.3863 32.1941C45.3364 31.7737 46.3899 31.6447 47.4134 31.8233C48.4369 32.002 49.3844 32.4803 50.1359 33.1978C50.8874 33.9152 51.4091 34.8396 51.635 35.8537C51.8609 36.8678 51.7808 37.9262 51.4049 38.8948C51.1626 39.5414 50.7936 40.1332 50.3197 40.6355C49.8458 41.1377 49.2764 41.5403 48.6449 41.8198C47.9675 42.1109 47.2372 42.259 46.4999 42.2548ZM46.4999 34.7548C46.1852 34.7603 45.8745 34.8265 45.5849 34.9498C45.3131 35.0698 45.0682 35.2432 44.8646 35.4596C44.6611 35.676 44.503 35.9311 44.3999 36.2098C44.2938 36.4865 44.2434 36.7814 44.2516 37.0776C44.2599 37.3738 44.3265 37.6655 44.4478 37.9359C44.569 38.2063 44.7425 38.4501 44.9582 38.6532C45.174 38.8564 45.4277 39.0149 45.7049 39.1198C46.2622 39.3253 46.8779 39.3037 47.4194 39.0596C47.9609 38.8155 48.3848 38.3684 48.5999 37.8148C48.715 37.5418 48.7743 37.2485 48.7743 36.9523C48.7743 36.656 48.715 36.3627 48.5999 36.0898C48.3541 35.5484 47.9077 35.1236 47.3549 34.9048C47.0814 34.8014 46.7922 34.7456 46.4999 34.7398V34.7548Z" fill="#282828"/>
<path d="M73.4999 35.7906C72.9513 35.787 72.4077 35.6854 71.8949 35.4906C70.7816 35.0641 69.8831 34.2133 69.3966 33.1249C68.91 32.0365 68.8753 30.7996 69.2999 29.6856C69.5049 29.1294 69.8206 28.6206 70.228 28.19C70.6354 27.7594 71.1259 27.416 71.6699 27.1806C72.7559 26.6925 73.9911 26.6548 75.1049 27.0756C75.6579 27.2867 76.1638 27.6048 76.5937 28.0118C77.0236 28.4187 77.3689 28.9065 77.61 29.4471C77.851 29.9878 77.9831 30.5707 77.9985 31.1624C78.0139 31.7541 77.9124 32.3431 77.6999 32.8956C77.375 33.7465 76.7996 34.4788 76.0497 34.9957C75.2998 35.5126 74.4107 35.7898 73.4999 35.7906ZM73.4999 29.7906C73.2876 29.7916 73.078 29.8376 72.8849 29.9256C72.7034 30.006 72.5396 30.1217 72.4032 30.2659C72.2667 30.4101 72.1602 30.5799 72.0899 30.7656C72.0199 30.9498 71.9869 31.1459 71.9928 31.3428C71.9987 31.5398 72.0433 31.7336 72.1241 31.9133C72.2049 32.093 72.3203 32.255 72.4637 32.3901C72.6071 32.5252 72.7757 32.6307 72.9599 32.7006C73.1441 32.7705 73.3402 32.8035 73.5371 32.7977C73.7341 32.7918 73.9279 32.7472 74.1076 32.6664C74.2873 32.5856 74.4493 32.4702 74.5844 32.3268C74.7195 32.1834 74.825 32.0148 74.8949 31.8306C75.037 31.4605 75.0268 31.0493 74.8666 30.6867C74.7064 30.3241 74.4092 30.0397 74.0399 29.8956C73.8675 29.8268 73.6852 29.7863 73.4999 29.7756V29.7906Z" fill="#282828"/>
<path d="M56.9999 42.5098C56.8147 42.5114 56.631 42.4757 56.4599 42.4048C56.2711 42.3437 56.0964 42.2458 55.9457 42.1167C55.7951 41.9876 55.6715 41.8299 55.5822 41.6527C55.4929 41.4756 55.4397 41.2824 55.4256 41.0845C55.4114 40.8866 55.4367 40.6879 55.4999 40.4998L60.8549 26.4898C60.999 26.1205 61.2834 25.8233 61.646 25.6631C62.0086 25.5029 62.4199 25.4927 62.7899 25.6348L71.1899 28.8448C71.3873 28.9048 71.5703 29.0049 71.7273 29.1389C71.8842 29.2728 72.0119 29.4377 72.1022 29.6232C72.1926 29.8088 72.2437 30.0109 72.2523 30.2171C72.261 30.4233 72.227 30.629 72.1525 30.8215C72.078 31.0139 71.9646 31.1889 71.8194 31.3355C71.6742 31.4821 71.5003 31.5972 71.3086 31.6736C71.1168 31.7499 70.9114 31.7859 70.7052 31.7792C70.499 31.7725 70.2963 31.7234 70.1099 31.6348L63.1199 28.9648L58.3349 41.5498C58.23 41.8224 58.0478 42.0585 57.8107 42.229C57.5735 42.3996 57.2917 42.4972 56.9999 42.5098Z" fill="#282828"/>
<path d="M56.9999 42.5097C56.8162 42.5092 56.6339 42.4788 56.4599 42.4197L49.4549 39.7347C49.083 39.5935 48.7823 39.3103 48.6192 38.9474C48.456 38.5845 48.4437 38.1717 48.5849 37.7997C48.7262 37.4278 49.0094 37.1271 49.3723 36.964C49.7351 36.8008 50.148 36.7885 50.5199 36.9297L57.5249 39.6147C57.8477 39.7421 58.1163 39.9775 58.2849 40.2807C58.4536 40.5839 58.512 40.9362 58.4501 41.2776C58.3882 41.619 58.2098 41.9284 57.9454 42.153C57.681 42.3777 57.3469 42.5038 56.9999 42.5097Z" fill="#282828"/>
<path d="M71.6999 90H63.2999C62.9021 90 62.5206 89.842 62.2393 89.5607C61.958 89.2794 61.7999 88.8978 61.7999 88.5V83.4C61.2877 83.2203 60.7868 83.01 60.2999 82.77L56.6999 86.385C56.5598 86.524 56.3936 86.634 56.2108 86.7087C56.028 86.7833 55.8323 86.8211 55.6349 86.82C55.4375 86.8211 55.2418 86.7833 55.0591 86.7087C54.8763 86.634 54.7101 86.524 54.5699 86.385L48.5699 80.385C48.4293 80.2456 48.3178 80.0797 48.2416 79.8969C48.1655 79.7141 48.1262 79.518 48.1262 79.32C48.1262 79.122 48.1655 78.9259 48.2416 78.7431C48.3178 78.5603 48.4293 78.3944 48.5699 78.255L52.1849 74.655C51.945 74.1681 51.7346 73.6672 51.5549 73.155H46.4999C46.1021 73.155 45.7206 72.997 45.4393 72.7157C45.158 72.4344 44.9999 72.0528 44.9999 71.655V63.3C44.9999 62.9022 45.158 62.5206 45.4393 62.2393C45.7206 61.958 46.1021 61.8 46.4999 61.8H51.5999C51.7796 61.2878 51.99 60.7869 52.2299 60.3L48.6149 56.7C48.4743 56.5606 48.3628 56.3947 48.2866 56.2119C48.2104 56.0291 48.1712 55.833 48.1712 55.635C48.1712 55.437 48.2104 55.2409 48.2866 55.0581C48.3628 54.8753 48.4743 54.7094 48.6149 54.57L54.6149 48.57C54.7544 48.4294 54.9203 48.3178 55.1031 48.2417C55.2859 48.1655 55.4819 48.1263 55.6799 48.1263C55.878 48.1263 56.074 48.1655 56.2568 48.2417C56.4396 48.3178 56.6055 48.4294 56.7449 48.57L60.3449 52.185C60.8318 51.945 61.3327 51.7347 61.8449 51.555V46.5C61.8449 46.1022 62.003 45.7206 62.2843 45.4393C62.5656 45.158 62.9471 45 63.3449 45H71.7449C72.1428 45 72.5243 45.158 72.8056 45.4393C73.0869 45.7206 73.2449 46.1022 73.2449 46.5V51.6C73.7572 51.7797 74.2581 51.99 74.7449 52.23L78.3449 48.615C78.4851 48.476 78.6513 48.366 78.8341 48.2913C79.0168 48.2167 79.2125 48.1789 79.4099 48.18C79.6073 48.1789 79.803 48.2167 79.9858 48.2913C80.1686 48.366 80.3348 48.476 80.4749 48.615L86.4749 54.615C86.6155 54.7544 86.7271 54.9203 86.8033 55.1031C86.8794 55.2859 86.9186 55.482 86.9186 55.68C86.9186 55.878 86.8794 56.0741 86.8033 56.2569C86.7271 56.4397 86.6155 56.6056 86.4749 56.745L82.8599 60.345C83.0999 60.8319 83.3103 61.3328 83.4899 61.845H88.4999C88.8978 61.845 89.2793 62.003 89.5606 62.2843C89.8419 62.5656 89.9999 62.9472 89.9999 63.345V71.745C89.9999 72.1428 89.8419 72.5244 89.5606 72.8057C89.2793 73.087 88.8978 73.245 88.4999 73.245H83.3999C83.2203 73.7572 83.0099 74.2581 82.7699 74.745L86.3849 78.345C86.5255 78.4844 86.6371 78.6503 86.7133 78.8331C86.7894 79.0159 86.8286 79.212 86.8286 79.41C86.8286 79.608 86.7894 79.8041 86.7133 79.9869C86.6371 80.1697 86.5255 80.3356 86.3849 80.475L80.3849 86.475C80.2455 86.6156 80.0796 86.7272 79.8968 86.8033C79.714 86.8795 79.518 86.9187 79.3199 86.9187C79.1219 86.9187 78.9259 86.8795 78.7431 86.8033C78.5603 86.7272 78.3944 86.6156 78.2549 86.475L74.6549 82.86C74.1681 83.1 73.6672 83.3103 73.1549 83.49V88.5C73.1551 88.8901 73.0033 89.265 72.7316 89.5451C72.46 89.8251 72.0899 89.9883 71.6999 90ZM64.7999 87H70.1999V82.305C70.1875 81.9683 70.2887 81.6373 70.4874 81.3652C70.686 81.093 70.9705 80.8957 71.2949 80.805C72.339 80.512 73.3457 80.0992 74.2949 79.575C74.5799 79.4127 74.9103 79.3483 75.2354 79.3917C75.5605 79.435 75.8624 79.5837 76.0949 79.815L79.4099 83.145L83.2199 79.32L79.9049 76.005C79.6737 75.7725 79.525 75.4705 79.4816 75.1454C79.4383 74.8203 79.5027 74.49 79.6649 74.205C80.1892 73.2557 80.6019 72.2491 80.8949 71.205C80.9857 70.8805 81.183 70.5961 81.4551 70.3974C81.7272 70.1988 82.0583 70.0976 82.3949 70.11H86.9999V64.8H82.3049C81.9683 64.8124 81.6372 64.7112 81.3651 64.5126C81.093 64.3139 80.8957 64.0295 80.8049 63.705C80.5119 62.6609 80.0992 61.6543 79.5749 60.705C79.4127 60.42 79.3483 60.0896 79.3916 59.7646C79.435 59.4395 79.5837 59.1375 79.8149 58.905L83.1299 55.59L79.3199 51.765L76.0049 55.095C75.7724 55.3263 75.4705 55.475 75.1454 55.5183C74.8203 55.5617 74.49 55.4973 74.2049 55.335C73.2557 54.8108 72.249 54.398 71.2049 54.105C70.8805 54.0143 70.596 53.8169 70.3974 53.5448C70.1987 53.2727 70.0975 52.9417 70.1099 52.605V48H64.7999V52.695C64.8124 53.0317 64.7111 53.3627 64.5125 53.6348C64.3139 53.907 64.0294 54.1043 63.7049 54.195C62.6609 54.488 61.6542 54.9008 60.7049 55.425C60.4199 55.5873 60.0896 55.6517 59.7645 55.6083C59.4394 55.565 59.1375 55.4163 58.9049 55.185L55.5899 51.855L51.7799 55.68L55.0949 58.995C55.3262 59.2275 55.4749 59.5295 55.5183 59.8546C55.5616 60.1797 55.4972 60.51 55.3349 60.795C54.8107 61.7443 54.398 62.7509 54.1049 63.795C54.0142 64.1195 53.8169 64.4039 53.5448 64.6026C53.2727 64.8012 52.9416 64.9024 52.6049 64.89H47.9999V70.29H52.6949C53.0316 70.2776 53.3627 70.3788 53.6348 70.5774C53.9069 70.7761 54.1042 71.0605 54.1949 71.385C54.488 72.4291 54.9007 73.4357 55.4249 74.385C55.5872 74.67 55.6516 75.0003 55.6083 75.3254C55.5649 75.6505 55.4162 75.9525 55.1849 76.185L51.8699 79.5L55.6799 83.325L58.9949 79.995C59.2275 79.7637 59.5294 79.615 59.8545 79.5717C60.1796 79.5283 60.5099 79.5927 60.7949 79.755C61.7442 80.2792 62.7509 80.692 63.7949 80.985C64.1194 81.0757 64.4039 81.2731 64.6025 81.5452C64.8011 81.8173 64.9024 82.1483 64.8899 82.485L64.7999 87Z" fill="#249FDD"/>
<path d="M67.4999 78C65.4232 78 63.3931 77.3842 61.6664 76.2304C59.9397 75.0767 58.5939 73.4368 57.7991 71.5182C57.0044 69.5996 56.7965 67.4884 57.2016 65.4516C57.6068 63.4148 58.6068 61.5438 60.0753 60.0754C61.5437 58.6069 63.4146 57.6069 65.4514 57.2018C67.4882 56.7966 69.5994 57.0046 71.5181 57.7993C73.4367 58.594 75.0766 59.9398 76.2303 61.6665C77.3841 63.3932 77.9999 65.4233 77.9999 67.5C77.9999 70.2848 76.8936 72.9555 74.9245 74.9246C72.9554 76.8938 70.2847 78 67.4999 78ZM67.4999 60C66.0165 60 64.5665 60.4399 63.3331 61.264C62.0997 62.0881 61.1384 63.2594 60.5708 64.6299C60.0031 66.0003 59.8546 67.5083 60.144 68.9632C60.4334 70.418 61.1477 71.7544 62.1966 72.8033C63.2455 73.8522 64.5818 74.5665 66.0367 74.8559C67.4916 75.1453 68.9996 74.9968 70.37 74.4291C71.7405 73.8614 72.9118 72.9001 73.7359 71.6668C74.56 70.4334 74.9999 68.9834 74.9999 67.5C74.9999 65.5109 74.2097 63.6032 72.8032 62.1967C71.3967 60.7902 69.489 60 67.4999 60Z" fill="#249FDD"/>
</svg>
