<svg width="96" height="96" viewBox="0 0 96 96" fill="none" xmlns="http://www.w3.org/2000/svg">
<path d="M42 61.5C40.22 61.5 38.4799 60.9722 36.9999 59.9832C35.5198 58.9943 34.3663 57.5887 33.6851 55.9442C33.0039 54.2996 32.8257 52.49 33.1729 50.7442C33.5202 48.9984 34.3774 47.3947 35.636 46.136C36.8947 44.8774 38.4984 44.0202 40.2442 43.6729C41.99 43.3257 43.7996 43.5039 45.4442 44.1851C47.0887 44.8663 48.4943 46.0198 49.4832 47.4999C50.4722 48.9799 51 50.72 51 52.5C51 54.887 50.0518 57.1761 48.364 58.864C46.6761 60.5518 44.387 61.5 42 61.5ZM42 46.5C40.8133 46.5 39.6533 46.8519 38.6666 47.5112C37.6799 48.1705 36.9109 49.1075 36.4567 50.2039C36.0026 51.3003 35.8838 52.5067 36.1153 53.6705C36.3468 54.8344 36.9183 55.9035 37.7574 56.7426C38.5965 57.5818 39.6656 58.1532 40.8295 58.3847C41.9933 58.6162 43.1997 58.4974 44.2961 58.0433C45.3925 57.5892 46.3295 56.8201 46.9888 55.8334C47.6481 54.8467 48 53.6867 48 52.5C48 50.9087 47.3679 49.3826 46.2426 48.2574C45.1174 47.1321 43.5913 46.5 42 46.5Z" fill="#249FDD"/>
<path d="M51 64.5H33C32.6022 64.5 32.2206 64.342 31.9393 64.0607C31.658 63.7794 31.5 63.3978 31.5 63C31.5 62.6022 31.658 62.2206 31.9393 61.9393C32.2206 61.658 32.6022 61.5 33 61.5H51C51.3978 61.5 51.7794 61.658 52.0607 61.9393C52.342 62.2206 52.5 62.6022 52.5 63C52.5 63.3978 52.342 63.7794 52.0607 64.0607C51.7794 64.342 51.3978 64.5 51 64.5Z" fill="#249FDD"/>
<path d="M51 90H33C32.6022 90 32.2206 89.842 31.9393 89.5607C31.658 89.2794 31.5 88.8978 31.5 88.5V80.61C31.5 80.2122 31.658 79.8306 31.9393 79.5493C32.2206 79.268 32.6022 79.11 33 79.11C33.3978 79.11 33.7794 79.268 34.0607 79.5493C34.342 79.8306 34.5 80.2122 34.5 80.61V87H49.5V72C49.5 71.6022 49.658 71.2206 49.9393 70.9393C50.2206 70.658 50.6022 70.5 51 70.5C51.3978 70.5 51.7794 70.658 52.0607 70.9393C52.342 71.2206 52.5 71.6022 52.5 72V88.5C52.5 88.8978 52.342 89.2794 52.0607 89.5607C51.7794 89.842 51.3978 90 51 90Z" fill="#249FDD"/>
<path d="M56.6551 78.4807C56.2904 78.4802 55.9385 78.3469 55.6651 78.1057L50.0101 73.1557C49.7313 72.888 49.5667 72.523 49.5505 72.1368C49.5343 71.7507 49.6677 71.3731 49.9231 71.083C50.1784 70.7928 50.5359 70.6124 50.921 70.5794C51.3061 70.5464 51.689 70.6633 51.9901 70.9057L56.6251 75.0007L67.2451 65.2657C67.3332 65.2056 67.4075 65.1274 67.4631 65.0363C67.5186 64.9452 67.554 64.8433 67.567 64.7374C67.58 64.6315 67.5703 64.524 67.5384 64.4222C67.5066 64.3203 67.4533 64.2265 67.3823 64.1468C67.3113 64.0672 67.2241 64.0036 67.1266 63.9604C67.029 63.9171 66.9234 63.8952 66.8167 63.8961C66.71 63.8969 66.6047 63.9205 66.5078 63.9653C66.411 64.0101 66.3248 64.075 66.2551 64.1557L59.0551 70.7557C58.7777 71.013 58.4133 71.1559 58.0351 71.1559C57.6568 71.1559 57.2924 71.013 57.0151 70.7557L49.9801 64.1407C49.8203 64.0112 49.6889 63.8502 49.594 63.6678C49.4991 63.4853 49.4428 63.2853 49.4285 63.0802C49.4141 62.875 49.4421 62.6691 49.5107 62.4753C49.5793 62.2814 49.6871 62.1037 49.8272 61.9532C49.9674 61.8028 50.137 61.6827 50.3255 61.6006C50.514 61.5184 50.7175 61.4759 50.9231 61.4756C51.1287 61.4754 51.3322 61.5175 51.5209 61.5992C51.7097 61.6809 51.8795 61.8006 52.0201 61.9507L58.0201 67.6207L64.1851 61.9507C64.921 61.2744 65.8955 60.9182 66.8942 60.9604C67.8928 61.0026 68.8338 61.4398 69.5101 62.1757C70.1864 62.9117 70.5426 63.8862 70.5004 64.8848C70.4582 65.8835 70.021 66.8244 69.2851 67.5007L57.6751 78.1357C57.3861 78.367 57.025 78.4891 56.6551 78.4807Z" fill="#249FDD"/>
<path d="M39.6001 84.8408C39.0511 84.845 38.508 84.7271 38.0101 84.4958L26.5651 79.3658C26.2139 79.2103 25.9357 78.9262 25.7878 78.5717C25.6399 78.2173 25.6336 77.8197 25.7701 77.4608L31.6051 62.4608C31.7676 62.1188 32.0533 61.851 32.405 61.7109C32.7568 61.5709 33.1484 61.569 33.5015 61.7056C33.8545 61.8423 34.1428 62.1074 34.3086 62.4478C34.4743 62.7881 34.5052 63.1785 34.3951 63.5408L29.0851 77.2208L39.2401 81.7208C39.4289 81.8071 39.6419 81.8243 39.8421 81.7695C40.0422 81.7146 40.2167 81.5912 40.3351 81.4207C40.4066 81.3195 40.4567 81.2048 40.4825 81.0836C40.5083 80.9625 40.5092 80.8373 40.4851 80.7158C40.4607 80.5979 40.4121 80.4864 40.3424 80.3883C40.2727 80.2902 40.1834 80.2076 40.0801 80.1458L33.8701 76.2308C33.7027 76.1254 33.5576 75.988 33.4433 75.8266C33.3289 75.6652 33.2475 75.4828 33.2036 75.2899C33.1597 75.0969 33.1543 74.8973 33.1876 74.7023C33.2209 74.5072 33.2922 74.3207 33.3976 74.1533C33.503 73.9858 33.6403 73.8408 33.8018 73.7264C33.9632 73.6121 34.1456 73.5306 34.3385 73.4867C34.5314 73.4429 34.7311 73.4374 34.9261 73.4707C35.1211 73.504 35.3077 73.5754 35.4751 73.6807L41.6851 77.5958C42.1483 77.8785 42.5484 78.2534 42.8606 78.6972C43.1728 79.141 43.3905 79.6443 43.5001 80.1758C43.6133 80.7416 43.5995 81.3256 43.4597 81.8855C43.3199 82.4454 43.0576 82.9673 42.6917 83.4135C42.3258 83.8598 41.8654 84.2193 41.3438 84.4661C40.8221 84.7129 40.2522 84.8409 39.6751 84.8408H39.6001Z" fill="#249FDD"/>
<path d="M75.0001 76.5C72.7487 76.505 70.5263 75.9918 68.5051 75C68.3133 74.9247 68.1391 74.8107 67.9934 74.6651C67.8476 74.5195 67.7334 74.3455 67.6579 74.1538C67.5824 73.9622 67.5471 73.757 67.5543 73.5511C67.5616 73.3452 67.6112 73.1431 67.7 72.9572C67.7888 72.7713 67.9149 72.6057 68.0705 72.4707C68.2262 72.3357 68.4079 72.2342 68.6045 72.1726C68.801 72.1109 69.0082 72.0904 69.213 72.1123C69.4179 72.1343 69.616 72.1981 69.7951 72.3C71.9195 73.2922 74.2851 73.6502 76.608 73.3309C78.9308 73.0116 81.1122 72.0286 82.8901 70.5L74.0101 62.61C73.852 62.4711 73.7248 62.3005 73.637 62.1093C73.5491 61.918 73.5025 61.7105 73.5001 61.5V49.59C71.1384 49.8845 68.9176 50.8746 67.1201 52.4344C65.3225 53.9943 64.0294 56.0534 63.4051 58.35C63.2911 58.7219 63.0371 59.0349 62.6968 59.2231C62.3564 59.4113 61.9563 59.4599 61.5807 59.3587C61.2052 59.2575 60.8836 59.0144 60.6839 58.6807C60.4841 58.347 60.4218 57.9488 60.5101 57.57C61.3736 54.3892 63.2608 51.5813 65.8798 49.5804C68.4989 47.5795 71.7041 46.4969 75.0001 46.5C75.3979 46.5 75.7794 46.658 76.0607 46.9393C76.342 47.2206 76.5001 47.6022 76.5001 48V60.825L86.0701 69.33C86.3681 69.5928 86.5497 69.9631 86.575 70.3596C86.6003 70.7561 86.4673 71.1465 86.2051 71.445C84.8003 73.0312 83.0755 74.3017 81.1442 75.173C79.2128 76.0443 77.1188 76.4966 75.0001 76.5Z" fill="#249FDD"/>
<path d="M85.08 72C84.7154 71.9995 84.3635 71.8662 84.09 71.625L74.01 62.625C73.85 62.4844 73.7218 62.3114 73.6338 62.1174C73.5459 61.9235 73.5003 61.713 73.5 61.5V48C73.5 47.6022 73.658 47.2206 73.9393 46.9393C74.2206 46.658 74.6022 46.5 75 46.5C77.8901 46.5021 80.7181 47.3391 83.1439 48.9104C85.5696 50.4816 87.4897 52.7202 88.6734 55.3568C89.857 57.9935 90.2537 60.9159 89.8158 63.7727C89.3779 66.6295 88.1241 69.2989 86.205 71.46C86.0672 71.6255 85.8954 71.7594 85.7013 71.8525C85.5072 71.9457 85.2953 71.996 85.08 72ZM76.5 60.825L84.885 68.325C86.0589 66.6281 86.7754 64.6572 86.9654 62.6026C87.1553 60.548 86.8123 58.4791 85.9694 56.5958C85.1265 54.7125 83.8122 53.0783 82.1534 51.8511C80.4947 50.6239 78.5475 49.8451 76.5 49.59V60.825Z" fill="#249FDD"/>
<path d="M23.4451 70.7408C23.1565 70.7402 22.8743 70.6564 22.6322 70.4994C22.3901 70.3424 22.1984 70.119 22.0801 69.8558L6.84006 35.7608C6.4368 34.8616 6.21469 33.8918 6.18643 32.9068C6.15817 31.9217 6.32432 30.9408 6.67536 30.02C7.02641 29.0992 7.55548 28.2566 8.23234 27.5403C8.90919 26.8241 9.72056 26.2483 10.6201 25.8458L42.8851 11.4308C43.0662 11.3353 43.265 11.278 43.4692 11.2622C43.6733 11.2465 43.8786 11.2728 44.0722 11.3394C44.2658 11.406 44.4438 11.5115 44.5951 11.6495C44.7464 11.7874 44.8679 11.9549 44.952 12.1416C45.0361 12.3283 45.0811 12.5303 45.0842 12.735C45.0873 12.9398 45.0485 13.143 44.9701 13.3322C44.8916 13.5213 44.7753 13.6924 44.6283 13.8349C44.4813 13.9775 44.3066 14.0883 44.1151 14.1608L11.8501 28.5758C11.303 28.8159 10.8092 29.1626 10.3975 29.5956C9.98581 30.0287 9.66448 30.5393 9.45224 31.0978C9.24001 31.6563 9.14112 32.2515 9.16135 32.8487C9.18158 33.4458 9.32052 34.0329 9.57006 34.5758L24.8101 68.6258C24.9724 68.9879 24.9846 69.3996 24.844 69.7707C24.7035 70.1418 24.4216 70.4421 24.0601 70.6058C23.8669 70.6938 23.6573 70.7398 23.4451 70.7408Z" fill="#282828"/>
<path d="M23.9101 46.0503C23.7248 46.0519 23.5412 46.0162 23.3701 45.9453C23.0035 45.8034 22.7072 45.5233 22.5451 45.1653L19.5451 38.3103C19.4687 38.1273 19.4294 37.931 19.4294 37.7328C19.4294 37.5345 19.4687 37.3383 19.5451 37.1553C19.6108 36.9712 19.7141 36.8028 19.8484 36.6608C19.9826 36.5188 20.145 36.4062 20.3251 36.3303L28.5001 32.6703C28.8622 32.508 29.2739 32.4958 29.645 32.6363C30.0161 32.7769 30.3164 33.0588 30.4801 33.4203L32.9101 39.0003C33.0724 39.3624 33.0846 39.7741 32.944 40.1452C32.8035 40.5163 32.5216 40.8166 32.1601 40.9803H32.0551C32.2016 41.341 32.2021 41.7445 32.0566 42.1056C31.911 42.4667 31.6308 42.757 31.2751 42.9153L24.5251 45.9153C24.3319 46.0033 24.1223 46.0493 23.9101 46.0503ZM22.8301 38.4603L24.6751 42.5703L30.0001 40.1703H30.1051L28.3201 36.0003L22.8301 38.4603Z" fill="#282828"/>
<path d="M31.5 41.0555C31.2114 41.0549 30.9292 40.9711 30.6871 40.8141C30.445 40.6571 30.2533 40.4337 30.135 40.1705L27.705 34.6505C27.6287 34.4675 27.5894 34.2712 27.5894 34.073C27.5894 33.8747 27.6287 33.6785 27.705 33.4955C27.8468 33.1289 28.1269 32.8327 28.485 32.6705L34.65 29.9105C35.0071 29.7754 35.4023 29.7816 35.755 29.9278C36.1077 30.074 36.3914 30.3492 36.5483 30.6973C36.7051 31.0454 36.7233 31.4402 36.5991 31.8013C36.475 32.1624 36.2178 32.4625 35.88 32.6405L31.08 34.7855L32.91 39.0005C33.0723 39.3626 33.0845 39.7743 32.944 40.1454C32.8034 40.5165 32.5215 40.8168 32.16 40.9805C31.9484 41.0545 31.7228 41.0801 31.5 41.0555Z" fill="#282828"/>
<path d="M26.6101 52.0802C26.3215 52.0796 26.0393 51.9958 25.7972 51.8388C25.5551 51.6818 25.3634 51.4584 25.2451 51.1952L22.5451 45.1952C22.4687 45.0122 22.4294 44.8159 22.4294 44.6177C22.4294 44.4194 22.4687 44.2231 22.5451 44.0402C22.6869 43.6736 22.967 43.3774 23.3251 43.2152L30.0751 40.2152C30.4322 40.0801 30.8274 40.0863 31.1801 40.2325C31.5328 40.3787 31.8165 40.6539 31.9734 41.002C32.1302 41.3501 32.1484 41.7449 32.0242 42.106C31.9 42.4671 31.6429 42.7672 31.3051 42.9452L25.9201 45.3602L28.0051 50.0102C28.1674 50.3723 28.1796 50.784 28.039 51.1551C27.8985 51.5262 27.6166 51.8265 27.2551 51.9902C27.0493 52.0671 26.8291 52.0978 26.6101 52.0802Z" fill="#282828"/>
<path d="M26.1602 61.2755C25.9398 61.2758 25.7221 61.2276 25.5224 61.1343C25.3228 61.041 25.1462 60.9048 25.0052 60.7355C24.1234 59.6513 23.5621 58.3423 23.3845 56.9562C23.207 55.5701 23.4202 54.1619 24.0002 52.8905L33.9302 30.6605L34.0202 30.4805L42.9152 10.5005C43.7281 8.6876 45.2272 7.27139 47.0833 6.5627C48.9394 5.85401 51.0009 5.91074 52.8152 6.72046L85.6802 21.4055C86.5797 21.808 87.3911 22.3838 88.0679 23.1C88.7448 23.8162 89.2738 24.6588 89.6249 25.5796C89.9759 26.5004 90.1421 27.4814 90.1138 28.4664C90.0855 29.4515 89.8634 30.4213 89.4602 31.3205L83.7452 44.1155C83.5741 44.4795 83.2655 44.7606 82.8871 44.897C82.5087 45.0335 82.0917 45.014 81.7277 44.843C81.3637 44.6719 81.0825 44.3632 80.9461 43.9849C80.8097 43.6065 80.8291 43.1895 81.0002 42.8255L86.7302 30.0005C86.9797 29.4576 87.1187 28.8705 87.1389 28.2733C87.1591 27.6762 87.0602 27.081 86.848 26.5225C86.6358 25.964 86.3144 25.4533 85.9027 25.0203C85.4911 24.5873 84.9973 24.2406 84.4502 24.0005L51.5852 9.39046C51.0423 9.14091 50.4552 9.00197 49.858 8.98174C49.2609 8.96152 48.6657 9.0604 48.1072 9.27264C47.5487 9.48487 47.038 9.80621 46.605 10.2179C46.172 10.6296 45.8253 11.1234 45.5852 11.6705L36.5852 31.8905L36.4952 32.0705L26.6402 54.1205C26.3003 54.8856 26.1806 55.7303 26.2946 56.5597C26.4085 57.3892 26.7516 58.1703 27.2852 58.8155C27.4115 58.967 27.5066 59.142 27.5652 59.3304C27.6238 59.5188 27.6446 59.7169 27.6265 59.9134C27.6084 60.1099 27.5517 60.3008 27.4596 60.4754C27.3676 60.6499 27.2421 60.8045 27.0902 60.9305C26.8283 61.1476 26.5003 61.2692 26.1602 61.2755Z" fill="#282828"/>
<path d="M72.39 41.5502C72.1778 41.5492 71.9681 41.5032 71.775 41.4152L63.57 37.7402C63.3897 37.6605 63.2268 37.5461 63.0908 37.4034C62.9547 37.2608 62.8481 37.0927 62.7771 36.9088C62.706 36.7249 62.6719 36.5288 62.6767 36.3317C62.6815 36.1346 62.7251 35.9404 62.805 35.7602L65.805 28.9202C65.8854 28.7387 66.0011 28.575 66.1453 28.4385C66.2895 28.302 66.4594 28.1955 66.645 28.1252C67.0102 27.9752 67.4198 27.9752 67.785 28.1252L76.005 31.8002C76.3665 31.9639 76.6484 32.2642 76.789 32.6353C76.9295 33.0064 76.9173 33.4181 76.755 33.7802L73.755 40.6352C73.6791 40.8153 73.5665 40.9776 73.4245 41.1119C73.2825 41.2462 73.1141 41.3495 72.93 41.4152C72.761 41.4964 72.5773 41.5424 72.39 41.5502ZM66.15 35.6252L71.64 38.0702L73.5 33.9602L67.995 31.5002L66.15 35.6252Z" fill="#282828"/>
<path d="M64.1701 37.8753C63.9629 37.8722 63.7586 37.8263 63.5701 37.7403L55.3501 34.0803C55.1686 33.9999 55.0048 33.8842 54.8684 33.74C54.7319 33.5958 54.6254 33.426 54.5551 33.2403C54.4788 33.0573 54.4395 32.861 54.4395 32.6628C54.4395 32.4646 54.4788 32.2683 54.5551 32.0853L57.5551 25.2453C57.6348 25.065 57.7492 24.9021 57.8919 24.7661C58.0345 24.63 58.2026 24.5234 58.3865 24.4524C58.5704 24.3813 58.7665 24.3472 58.9636 24.352C59.1607 24.3568 59.3549 24.4004 59.5351 24.4803L67.7551 28.1553C67.9354 28.235 68.0982 28.3494 68.2343 28.4921C68.3704 28.6347 68.477 28.8028 68.548 28.9867C68.6191 29.1706 68.6532 29.3667 68.6484 29.5638C68.6436 29.7609 68.6 29.9551 68.5201 30.1353L65.5201 36.9903C65.4028 37.2512 65.2135 37.4731 64.9743 37.6299C64.7351 37.7867 64.4561 37.8718 64.1701 37.8753ZM57.9451 31.9503L63.4201 34.3953L65.2501 30.2853L59.7751 27.8403L57.9451 31.9503Z" fill="#282828"/>
<path d="M64.815 46.3809C64.6027 46.3799 64.3931 46.3339 64.2 46.2459L60.495 44.5959C60.3149 44.5199 60.1526 44.4074 60.0183 44.2653C59.884 44.1233 59.7807 43.9549 59.715 43.7709C59.6387 43.5879 59.5994 43.3916 59.5994 43.1934C59.5994 42.9951 59.6387 42.7988 59.715 42.6159L62.715 35.7609C62.8772 35.4028 63.1734 35.1227 63.54 34.9809C63.723 34.9045 63.9192 34.8652 64.1175 34.8652C64.3157 34.8652 64.512 34.9045 64.695 34.9809L72.915 38.6559C73.2765 38.8196 73.5584 39.1198 73.699 39.4909C73.8395 39.8621 73.8273 40.2737 73.665 40.6359L72.66 42.9159C72.5812 43.0971 72.4675 43.261 72.3253 43.3983C72.1832 43.5356 72.0154 43.6435 71.8315 43.7159C71.6477 43.7884 71.4513 43.8239 71.2538 43.8204C71.0562 43.817 70.8612 43.7747 70.68 43.6959C70.4988 43.6171 70.3348 43.5034 70.1976 43.3612C70.0603 43.2191 69.9523 43.0513 69.8799 42.8674C69.8075 42.6835 69.772 42.4872 69.7754 42.2896C69.7789 42.0921 69.8212 41.8971 69.9 41.7159L70.32 40.7859L64.845 38.3259L63 42.4359L65.34 43.4859C65.6512 43.6276 65.9046 43.8715 66.0582 44.177C66.2118 44.4825 66.2565 44.8313 66.1847 45.1657C66.1129 45.5 65.9291 45.7998 65.6636 46.0154C65.3981 46.2309 65.067 46.3493 64.725 46.3509L64.815 46.3809Z" fill="#282828"/>
<path d="M61.1101 44.7303C60.8978 44.7294 60.6882 44.6833 60.4951 44.5953L52.2901 40.9203C52.1086 40.8399 51.9448 40.7242 51.8084 40.58C51.6719 40.4358 51.5654 40.266 51.4951 40.0803C51.3451 39.7151 51.3451 39.3055 51.4951 38.9403L54.4951 32.0853C54.6588 31.7238 54.9591 31.4419 55.3302 31.3014C55.7013 31.1608 56.113 31.173 56.4751 31.3353L64.6951 35.0103C65.0543 35.1758 65.3381 35.4703 65.4901 35.8353C65.632 36.2073 65.632 36.6184 65.4901 36.9903L62.4901 43.8303C62.373 44.0986 62.1799 44.3268 61.9347 44.4868C61.6895 44.6467 61.4028 44.7314 61.1101 44.7303ZM54.8851 38.7303L60.3601 41.1903L62.1901 37.0803L56.7151 34.6203L54.8851 38.7303Z" fill="#282828"/>
<path d="M52.89 41.0557C52.6828 41.0527 52.4785 41.0067 52.29 40.9207L44.07 37.2457C43.8897 37.166 43.7268 37.0516 43.5908 36.9089C43.4547 36.7663 43.3481 36.5982 43.2771 36.4143C43.206 36.2304 43.1719 36.0343 43.1767 35.8372C43.1815 35.6402 43.2251 35.4459 43.305 35.2657L46.305 28.4257C46.3846 28.2435 46.4996 28.079 46.6434 27.9417C46.7872 27.8044 46.9568 27.697 47.1424 27.6258C47.3281 27.5546 47.526 27.5211 47.7247 27.527C47.9235 27.533 48.119 27.5785 48.3 27.6607L56.505 31.3357C56.6853 31.4154 56.8482 31.5298 56.9842 31.6725C57.1203 31.8152 57.2269 31.9833 57.2979 32.1672C57.369 32.351 57.4031 32.5471 57.3983 32.7442C57.3935 32.9413 57.3499 33.1355 57.27 33.3157L54.27 40.1707C54.1043 40.5317 53.8022 40.8122 53.43 40.9507C53.2596 41.0241 53.0755 41.06 52.89 41.0557ZM46.665 35.0557L52.14 37.5157L54 33.4657L48.525 31.0207L46.665 35.0557Z" fill="#282828"/>
<path d="M58.05 51.5708C57.8377 51.5698 57.6281 51.5238 57.435 51.4358L54.33 50.0408C54.0212 49.8532 53.7906 49.5605 53.6804 49.2164C53.5702 48.8724 53.5879 48.5001 53.7302 48.1681C53.8725 47.836 54.1299 47.5665 54.455 47.409C54.7802 47.2515 55.1512 47.2167 55.5 47.3108L57.24 48.0908L59.07 43.9808L53.61 41.5358L52.8 43.5008C52.7275 43.6923 52.6166 43.867 52.4741 44.0141C52.3316 44.1611 52.1605 44.2774 51.9713 44.3558C51.7822 44.4342 51.5789 44.4731 51.3742 44.47C51.1694 44.4668 50.9675 44.4218 50.7808 44.3377C50.5941 44.2536 50.4266 44.1322 50.2886 43.9809C50.1506 43.8295 50.0451 43.6516 49.9785 43.458C49.9119 43.2643 49.8857 43.0591 49.9014 42.8549C49.9171 42.6508 49.9745 42.452 50.07 42.2708L51.57 38.9708C51.6459 38.7907 51.7585 38.6284 51.9005 38.4941C52.0425 38.3598 52.2109 38.2566 52.395 38.1908C52.5779 38.1145 52.7742 38.0752 52.9725 38.0752C53.1707 38.0752 53.367 38.1145 53.55 38.1908L61.755 41.8658C62.1165 42.0295 62.3984 42.3298 62.5389 42.7009C62.6795 43.072 62.6673 43.4837 62.505 43.8458L59.505 50.6858C59.3428 51.0439 59.0465 51.324 58.68 51.4658C58.4811 51.5496 58.2653 51.5856 58.05 51.5708Z" fill="#282828"/>
<path d="M51.4351 44.3559C51.2229 44.3549 51.0132 44.3089 50.8201 44.2209C50.4586 44.0572 50.1767 43.7569 50.0361 43.3858C49.8956 43.0147 49.9078 42.603 50.0701 42.2409L51.0001 40.3209L45.5101 37.8609L44.7001 39.6759C44.6277 39.8674 44.5168 40.0421 44.3742 40.1891C44.2317 40.3362 44.0606 40.4525 43.8715 40.5309C43.6823 40.6093 43.4791 40.6481 43.2743 40.645C43.0696 40.6419 42.8676 40.5969 42.6809 40.5128C42.4942 40.4287 42.3268 40.3072 42.1888 40.1559C42.0508 40.0046 41.9453 39.8267 41.8787 39.633C41.8121 39.4394 41.7858 39.2342 41.8015 39.03C41.8173 38.8258 41.8746 38.6271 41.9701 38.4459L43.3951 35.2659C43.5559 34.9201 43.8424 34.6486 44.1962 34.5065C44.5501 34.3644 44.9448 34.3624 45.3001 34.5009L53.5201 38.1759C53.8816 38.3396 54.1635 38.6399 54.3041 39.011C54.4446 39.3821 54.4324 39.7938 54.2701 40.1559L52.7701 43.4559C52.6561 43.7173 52.47 43.9408 52.2336 44.1002C51.9971 44.2596 51.7202 44.3483 51.4351 44.3559Z" fill="#282828"/>
</svg>
