<svg width="215" height="38" viewBox="0 0 215 38" fill="none" xmlns="http://www.w3.org/2000/svg">
<path d="M89.4241 2.26367C91.8847 2.70183 94.1617 3.67094 96.134 5.0459L97.7375 3.44336L101.981 7.68652L100.377 9.28906C101.174 10.4315 101.832 11.6768 102.332 13H94.4241C92.5997 10.5714 89.6954 9.00008 86.4241 9C80.9013 9.00013 76.4241 13.4772 76.4241 19C76.4241 24.5228 80.9013 28.9999 86.4241 29C90.9016 28.9999 94.6917 26.057 95.9661 22H85.4241V16H105.424V22H103.16C102.722 24.461 101.752 26.7375 100.377 28.71L101.981 30.3135L97.7375 34.5566L96.134 32.9531C94.1617 34.3282 91.8849 35.2971 89.4241 35.7354V38H83.4241V35.7354C80.963 35.2971 78.6856 34.3285 76.7131 32.9531L75.1106 34.5566L70.8674 30.3135L72.47 28.71C71.095 26.7376 70.1259 24.4608 69.6877 22H67.4241V16H69.6877C70.1259 13.539 71.0947 11.2616 72.47 9.28906L70.8674 7.68652L75.1106 3.44336L76.7131 5.0459C78.6856 3.67069 80.9631 2.70187 83.4241 2.26367V0H89.4241V2.26367Z" fill="url(#paint0_linear_679_5992)"/>
<path d="M19.0439 23.6377L27.002 2.57031H37.8584V35H28.8418V17.1064L22.7236 35H15.1797L9.01562 16.9678V35H0V2.57031H10.9023L19.0439 23.6377ZM63.7363 9.79199H52.0059V15.082H62.3564V21.9355H52.0059V27.7783H63.7363V35H42.9902V2.57031H63.7363V9.79199ZM138.782 35H129.26L127.512 29.71H116.012L114.264 35H104.788L116.61 2.57031H127.006L138.782 35ZM152.212 20.1113C153.688 20.1113 154.864 20.4595 155.74 21.1553C156.628 21.8392 157.102 22.8059 157.162 24.0537H153.328C153.316 23.6699 153.196 23.3814 152.968 23.1895C152.752 22.9978 152.47 22.9014 152.122 22.9014C151.858 22.9014 151.642 22.9799 151.474 23.1357C151.306 23.2916 151.222 23.5142 151.222 23.8018C151.222 24.0415 151.312 24.2518 151.492 24.4316C151.684 24.5996 151.919 24.7499 152.194 24.8818C152.47 25.0018 152.878 25.1577 153.418 25.3496C154.222 25.6256 154.882 25.9018 155.398 26.1777C155.926 26.4417 156.376 26.8198 156.748 27.3115C157.132 27.7914 157.324 28.4037 157.324 29.1475C157.324 29.9034 157.132 30.5817 156.748 31.1816C156.376 31.7815 155.83 32.2555 155.11 32.6035C154.402 32.9515 153.562 33.126 152.59 33.126C151.114 33.1259 149.902 32.7779 148.954 32.082C148.006 31.374 147.496 30.3655 147.424 29.0576H151.187C151.223 29.5013 151.354 29.8253 151.582 30.0293C151.81 30.2332 152.104 30.3359 152.464 30.3359C152.788 30.3359 153.052 30.2575 153.256 30.1016C153.472 29.9336 153.58 29.7057 153.58 29.418C153.58 29.0463 153.406 28.7576 153.059 28.5537C152.711 28.3498 152.146 28.1211 151.366 27.8691C150.538 27.5932 149.866 27.3291 149.351 27.0771C148.847 26.8132 148.402 26.4352 148.019 25.9434C147.647 25.4394 147.46 24.7853 147.46 23.9814C147.46 23.1657 147.664 22.4694 148.072 21.8936C148.48 21.3058 149.044 20.8615 149.764 20.5615C150.484 20.2616 151.3 20.1114 152.212 20.1113ZM173.283 27.6719C173.283 28.3555 173.44 28.8839 173.752 29.2559C174.076 29.6276 174.562 29.8134 175.21 29.8135C175.858 29.8134 176.344 29.6278 176.668 29.2559C177.004 28.8719 177.172 28.3436 177.172 27.6719V20.3096H180.699V27.6719C180.699 28.8354 180.454 29.8314 179.962 30.6592C179.47 31.4752 178.797 32.0937 177.945 32.5137C177.105 32.9216 176.17 33.1259 175.138 33.126C174.106 33.126 173.181 32.9216 172.365 32.5137C171.561 32.0937 170.925 31.475 170.457 30.6592C170.001 29.8434 169.773 28.8473 169.773 27.6719V20.3096H173.283V27.6719ZM207.499 20.1113C208.699 20.1113 209.791 20.3876 210.775 20.9395C211.771 21.4914 212.558 22.2659 213.134 23.2617C213.71 24.2455 213.997 25.3617 213.997 26.6094C213.997 27.8572 213.71 28.9797 213.134 29.9756C212.558 30.9596 211.771 31.7339 210.775 32.2979C209.779 32.8498 208.687 33.126 207.499 33.126C206.311 33.1259 205.219 32.8497 204.224 32.2979C203.228 31.7339 202.436 30.9594 201.848 29.9756C201.272 28.9797 200.983 27.8572 200.983 26.6094C200.983 25.3616 201.272 24.2456 201.848 23.2617C202.436 22.2658 203.228 21.4914 204.224 20.9395C205.219 20.3876 206.311 20.1114 207.499 20.1113ZM168.522 23.1172H165.139V33H161.61V23.1172H158.263V20.3096H168.522V23.1172ZM187.664 20.3096C188.996 20.3096 190.16 20.5793 191.156 21.1191C192.164 21.647 192.938 22.3919 193.478 23.3516C194.017 24.3114 194.288 25.4097 194.288 26.6455C194.288 27.8694 194.012 28.9619 193.46 29.9219C192.92 30.8818 192.146 31.6375 191.138 32.1895C190.142 32.7294 188.984 33 187.664 33H182.642V20.3096H187.664ZM199.406 33H195.878V20.3096H199.406V33ZM186.17 29.8857H187.394C188.425 29.8857 189.236 29.604 189.824 29.04C190.412 28.476 190.706 27.6774 190.706 26.6455C190.706 25.6018 190.412 24.7973 189.824 24.2334C189.236 23.6576 188.425 23.3691 187.394 23.3691H186.17V29.8857ZM207.499 23.3516C206.587 23.3517 205.873 23.6457 205.357 24.2334C204.842 24.8093 204.583 25.6017 204.583 26.6094C204.583 27.6051 204.842 28.3974 205.357 28.9854C205.873 29.5612 206.587 29.8495 207.499 29.8496C208.399 29.8496 209.107 29.5556 209.623 28.9678C210.151 28.3798 210.415 27.5933 210.415 26.6094C210.415 25.6017 210.151 24.8093 209.623 24.2334C209.107 23.6458 208.399 23.3516 207.499 23.3516ZM118.312 22.8096H125.258L121.762 12.3223L118.312 22.8096ZM166.191 2.18359C167.787 2.18359 169.107 2.5681 170.151 3.33594C171.195 4.10381 171.844 5.15367 172.096 6.48535H168.298C168.094 6.14958 167.811 5.89183 167.451 5.71191C167.103 5.53214 166.69 5.44145 166.21 5.44141C165.322 5.44145 164.619 5.7298 164.104 6.30566C163.6 6.88157 163.348 7.65618 163.348 8.62793C163.348 9.71953 163.618 10.554 164.157 11.1299C164.709 11.6938 165.508 11.9756 166.552 11.9756C167.788 11.9755 168.669 11.4175 169.197 10.3018H165.651V7.76367H172.239V11.1836C171.963 11.8554 171.555 12.4854 171.016 13.0732C170.488 13.6611 169.816 14.1473 169 14.5312C168.184 14.9032 167.254 15.0898 166.21 15.0898C164.938 15.0898 163.809 14.8193 162.825 14.2793C161.854 13.7273 161.097 12.9649 160.558 11.9932C160.03 11.0094 159.766 9.88748 159.766 8.62793C159.766 7.38019 160.03 6.26969 160.558 5.29785C161.098 4.3141 161.853 3.55166 162.825 3.01172C163.797 2.45979 164.92 2.18365 166.191 2.18359ZM146.446 2.30957C147.778 2.30958 148.943 2.57927 149.938 3.11914C150.946 3.64703 151.72 4.39186 152.26 5.35156C152.8 6.31144 153.07 7.40971 153.07 8.64551C153.07 9.8694 152.794 10.9619 152.242 11.9219C151.702 12.8818 150.928 13.6375 149.92 14.1895C148.924 14.7294 147.766 15 146.446 15H141.424V2.30957H146.446ZM158.188 15H154.66V2.30957H158.188V15ZM177.349 15H173.82V2.30957H177.349V15ZM188.916 5.11719H185.532V15H182.004V5.11719H178.656V2.30957H188.916V5.11719ZM202.659 15H198.933L198.249 12.9297H193.749L193.065 15H189.357L193.983 2.30957H198.051L202.659 15ZM207.337 12.2998H211.279V15H203.809V2.30957H207.337V12.2998ZM144.952 11.8857H146.176C147.208 11.8857 148.018 11.604 148.606 11.04C149.194 10.476 149.488 9.67744 149.488 8.64551C149.488 7.60177 149.194 6.79731 148.606 6.2334C148.018 5.6576 147.208 5.36914 146.176 5.36914H144.952V11.8857ZM194.649 10.2295H197.367L195.999 6.12598L194.649 10.2295Z" fill="#282828"/>
<defs>
<linearGradient id="paint0_linear_679_5992" x1="120.909" y1="0" x2="120.909" y2="37.9988" gradientUnits="userSpaceOnUse">
<stop stop-color="#249FDD"/>
<stop offset="1" stop-color="#27DC6F"/>
</linearGradient>
</defs>
</svg>
